<svg xmlns="http://www.w3.org/2000/svg">
<metadata>
This is a custom SVG webfont generated by Font Squirrel.
Copyright   : Copyright c 2008 by Fonthead Design Inc All rights reserved
Designer    : Ethan Dunham
Foundry     : Fonthead Design Inc
Foundry URL : httpwwwfontheadcom
</metadata>
<defs>
<font id="GoodDogNewRegular" horiz-adv-x="892" >
<font-face units-per-em="2048" ascent="1536" descent="-512" />
<missing-glyph horiz-adv-x="563" />
<glyph unicode=" "  horiz-adv-x="563" />
<glyph unicode="&#x09;" horiz-adv-x="563" />
<glyph unicode="&#xa0;" horiz-adv-x="563" />
<glyph unicode="!" horiz-adv-x="512" d="M20 98q0 35 25 57.5t49.5 31t69.5 16.5q78 14 113.5 -38t-7.5 -118q-29 -43 -90 -54t-111.5 18.5t-48.5 86.5zM91 671.5q5 28.5 23.5 98.5t24.5 107q47 285 47 290q4 31 7.5 86.5t7.5 90t14 74.5t33.5 65.5t60.5 38.5q27 12 78 10t68 -27q14 -18 15 -51t-5 -60.5 t-15.5 -63.5t-11.5 -52q-8 -59 -27.5 -224t-31.5 -253q-27 -176 -53 -211q-23 -31 -72 -52.5t-99.5 -11t-62.5 61.5q-6 55 -1 83.5z" />
<glyph unicode="&#x22;" horiz-adv-x="780" d="M60 824.5q1 25.5 9.5 99t10.5 96.5q18 242 41 323q18 59 119 76q16 2 30.5 -2t22.5 -15t15 -23.5t10.5 -33t5.5 -37t1 -42t-1 -42t-2.5 -42t-2.5 -37.5q-14 -287 -45 -352q-27 -61 -98.5 -85t-107.5 44q-9 47 -8 72.5zM450 833.5q1 47.5 4 89.5t8 100t7 85q16 180 41 233 q39 88 166 60q37 -33 41 -117t-8 -154q-18 -229 -35 -325q-8 -61 -69.5 -97t-129.5 7q-14 10 -20 40.5t-5 78z" />
<glyph unicode="#" horiz-adv-x="1425" d="M33 668q-2 68 50 87t145.5 18t131.5 11q49 14 50 125q-23 20 -107 23.5t-90 5.5q-35 8 -53.5 53t-9.5 96q8 59 82.5 73t158.5 4.5t94 -5.5q14 8 59.5 105.5t61.5 119.5q43 57 148 27q27 -8 38 -28.5t7 -52.5t-10.5 -58.5t-18.5 -64.5t-16 -54q10 -25 71.5 -30t87.5 5 q37 35 75 129.5t75 120.5q37 33 106.5 32t81.5 -54q10 -45 -39 -124t-41 -116q6 -27 41 -36t73 -8t71 -14.5t35 -56.5q8 -119 -93 -127q-27 -2 -98.5 8.5t-91.5 0.5q-25 -6 -53.5 -69.5t-1.5 -74.5q47 -20 121.5 -25t103.5 -21.5t20 -74.5q-6 -53 -28.5 -76.5t-85 -32.5 t-195.5 -1q-29 2 -44 -28.5t-18 -70.5t-10.5 -81t-19.5 -54q-23 -25 -69 -36t-90 2.5t-54 58.5q-8 41 17.5 113.5t19.5 87.5q-6 27 -63.5 43t-98.5 -8q-4 -2 -37 -110t-78 -138q-39 -31 -101 -24t-83 59q-16 41 7.5 105.5t21.5 102.5q-25 8 -97.5 12.5t-114.5 30t-44 95.5z M655 788q29 -31 133 -30q55 39 52 143q-29 25 -83.5 28t-78.5 -24q-43 -62 -23 -117z" />
<glyph unicode="$" horiz-adv-x="1122" d="M88 979q8 166 107 262q37 43 157.5 80t134.5 45q14 12 21.5 73.5t26.5 82.5q29 29 76.5 30.5t80.5 -28.5q29 -27 28 -90.5t5 -96.5q4 -10 15.5 -18t32 -15.5t34.5 -11.5t44 -10t38 -8q102 -27 153 -72q14 -12 14.5 -50t-18.5 -77q-12 -25 -52 -39t-81 -8q-18 2 -43.5 9 t-48 13.5t-43 13.5t-33.5 11l-12 4q-14 -6 -19.5 -44t-6.5 -93t-5 -78q14 -14 98.5 -42.5t108.5 -45.5q139 -84 158 -196q27 -184 -32.5 -280.5t-215.5 -168.5q-16 -8 -69.5 -18.5t-69.5 -18.5q-18 -8 -28.5 -63.5t-22.5 -71.5q-33 -53 -148 -29q-37 8 -40 74t-25 78 q-55 29 -160 43q-238 35 -156 192q6 10 13.5 18.5t13.5 13.5t16 7t17.5 3t20.5 0t20.5 -2t22.5 -6l22 -7q6 -2 22 -7t23 -7q121 -39 151 -8q8 8 13.5 68.5t10.5 144t9 118.5q-104 12 -203 56q-188 82 -176 270zM301 997q8 -45 70.5 -84t105.5 -26q10 33 17.5 121t-0.5 116 q-74 10 -139.5 -29t-53.5 -98zM668 295q111 12 148.5 95t-3.5 160t-123 77q-14 -61 -20 -152q-12 -123 -2 -180z" />

<glyph unicode="%" horiz-adv-x="1611" d="M51.5 954.5q-14.5 120.5 30.5 194.5q27 49 99.5 92t146.5 53q98 14 201.5 -56.5t125.5 -156.5q23 -84 -16 -169t-117 -134t-180 -56t-209 66q-67 46 -81.5 166.5zM299 961q39 -47 94 -39q45 6 51 61q6 49 -32.5 78t-89.5 14q-72 -53 -23 -114zM475 238q-2 33 14.5 73.5 t44 86.5t35.5 65q72 147 123 264q100 219 211 422q4 6 17.5 30.5t17.5 31t15.5 24.5t17.5 23.5t19.5 17.5t24.5 17t28.5 10.5t35.5 9.5q100 18 119 -43q2 -35 1 -57.5t-22.5 -71.5t-36 -76t-39 -70t-30.5 -55q-25 -47 -231 -491q-2 -4 -32 -72t-44 -95.5t-47 -68.5t-66 -55 q-63 -31 -117.5 -7t-58.5 87zM947.5 270.5q-23.5 114.5 23.5 214.5q33 68 122 125.5t177 67.5q92 12 194.5 -90.5t73.5 -233.5q-8 -45 -57 -100t-101 -84q-66 -37 -162 -52.5t-171 9.5q-76 29 -99.5 143.5zM1161 399q-39 -57 29 -84q51 -18 91 6.5t40 77.5q0 72 -64 62 q-59 -11 -96 -62z" />
<glyph unicode="&#x26;" horiz-adv-x="1337" d="M78 494q35 113 162 215q25 20 55.5 34.5t48.5 21.5t21 13q14 43 -7.5 138.5t-21.5 123.5q0 84 53 191q27 47 88.5 91t130.5 62q90 20 173 -3t122 -91q55 -94 15 -223q-27 -86 -136 -223q-16 -23 -44.5 -48.5t-46 -42t-17.5 -24.5q0 -10 43 -82t69 -98l25 -25 q27 -27 42 -39t41 -26.5t44 -12.5q10 0 39 54.5t63.5 125t51.5 95.5q37 47 84 46t79 -36q14 -16 18.5 -38.5t-3.5 -51.5t-16.5 -49.5t-24 -52t-19.5 -39.5t-16 -34t-18.5 -41t-11.5 -36.5t-1 -38.5q8 -31 58.5 -60.5t60.5 -60.5q18 -53 -18.5 -101t-104.5 -52 q-53 -2 -111.5 41t-89.5 43q-29 0 -113.5 -36t-101.5 -40q-352 -117 -524 -14q-82 47 -129 181t-12 243zM291 418q2 -72 51 -119t127 -55q57 -6 123.5 12t109.5 53q-100 121 -122 154q-6 8 -24.5 40t-31 51t-33 37.5t-36.5 16.5q-49 -2 -108.5 -72.5t-55.5 -117.5zM525 974 q1 -52 30 -65q25 -10 57.5 10.5t60 60.5t44 83t6.5 81t-51 52q-37 12 -73 -25.5t-55.5 -91t-18.5 -105.5z" />
<glyph unicode="'" horiz-adv-x="376" d="M62 817q1 37 7.5 102.5t6.5 73.5q23 274 41 363q8 43 32.5 61.5t71.5 22.5q104 10 88 -369q0 -20 -2 -71.5t-3 -82t-6 -70.5t-13 -69q-16 -53 -58.5 -81.5t-72.5 -28.5q-27 0 -55.5 21.5t-35.5 55.5q-2 35 -1 72z" />
<glyph unicode="(" horiz-adv-x="651" d="M63.5 492.5q-6.5 144.5 12 276.5t53.5 245q92 362 354 467q55 8 92 -24t41 -73q-27 -53 -125 -160.5t-122 -191.5q-68 -170 -61 -424t102 -393q8 -12 37.5 -46t43 -61.5t11.5 -60.5q-4 -45 -53.5 -66.5t-112.5 -11.5q-29 10 -54.5 30.5t-43 37t-40 51.5t-30.5 49.5 t-30.5 56.5t-26.5 50q-41 104 -47.5 248.5z" />
<glyph unicode=")" horiz-adv-x="634" d="M80 1446q0 100 108 115q70 8 149 -59.5t122 -145.5q98 -178 110.5 -458t-65.5 -515q-33 -96 -102.5 -233.5t-122.5 -178.5q-29 -25 -80.5 -22.5t-77.5 28.5q-25 23 -28 54.5t12.5 66.5t32 61.5t38 55.5t23.5 33q66 111 105.5 276.5t34.5 352t-71 313.5q-20 49 -96 119.5 t-92 136.5z" />
<glyph unicode="*" horiz-adv-x="1175" d="M60 1073q1 49 37 97.5t81 48.5q61 -2 148.5 -55.5t124.5 -61.5q27 14 11 133t-1 141q25 41 107.5 49.5t119.5 -32.5q20 -23 14 -125.5t5 -120.5q14 -2 52 35t86 83t79 56q51 18 100 -34t55 -105q4 -55 -50 -95t-118.5 -77t-76.5 -76q14 -31 65 -56.5t103.5 -41t96.5 -46 t48 -73.5q2 -59 -22.5 -107.5t-75.5 -44.5q-72 4 -175.5 58.5t-128.5 60.5q-4 -29 11.5 -121t7.5 -135q-10 -51 -67.5 -70.5t-118.5 7.5q-39 18 -52.5 73.5t-16.5 123t-17 95.5q-25 -8 -60 -48t-64.5 -77.5t-76.5 -62.5t-101 -12q-37 8 -64.5 51t-19.5 92q16 51 129 131 t130 133q-2 8 -49.5 25.5t-116 46.5t-109.5 59q-31 29 -30 78z" />
<glyph unicode="+" horiz-adv-x="909" d="M33 508q-6 51 12 84t53 44t79 17t90 3t89 1q10 35 15.5 104.5t13.5 100.5q20 76 119 78q29 0 65.5 -23.5t42.5 -54.5q10 -29 5 -116t-3 -107q37 -2 84 -2t90 1t73 -23.5t30 -77.5q0 -90 -76 -117q-27 -10 -84 -13.5t-102 -0.5l-45 2q6 -162 -25 -234q-33 -68 -131 -72 q-45 0 -70.5 15.5t-33 50.5t-6.5 65.5t7.5 86t6.5 86.5q-16 2 -127 2t-133 16q-23 8 -29 24.5t-10 59.5z" />
<glyph unicode="," horiz-adv-x="464" d="M29 -252q2 41 65.5 118t61.5 132q4 35 -1 103.5t7 82.5q29 80 114 90q59 4 85 -50t19 -130t-24.5 -146.5t-38.5 -103.5q-39 -59 -94 -110t-102 -51q-33 0 -60.5 17t-31.5 48z" />
<glyph unicode="-" horiz-adv-x="1067" d="M55 557q0 88 115 100q41 6 360 7q27 0 124.5 3t156.5 0t96 -14q53 -16 77 -74.5t-1 -117.5q-8 -18 -35.5 -31.5t-78 -20t-83 -8.5t-99 -3t-79.5 -1q-403 -12 -477 17q-37 12 -57.5 53t-18.5 90z" />
<glyph unicode="." horiz-adv-x="454" d="M39 51q-4 90 62.5 189.5t179.5 74.5q55 -29 73.5 -90t2 -122.5t-62.5 -108.5t-106 -49q-49 -2 -98 28.5t-51 77.5z" />
<glyph unicode="/" horiz-adv-x="925" d="M33 137q266 588 469 948q12 20 46 88t58.5 111t63.5 85t73 50q53 12 105.5 -5t60.5 -54q4 -20 -8 -50t-35.5 -68t-29.5 -48q-115 -207 -302.5 -596t-261.5 -532q-37 -45 -97 -65.5t-106 12t-36 124.5z" />
<glyph unicode="0" horiz-adv-x="1173" d="M51 437q2 85 19 155q53 604 487 672q94 14 182 -29t139.5 -102.5t86.5 -126.5q29 -53 41 -137.5t8 -183.5t-35 -202.5t-81 -191.5t-136 -155.5t-197 -90.5q-178 -39 -395 86q-63 37 -92 129t-27 177zM285.5 590q-11.5 -162 23.5 -228q25 -47 99.5 -76.5t132.5 -17.5 q88 18 150.5 114.5t83 208t7.5 204.5q-8 63 -80.5 141t-144.5 76q-55 -2 -113.5 -55.5t-91.5 -110.5q-55 -94 -66.5 -256z" />
<glyph unicode="1" horiz-adv-x="587" d="M101 115.5q-3 21.5 2.5 62.5t8.5 55.5t9 53.5q25 137 44 382.5t28 309.5q2 23 5 68t5 75.5t9 65.5t22.5 57.5t39.5 32.5q35 20 93.5 9t78.5 -60q8 -43 4 -72t-18 -92.5t-18 -89.5q-12 -92 -28.5 -300t-27.5 -288q-4 -23 -6 -136.5t-20 -152.5q-18 -37 -67.5 -67.5 t-88.5 -24.5q-25 4 -42 18.5t-23.5 43t-9.5 50z" />
<glyph unicode="2" horiz-adv-x="958" d="M33 946q2 61 103.5 162.5t176.5 142.5q49 43 142.5 57.5t183.5 -15t117 -107.5q25 -141 -19.5 -270.5t-136.5 -284.5q-6 -10 -81 -129t-99 -193q43 -14 239.5 6.5t227.5 -20.5q31 -39 10.5 -117t-72.5 -94q-147 -23 -561 -12q-59 2 -101 22.5t-44 52.5q-2 35 12 79 t32.5 74t47.5 71t35 53q33 55 81 127t83.5 129t68.5 129q6 14 23.5 44t28 51.5t20.5 50t10 57t-12 55.5q-8 16 -17.5 26.5t-21.5 12.5t-24.5 1t-28 -9t-27.5 -15.5t-28.5 -20.5t-26.5 -21.5t-24.5 -21.5t-20.5 -18q-20 -16 -58.5 -61t-72 -71.5t-68.5 -28.5 q-49 -2 -74.5 28.5t-23.5 77.5z" />
<glyph unicode="3" horiz-adv-x="989" d="M46 1117.5q-3 15.5 7 31.5t17.5 25.5t24 21.5t26.5 19.5t28.5 17.5t26.5 16q145 80 354 105q113 14 241 -47.5t138 -161.5q25 -84 -69.5 -197.5t-149.5 -132.5q20 -8 50 -22.5t86.5 -62.5t70.5 -99q37 -127 -8 -239.5t-123 -190.5q-53 -53 -142 -100.5t-180 -59.5 q-315 -55 -331 82q-4 43 18.5 78t61.5 49h49h52q13 0 47 1t51.5 5t46 10t49 15.5t46 23.5t48.5 33q129 109 110 215q-10 61 -73.5 88t-134 28t-129 21.5t-60.5 71.5q-2 27 3 48t10 34.5t24.5 27t28 18.5t40 19.5t43.5 20.5q238 119 226 184q-10 47 -100.5 50t-125.5 -17 q-41 -12 -130 -65.5t-115 -63.5q-55 -10 -98.5 8t-51.5 51q0 25 -3 40.5z" />
<glyph unicode="4" horiz-adv-x="1024" d="M39 603.5q-2 19.5 0 44t5 44t10 49t10.5 44t11.5 46t10 35.5q55 209 70 269q4 18 11 59t13 61.5t18.5 46t35 39t55.5 15.5q47 2 82 -18.5t41 -59.5q10 -76 -62 -315q-70 -242 -59 -263q14 -14 140 -14t181 6q47 125 84 322l13 80q8 53 13 81.5t17.5 69.5t25.5 62.5 t37.5 39t57.5 17.5q70 4 98.5 -17.5t18.5 -97.5q-12 -82 -117 -581q-16 -74 -38.5 -216.5t-40 -253t-27.5 -132.5q-27 -49 -99.5 -60.5t-122.5 29.5q-23 76 2 214t21 193q-66 31 -207 19q-260 -18 -303 108q-4 15 -6 34.5z" />
<glyph unicode="5" horiz-adv-x="970" d="M55 115q-8 45 11.5 96t64.5 61q43 8 120 -19.5t105 -27.5q109 6 190 61.5t101 149.5q-4 72 -59.5 111t-128 40t-148.5 -5q-117 -20 -149 -9q-47 18 -64 95q-2 104 23.5 309t30.5 266q2 53 44 88t97 37q23 2 66.5 5t63 4t56.5 1t77 -2t95 -8q20 -2 65.5 -4t73 -4 t59.5 -10.5t50.5 -25.5t22.5 -44q10 -63 -19 -108.5t-78 -49.5q-25 -2 -214 4.5t-199 -10.5q-18 -8 -32.5 -32.5t-23 -63.5t-13.5 -68.5t-9 -73.5t-4 -53q18 -2 69.5 -4t96.5 -6t82 -14q143 -27 241.5 -114t77.5 -226q-37 -174 -173 -301t-308 -152q-129 -16 -239 11.5 t-122 95.5z" />

<glyph unicode="6" horiz-adv-x="1034" d="M55 457q12 182 99.5 405t187.5 334q47 55 121 124t112 73q43 6 100.5 -22t61.5 -66q2 -35 -28.5 -75t-83 -85t-58.5 -53q-133 -141 -180 -324q27 2 94.5 12.5t97 12.5t83.5 -2q156 -29 249 -122.5t78 -254.5q-18 -180 -220 -312.5t-404 -111.5q-341 37 -310 467z M310.5 291q29.5 -76 107.5 -80q129 -6 232.5 71.5t97.5 202.5q-20 76 -118 91.5t-194 -20.5t-119 -93q-36 -96 -6.5 -172z" />
<glyph unicode="7" horiz-adv-x="978" d="M44 1249.5q-3 53.5 15 87.5q6 8 14.5 15.5t15.5 12.5t20.5 9t20.5 6t24.5 4t23.5 3.5t25.5 2.5t21.5 1q23 4 259.5 3t295.5 -1q55 -2 105.5 -30t54.5 -71q4 -37 -12.5 -72.5t-48 -80.5t-37.5 -56q-139 -238 -219 -456q-113 -260 -140 -561q-4 -45 -78.5 -70t-125.5 -2 q-14 6 -25.5 16t-17 24.5t-8.5 27t-2 33t1 33.5t5.5 35.5t7.5 34t8 35t8 29.5q80 332 125 443q63 164 192 442q-25 6 -230.5 -1t-270.5 25q-25 25 -28 78.5z" />
<glyph unicode="8" horiz-adv-x="1110" d="M76 283q-14 154 67 260q14 18 53.5 67t49.5 62q-16 20 -43 78.5t-35 95.5q-33 137 -25.5 236.5t72.5 181.5q59 76 207.5 119.5t271.5 19.5q100 -6 174 -60.5t106 -132t28.5 -171t-44.5 -173.5q-43 -84 -106 -141q6 -8 31.5 -34.5t42 -49.5t37 -58.5t32 -82.5t13.5 -101 q6 -295 -289 -387q-274 -86 -469 37q-59 35 -113.5 105t-60.5 129zM309 362q0 -59 51.5 -107t122.5 -50q57 0 100.5 5t88.5 21.5t70.5 55.5t27.5 98q2 47 -54.5 101.5t-121.5 62.5q-109 12 -197 -39.5t-88 -147.5zM387 1054q-12 -85 32 -159t118 -74q88 -2 151.5 40 t73.5 106q18 102 -27 162.5t-117.5 63.5t-148.5 -24q-70 -30 -82 -115z" />
<glyph unicode="9" horiz-adv-x="1032" d="M53 918q18 182 151.5 321t291.5 156q88 8 195.5 -18.5t166.5 -90.5q63 -63 76.5 -193t-12 -262.5t-70.5 -242.5q-80 -193 -179.5 -331t-250.5 -243q-20 -12 -52 -19t-68 -8t-62.5 20.5t-30.5 66.5q-2 27 5 48t25.5 41.5t33 33t42 33t37.5 28.5q41 33 95.5 98.5t62.5 98.5 q-8 4 -101.5 27.5t-125.5 39.5q-123 59 -184.5 148.5t-45.5 247.5zM295 813q39 -82 138 -110.5t196 -10.5q86 131 86 242q0 127 -49.5 189.5t-159.5 43.5q-104 -16 -178 -124.5t-33 -229.5z" />
<glyph unicode=":" horiz-adv-x="460" d="M39 51q-4 90 61.5 189.5t178.5 74.5q57 -29 75.5 -90t2 -122.5t-62.5 -108.5t-106 -49q-49 -2 -98 28.5t-51 77.5zM61 686q0 80 70 148.5t166 48.5q61 -14 87 -80t-7 -148q-27 -59 -103.5 -86.5t-144.5 2t-68 115.5z" />
<glyph unicode=";" horiz-adv-x="495" d="M45 -252q0 41 64.5 118t60.5 132q4 37 0 104.5t6 81.5q33 82 115 90q59 4 84.5 -50t18.5 -130t-24.5 -146.5t-37.5 -103.5q-35 -57 -91.5 -109t-105.5 -52q-33 0 -60.5 17t-29.5 48zM82 664q-2 68 37 122t84 72q53 25 98 25q49 0 93 -33t52 -78q16 -84 -40 -151.5 t-131.5 -78t-133 22.5t-59.5 99z" />
<glyph unicode="&#x3c;" horiz-adv-x="854" d="M16 410q2 82 136 221q14 14 177 200.5t201 212.5q47 35 123 41q35 2 70 -43t20 -81q-25 -74 -188.5 -252.5t-189.5 -233.5q39 -39 205.5 -104.5t211.5 -124.5q6 -61 -30.5 -123t-122.5 -47q-33 4 -211 77.5t-234 100.5q-16 6 -50 19.5t-49 21.5t-34.5 23.5t-28 38 t-6.5 53.5z" />
<glyph unicode="=" horiz-adv-x="927" d="M57 631q-4 33 14.5 70.5t43.5 54.5q39 25 288.5 27.5t350.5 -11.5q41 -4 84 -29.5t41 -66.5q0 -29 -6.5 -49.5t-18.5 -32.5t-30.5 -18.5t-45 -9.5t-60.5 -3h-77h-96q-78 -6 -199 -12q-12 0 -52 -3t-63.5 -4t-59.5 1t-56.5 11t-38 27.5t-19.5 47.5zM85 303q-17 41 5 88 q47 86 588 53l20 -2q20 0 27.5 -1t27 -3t30 -7t23.5 -12t19 -18.5t9 -25.5q10 -94 -64 -117q-51 -16 -311 -22.5t-309 10.5q-48 16 -65 57z" />
<glyph unicode="&#x3e;" horiz-adv-x="870" d="M47 858q-4 57 32 97t91 49q68 10 422 -164q6 -2 26.5 -13.5t34 -18.5t37 -19.5t39.5 -22.5t37.5 -22.5t36 -24.5t27 -24.5t19.5 -24t7 -21.5q2 -61 -235 -270q-293 -264 -345 -275q-72 -14 -111.5 18t-35.5 97q-2 63 219 217q174 129 172 152q-55 51 -196 106 q-269 107 -277 164z" />
<glyph unicode="?" horiz-adv-x="958" d="M33 979q-16 70 92 233q82 125 247 196t324 7q100 -39 167 -112.5t61 -180.5q-8 -111 -81 -190.5t-190.5 -153t-156.5 -114.5q-6 -29 5 -97.5t4 -114.5t-54 -59q-156 -39 -172 66q-35 219 -29 280q4 18 12 32.5t24.5 28t27 20.5t37 20.5t36.5 19.5q29 20 90.5 55t98 57.5 t74.5 64.5t52 91q2 57 -38.5 95.5t-92.5 42.5q-82 6 -168 -72t-124 -150q-10 -18 -19.5 -57t-25 -61.5t-48.5 -30.5q-45 -8 -95 20.5t-58 63.5zM287 131q-10 78 75 102q84 23 136.5 -31.5t7.5 -117.5q-41 -55 -126 -33.5t-93 80.5z" />
<glyph unicode="@" horiz-adv-x="1495" d="M74 682q-4 248 78 375q88 145 169.5 224t217 128t338.5 53q156 2 297 -107.5t210 -256.5q63 -131 46 -289t-103 -254q-45 -47 -116.5 -82t-147.5 -24q-70 8 -156 71q-113 -57 -194 -61q-88 -4 -159 53t-81 152q29 387 383 405q88 -4 167 -52t87 -110q2 -18 -19.5 -94 t-15.5 -129t68 -57q47 -2 78.5 54t35.5 114q12 143 -68.5 265t-189.5 175q-92 41 -197.5 37t-191.5 -41q-170 -74 -265 -250t-44 -420q23 -117 95.5 -177t207.5 -97q6 -2 21.5 -5t23.5 -5.5t21.5 -6.5t21.5 -9t17.5 -10t14.5 -13.5t7 -16.5q8 -43 -28.5 -93t-79.5 -56 q-37 -6 -130.5 23.5t-140.5 54.5q-106 55 -178 149q-96 135 -100 383zM702 680q70 -57 122.5 14.5t37.5 153.5q-68 51 -126.5 -14.5t-33.5 -153.5z" />
<glyph unicode="A" horiz-adv-x="999" d="M24 72q0 16 6 39q7 29 23.5 75.5t22.5 63.5q109 328 317 856q12 31 37 110.5t42 121.5t55 83t89 45q7 1 14 1q37 0 59 -19q26 -23 31 -47.5t11 -93.5q2 -25 4 -37q20 -180 79.5 -465t76.5 -389q8 -49 33.5 -169t33.5 -165q-2 -43 -51 -73q-46 -28 -86 -28q-3 0 -6 1 q-53 6 -76.5 96t-40 205.5t-43.5 156.5q-14 -2 -88.5 -10t-123 -17.5t-83.5 -23.5q-20 -74 -65 -188.5t-82 -171.5q-36 -34 -81 -35q-17 0 -35 5q-73 19 -73 73zM438 612q17 -5 40 -5q25 0 59 6q63 11 84 30v13q0 63 -18 166q-19 114 -40 147h-18q-27 -51 -63 -168t-44 -189 z" />
<glyph unicode="B" horiz-adv-x="919" d="M70 125q6 197 39 598q2 31 8 133t11 166.5t18.5 149.5t29.5 137q35 49 147 67q77 13 154 13q34 0 68 -3q98 -10 186 -69.5t96 -128.5q1 -7 1 -15q0 -30 -13 -63q-16 -41 -27.5 -57.5t-42.5 -55.5q-12 -16 -57 -64t-63 -85q29 -31 82 -61.5t73 -51.5q61 -61 94 -160 q19 -58 20 -112q0 -38 -9 -74q-35 -131 -140.5 -214t-231.5 -112q-98 -22 -205 -22q-31 0 -62 2q-149 8 -176 82zM319 473q-6 -67 -5 -114q0 -67 12 -95q29 -8 60 -8q64 0 142 33q117 49 131 117q4 21 5 40q0 93 -93.5 171.5t-179.5 78.5q-18 0 -37 -4q-18 -18 -24 -52 t-7.5 -94.5t-3.5 -72.5zM349 1053q-2 -26 -2 -49q0 -59 13 -97q4 -4 11.5 -4t22 8.5t27.5 15.5t30.5 20.5t30 22.5t26.5 19t18 15q23 16 40 49q20 37 20 59q0 45 -75 72q-40 14 -76 14q-33 0 -62 -12q-17 -41 -24 -133z" />
<glyph unicode="C" horiz-adv-x="1019" d="M59 526q-4 47 -3 92q0 112 22 209q31 137 89 223.5t114.5 138.5t115.5 81q70 37 178 51q63 8 112 8q155 0 163 -80q1 -7 1 -13q0 -71 -103 -101q-27 -6 -87.5 -14.5t-107.5 -22.5q-61 -18 -130 -79t-95 -134q-43 -113 -47 -215q0 -11 -1 -23q0 -89 29 -163 q33 -83 124 -129q77 -39 190 -39q20 0 41 1q27 2 80 22.5t77 25.5q20 4 40 4q26 0 50 -8q43 -13 54 -44q5 -14 5 -28q0 -60 -91 -115q-70 -41 -136.5 -56.5t-173.5 -15.5q-137 0 -293 84q-88 49 -148.5 137t-68.5 203z" />
<glyph unicode="D" horiz-adv-x="1060" d="M59 127q47 477 60 795q4 42 3 83q0 28 -1 56q-2 31 -2 61q0 37 3 73q5 65 16.5 115t47 81.5t93.5 33.5q31 0 108 -18q293 -76 404 -174q53 -49 96 -121q76 -119 98 -266q8 -49 8 -102q0 -105 -30 -222q-47 -152 -112 -233.5t-196 -149.5q-121 -61 -225 -85 q-65 -15 -149 -14q-51 0 -109 5q-63 6 -86 23.5t-27 58.5zM299 338q0 -27 4 -42t12 -22q33 -5 65 -5q140 0 249 105q133 128 143 341q0 11 1 21q0 187 -136 321q-47 45 -130 82q-55 25 -99 24q-22 0 -41 -6q-10 -4 -16.5 -18.5t-9.5 -40t-5 -46t-3 -54t-1 -48.5 q-4 -55 -12.5 -212.5t-14.5 -252.5q0 -10 -3 -48t-3 -55v-44z" />
<glyph unicode="E" horiz-adv-x="919" d="M68 231q0 7 -1 16q0 72 15 265q6 139 33 537q2 82 3 116.5t12 88t32 75.5q59 66 325 66q76 0 119 -3t94.5 -11.5t77 -27t29.5 -46.5q1 -13 1 -25q0 -46 -13 -71q-16 -32 -72 -33q-23 -2 -86 -2q-223 -4 -266 -33q-25 -16 -33 -101q0 -4 -5 -38.5t-7 -56t-3 -53.5t4 -53.5 t17 -33.5q20 -18 59 -19q31 0 100.5 15.5t100.5 15.5q66 0 84 -61q3 -16 3 -31q0 -81 -89 -109q-27 -4 -90 -12q-164 -18 -199 -45q-27 -29 -26 -137q0 -92 4 -127q0 -4 1 -11t1 -10l2 -2q19 -1 41 0q88 0 221 13q16 2 77.5 14t96.5 16q14 2 29 2q23 0 49 -4q29 -8 45 -53 q8 -23 8 -47t-8 -49q-12 -37 -36.5 -59.5t-67.5 -31.5t-72 -11.5t-84 -4.5q-129 0 -367 -16q-19 -1 -35 -1q-74 0 -95 30q-25 36 -29 159z" />
<glyph unicode="F" horiz-adv-x="980" d="M97 48q-5 23 -5 58q0 42 7 101q13 109 14 139q2 111 11 352.5t11 380.5q-1 29 0 56q0 145 19 202q10 29 29.5 48.5t55 27.5t57 11t75 4.5t67.5 1.5q36 2 77 1q94 0 210 -10q20 -2 83.5 -4t104.5 -8t76 -25q15 -35 16 -62q0 -45 -42 -71q-68 -41 -181 -45q-19 -1 -45 -1 q-39 0 -95 2q-47 2 -86 2t-72 -2q-65 -3 -101 -21q-10 -43 -18 -207q0 -20 -3.5 -59t-4.5 -64t2 -55.5t12 -55.5q35 -10 223 -28q6 0 24.5 -2t25.5 -3t24.5 -4t25.5 -5.5t21.5 -6.5t20.5 -8t16.5 -10t13.5 -14.5t6 -18.5q4 -22 4 -41q0 -33 -11 -58q-17 -40 -60 -48 q-25 -4 -56 -5q-26 0 -56 4q-45 5 -94 5q-21 0 -43 -1q-73 -3 -98 -30q-8 -8 -13 -25.5t-8 -43t-4 -43t-2 -46t-1 -32.5q-2 -90 -5 -121t-20.5 -74t-54.5 -70q-44 -30 -78 -30q-8 0 -14 2q-50 10 -61 60z" />

<glyph unicode="G" horiz-adv-x="1122" d="M61 393q-7 62 -7 124q0 224 100 439q45 131 221 322q121 131 337 131h7q82 -2 206 -42t130 -103q2 -18 -4.5 -32.5t-11.5 -22t-16 -16.5t-13 -11q-44 -45 -99 -46q-39 0 -84 23q-58 17 -111 17q-63 0 -120 -23q-106 -43 -160 -135q-90 -147 -131 -354q-12 -55 -14 -118 v-15q0 -56 13 -118q15 -71 52 -110q41 -39 129 -61q40 -10 82 -11q49 0 99 15q147 61 151 274q-25 13 -59 13q-19 0 -40 -4q-27 -5 -55 -5q-35 0 -72 8q-67 14 -81 72q-3 12 -3 23q0 23 14 43q22 29 67 44t85 24.5t83 15.5q12 2 16 2q76 11 133 11q90 0 135 -28 q16 -10 25 -28q7 -16 7 -43q0 -28 -3 -55q-2 -17 -9 -55t-7 -42q-23 -117 -53.5 -195.5t-94.5 -154.5q-152 -158 -391 -158h-6q-199 2 -314 92t-133 293z" />
<glyph unicode="H" horiz-adv-x="985" d="M69 -20q-1 11 -1 23q0 49 10 112q-1 19 -1 39q0 50 4 104q5 76 15 176.5t15 145.5q18 446 39 585q2 20 4 93t6 105t14 81t32.5 71.5t55.5 28.5q10 1 21 1q23 0 47 -6q35 -9 47 -21q23 -25 24 -81q0 -7 1 -15q0 -55 -13 -148l-14 -109q-20 -231 -20 -337q0 -27 1 -46 q37 -33 160 -32q123 4 150 38q43 100 49 496q-1 28 -1 51q0 81 11 105q23 45 81 64q21 7 41 7q36 0 68 -22q25 -18 27 -84v-23q0 -60 -8 -146q-10 -103 -10 -130q-4 -469 -43 -746q-2 -23 -9.5 -90t-14.5 -115.5t-15 -64.5q-19 -47 -75 -47q-38 0 -93 23q-35 9 -35 91v18 q4 99 21 198q7 41 8 75q0 49 -15 84q-14 6 -32.5 7.5t-45 -1.5t-40.5 -3q-18 0 -63 3q-26 2 -47 1h-26q-29 -2 -49 -13q-31 -92 -37 -285.5t-14 -244.5q-14 -43 -68 -78q-32 -21 -66 -21q-22 0 -46 9q-47 17 -50 74z" />
<glyph unicode="I" horiz-adv-x="434" d="M65 91q-3 31 -3 60q0 42 6 80q2 29 3 138.5t3 142.5q4 82 19.5 280.5t21.5 303.5q20 301 28 321q14 27 53.5 45.5t73.5 20.5q74 0 90 -47q9 -45 10 -89q0 -15 -1 -29q-4 -58 -16.5 -163.5t-14.5 -134.5q-2 -43 -15.5 -256t-13.5 -336q0 -326 -28 -369q-23 -33 -78 -53 q-33 -12 -58 -12q-17 0 -30 6q-43 16 -50 91z" />
<glyph unicode="J" horiz-adv-x="972" d="M20 520q31 90 153 90q17 0 36 -2q47 -43 59.5 -163.5t22.5 -149.5q14 -39 52 -75t85 -38h8q77 0 134 108q60 114 77 245q18 240 19 496q0 86 -2 173q0 23 -5.5 59.5t-6.5 53t5 45.5q18 53 94 73q24 6 45 6q46 0 81 -28q16 -14 24 -51t8 -73t-1 -94t-1 -85q2 -56 3 -124 q0 -51 -2 -109q-3 -135 -10 -261.5t-38 -251t-82 -200.5q-57 -84 -149 -140.5t-205 -64.5q-11 -1 -21 -1q-102 0 -200 71q-41 31 -88 91t-64 109q-16 51 -26 138q-6 54 -7 100q0 28 2 53z" />
<glyph unicode="K" horiz-adv-x="1005" d="M59 193v29q0 96 11 271q12 204 14 293q6 51 9 182.5t14.5 239t37.5 166.5q37 57 94 68q9 2 17 1q46 0 84 -44q5 -47 5 -87q0 -30 -3 -56q-6 -60 -22.5 -164.5t-18.5 -143.5q74 31 208 164t193 168q8 6 38 29.5t49.5 37t37.5 17.5q13 2 26 2q40 0 71 -20q41 -27 41 -68 q0 -53 -115 -135q-233 -188 -389 -365q0 -37 57 -90q156 -143 332 -385q6 -8 30.5 -36.5t37 -45t24.5 -44t12 -50.5q-2 -51 -44 -88q-38 -33 -81 -33h-10q-25 0 -52.5 21.5t-40.5 39t-38 52.5q-92 131 -221 282q-70 86 -154 168q-11 -36 -10 -137q0 -36 1 -81q1 -40 1 -74 q0 -108 -12 -150q-16 -47 -57 -75q-28 -19 -66 -19q-17 0 -35 4q-33 6 -53.5 50.5t-22.5 105.5z" />
<glyph unicode="L" horiz-adv-x="888" d="M80 115q-2 20 -2 40q0 55 12 115q23 313 70 697q18 264 49 350q38 109 112 108h3q4 0 8 1q54 0 76 -25q14 -19 13 -72v-21q-3 -71 -11.5 -126.5t-19.5 -127t-13 -96.5q-4 -37 -21.5 -179t-21.5 -214q0 -14 -8.5 -116.5t-8.5 -133t9 -75.5q33 -7 81 -7q55 0 130 9 q78 12 107 15q13 1 29 1q21 0 48 -2q47 -4 70 -27q32 -32 32 -70q0 -17 -7 -35q-22 -58 -79 -67q-156 -20 -504 -39q-18 0 -42 -2q-16 -1 -26 -1h-10q-13 1 -26 8q-43 20 -49 92z" />
<glyph unicode="M" horiz-adv-x="1470" d="M39 58q-7 30 -7 64q0 42 11 91q129 786 131 793q4 96 33 211.5t65 168.5q25 29 77 36q12 2 23 2q38 0 70 -19q10 -6 19.5 -20.5t21 -38t18.5 -39t18 -46t13 -34.5q25 -63 123 -355q63 -199 88 -235q59 88 107 250q31 82 82 204.5t65 159.5q74 156 101 183q35 39 96 46 q8 1 16 1q50 0 80 -39q12 -20 26.5 -88t16.5 -105q6 -70 19.5 -197.5t20.5 -223t13 -203.5q2 -35 10.5 -170.5t14.5 -206.5q2 -14 8 -59.5t8 -69.5q1 -10 1 -22q0 -17 -2 -39q-3 -36 -15 -62q-12 -33 -85 -39q-16 -1 -29 -1q-50 0 -74 17q-49 39 -60 275q-8 152 -12 221 q-2 53 -4 160.5t-5 189.5t-9 131q-12 -20 -107 -215q-49 -127 -119 -264q-8 -16 -28.5 -66.5t-34 -76t-41 -50t-60.5 -24.5q-92 8 -161 229q-80 152 -193 430q-2 -20 -6 -96t-9 -142.5t-14 -99.5q-6 -31 -43 -227q-8 -47 -22 -125q-29 -160 -55 -203q-22 -36 -88 -36 q-13 0 -27 2q-70 5 -86 72z" />
<glyph unicode="N" horiz-adv-x="1163" d="M66 87q-1 12 -1 25q0 47 11 116q14 89 14 98q8 145 38 410t38 419q16 219 45 250q18 20 67 32q23 5 44 5q23 0 45 -6q16 -6 29.5 -19.5t25.5 -37t20.5 -41t22.5 -53.5t20 -52q156 -362 183 -422q125 -281 157 -328q16 59 27 289q4 66 9 175.5t9 182.5q1 11 1 29t-1 42 t-1 45.5t1 40.5q2 38 11 63q8 23 33.5 48t58.5 32q26 5 46 4q51 0 71 -29q19 -24 18 -97q0 -76 -21 -206q-8 -53 -26.5 -407.5t-18.5 -411.5v-59q0 -48 -2 -69.5t-8 -54t-18 -51.5q-20 -31 -72 -46q-25 -7 -48 -7q-25 0 -48 8q-29 12 -72 102q-27 51 -84 153.5t-98 183.5 t-74 159q-8 20 -42 80.5t-63.5 123t-43.5 116.5q-14 -74 -28.5 -304.5t-21.5 -275.5q-18 -266 -61 -309q-23 -27 -72 -33q-11 -1 -20 -1q-37 0 -68 17q-28 19 -32 71z" />
<glyph unicode="O" horiz-adv-x="1314" d="M70 643q23 401 206 574q174 207 408 208q7 0 14 1q109 0 214 -30q112 -32 173 -106q113 -109 148 -282q19 -95 19 -193q0 -80 -13 -160q-23 -133 -45.5 -200.5t-75.5 -145.5q-190 -309 -567 -311q-236 2 -373 213q-70 106 -93 191q-17 63 -17 165q0 36 2 76zM317 530 q8 -84 85 -182t149 -123q44 -16 87 -15q58 0 112 29q94 50 145 130q100 152 109 417q-4 119 -65.5 229.5t-139.5 135.5q-85 28 -161 28q-14 0 -28 -1q-66 -6 -130 -58.5t-95 -111.5q-35 -70 -57 -220q-15 -97 -15 -176q0 -44 4 -82z" />
<glyph unicode="P" horiz-adv-x="1083" d="M67 230q1 95 4 169t8 168.5t5 96.5q25 514 27 546q4 57 9 92t18.5 73t41 57.5t70.5 21.5q7 1 14 1q15 0 32 -3q26 -4 65.5 -13t58.5 -14q313 -61 457 -188q45 -39 90 -108.5t59 -124.5q9 -43 9 -85q0 -34 -6 -68q-13 -75 -48 -130q-70 -109 -229 -186q-68 -31 -210.5 -60 t-213.5 -53q-8 -41 -13.5 -139.5t-13.5 -141.5q-2 -12 -5 -36.5t-7 -40t-10 -25.5q-25 -35 -83 -55q-22 -8 -42 -8q-34 0 -62 22q-14 14 -20 76q-5 53 -6 130q1 12 1 26zM325 801q-4 -46 -4 -81q0 -53 9 -75q106 2 205.5 24.5t178.5 79.5q83 59 83 145q0 83 -73 152 q-77 73 -175 109.5t-189 42.5q-2 -14 -11 -56t-12 -79t-5 -107v-16q1 -42 -7 -139z" />
<glyph unicode="Q" horiz-adv-x="1308" d="M62 592q-1 21 0 42q0 125 26 230q31 121 105.5 231.5t177.5 178.5q104 76 239 90q145 -2 295 -82t228 -192q37 -66 55 -103t36.5 -97.5t22.5 -123.5q1 -22 1 -43q0 -148 -50 -262q-57 -131 -180 -268q-12 -12 -43 -36t-47 -41q-19 -20 -19 -45q0 -34 25 -102 q22 -61 22 -101q0 -12 -2 -22q-8 -39 -55 -68q-41 -26 -76 -26h-10q-66 4 -104 101q-8 20 -15.5 56t-16.5 59.5t-26 33.5q-18 11 -52 11q-10 0 -21 -1q-20 -2 -40 -1q-28 0 -53 3q-303 76 -383 316q-35 112 -40 262zM311 604q8 -180 66 -278q25 -45 84 -73q41 -19 81 -19 q18 0 36 4q6 16 6 37q0 36 -17 90q-20 66 -20 105q0 12 2 22q8 41 40 73.5t68 34.5h6q59 0 87 -43q29 -45 47 -115.5t45 -99.5q25 8 50.5 34.5t37.5 46t33 56.5q52 103 52 210q0 102 -48 208q-25 55 -91.5 119.5t-113.5 89.5q-52 28 -124 28q-24 0 -50 -4 q-66 -8 -138.5 -73.5t-99.5 -138.5q-40 -113 -40 -261q0 -26 1 -53z" />
<glyph unicode="R" horiz-adv-x="1112" d="M82 84q2 29 10 82t10 72q25 248 29 430q0 66 12 407q1 32 1 62.5t-1 60.5q-1 17 0 34q0 43 3 88q5 62 20 93q31 72 149 80q10 1 24 1q37 0 99 -8q86 -11 142 -30q10 -4 49 -16.5t52 -17.5t48 -18t49 -22l43 -24q29 -16 42.5 -30.5t34 -37t31.5 -46t21.5 -54.5t14.5 -66 q5 -37 5 -71q0 -173 -128 -289q-8 -8 -36 -24.5t-47.5 -32t-19.5 -31.5q-2 -18 11.5 -47t40 -69t30.5 -48q27 -45 81 -145.5t95 -167.5q2 -4 18.5 -31t22.5 -38t16.5 -32.5t12.5 -40.5q1 -9 1 -17.5t-1 -16.5q-10 -55 -83 -78q-32 -10 -60 -10q-36 0 -66 16 q-18 10 -34.5 29.5t-37.5 60.5l-22 43q-20 37 -68.5 139.5t-85.5 163.5q-10 12 -38.5 62.5t-55.5 64.5q-9 2 -19 2q-27 0 -62 -15q-48 -22 -62 -48q-14 -43 -24.5 -210t-39.5 -223q-20 -39 -73 -59q-22 -9 -46 -8q-32 0 -65 16q-27 16 -36 51q-8 28 -7 53v11zM371 741 q16 0 33.5 4.5t29.5 9.5t33.5 17t29 17.5t32 23.5t28.5 21q8 6 43 25.5t56.5 33.5t44 37.5t28.5 48.5q4 20 4 42q0 32 -9 64q-15 55 -58 93q-37 33 -138 47q-50 7 -85.5 7t-57.5 -7q-24 -70 -24 -236q0 -105 10 -248z" />
<glyph unicode="S" horiz-adv-x="909" d="M92 1117q35 116 129 198q74 61 166 100q52 20 119 20h18q78 -3 157 -50.5t107 -120.5q16 -23 38 -69t24 -60q3 -12 3 -26q0 -39 -28 -85q-36 -59 -88 -59h-4q-18 0 -36.5 15t-29 31.5t-27.5 44t-24 38.5q-51 72 -88 88q-25 10 -49 6q-76 -12 -128 -71q-44 -49 -43 -95 q0 -9 1 -18q18 -94 83 -143.5t167.5 -81t138.5 -54.5q70 -45 117 -132q39 -71 39 -148q0 -17 -2 -33q-12 -117 -70 -203q-43 -66 -122.5 -119t-184.5 -74q-18 0 -67.5 -7t-80.5 -9h-12q-27 0 -59 7q-39 9 -63 34q-29 38 -29 81q0 12 2 23q8 59 102 86q29 8 132.5 15.5 t148.5 40.5q37 25 55 70q9 22 9 47q0 27 -11 57q-6 14 -21.5 27.5t-30.5 22.5t-42 21.5t-40 17.5t-41 14t-32 11q-229 68 -295 269q-24 87 -23 161q-1 60 15 112z" />
<glyph unicode="T" horiz-adv-x="1079" d="M37 1193q-3 16 -3 31q0 26 9 50q23 49 203 58q71 4 125 4q86 0 135 -9q49 -1 91 -1h41q58 1 157.5 6t130.5 5q8 1 15 1q30 0 65 -12q43 -15 49 -46q2 -10 1 -19q0 -29 -14 -59q-18 -39 -45 -53q-25 -12 -136 -19.5t-138 -31.5q-18 -16 -27.5 -55t-9.5 -76t1 -103v-40 q0 -36 -1 -58q-3 -64 -3 -181v-62v-40q0 -136 -6 -226q-7 -103 -30 -181q-18 -61 -92 -64h-5q-70 0 -99 58q-8 10 -14.5 26.5t-8.5 39t-3 42t0 48t2 45t4 47t3 38.5q12 205 12 361q-2 16 -2 109.5t-8 164t-30 105.5q-11 11 -100 11q-25 0 -57 -1q-16 0 -31 -1 q-117 0 -155 30q-18 14 -26 58z" />
<glyph unicode="U" horiz-adv-x="1105" d="M74 492q-11 102 -11 213q0 184 29 397q2 18 7 60t8.5 58.5t9.5 48t14 47t20.5 35t30 31t41.5 19.5q34 10 61 10q39 0 60 -22q12 -14 13 -50q0 -7 1 -13q0 -28 -4 -55q-4 -34 -12 -81t-10 -66q-12 -141 -18 -202q-4 -44 -3 -113v-58q2 -110 17 -204q25 -162 73 -234 q25 -39 79 -68q37 -20 80 -20q21 0 42 4q59 12 97 106.5t49.5 199t13.5 221.5q0 45 4 98q0 66 8 242q0 4 1 67.5t4 104.5t12 61q14 37 53 62.5t80 31.5q15 3 27 3q38 0 59 -23q23 -27 23 -71q0 -7 -1 -14q-4 -54 -10 -120q-2 -8 -2 -12q-12 -98 -20.5 -353t-30.5 -370 q-53 -272 -207 -383q-68 -49 -164 -69q-39 -8 -79 -8q-60 0 -124 17q-78 25 -155.5 94.5t-108.5 145.5q-23 55 -39 119q-8 39 -18 113z" />
<glyph unicode="V" horiz-adv-x="1230" d="M47 1257q2 61 40 88q31 21 64 20q8 0 16 -1q42 -6 71 -29q16 -29 39.5 -112.5t48 -189t28.5 -120.5q33 -117 78 -301t64 -256q35 86 123 274.5t122 274.5q10 25 59.5 161t93.5 229.5t89 146.5q45 29 83 29q23 0 44 -11q55 -29 61 -86q0 -55 -35.5 -146t-96 -217 t-81.5 -180q-125 -305 -360 -780q-29 -49 -94 -78q-30 -13 -58 -13q-34 0 -65 20q-12 8 -20.5 29.5t-18.5 65.5t-14 60q-31 111 -72 251t-67.5 241.5t-63.5 255.5q-79 288 -79 359q0 9 1 15z" />
<glyph unicode="W" horiz-adv-x="1667" d="M68 1364q18 47 114 58q21 2 39 3q64 0 88 -32q12 -16 19.5 -52t12.5 -88.5t7 -68.5q59 -307 84 -725q12 41 36 93t54.5 113.5t34.5 71.5q23 53 137 340q47 131 80 156q37 27 91 32q7 1 15 0q45 0 76 -28q14 -16 22.5 -47t10.5 -53.5t4 -71.5t4 -66q4 -29 19.5 -150.5 t31 -213.5t29.5 -139q14 33 50 133t53 127q27 70 66.5 192.5t60.5 181.5l21 65q17 52 30.5 86t27.5 58q33 49 113 72q23 6 42 6q49 0 75 -41q4 -10 4 -30.5t-4 -52.5q-8 -62 -23 -103q-20 -59 -62 -173t-74 -205t-60 -194q-127 -453 -240 -544q-50 -43 -98 -44q-11 0 -23 3 q-31 4 -55.5 30.5t-42.5 74.5t-26.5 78t-22.5 85q-10 29 -39 142.5t-66 166.5q-55 -66 -124.5 -223.5t-122.5 -228.5q-8 -14 -22.5 -48t-29 -53.5t-34.5 -29.5q-38 -15 -74 -16q-16 0 -32 3q-50 10 -77 54q-20 61 -35.5 127.5t-29 150.5t-20.5 129t-19 149.5t-14 127.5 q-10 57 -28 191t-30 200q-27 147 -27 199q1 15 3 22z" />

<glyph unicode="X" horiz-adv-x="1034" d="M41 1327q2 43 55.5 86t93.5 47q4 0 9 1q22 0 41 -10q23 -11 40 -36.5t28 -47t27.5 -59.5t24.5 -57l68 -141q4 -8 13.5 -27.5t15.5 -32t14 -26.5t17.5 -21.5t19.5 -7.5q20 0 46 31t53.5 80t31.5 55q25 41 66 99q10 12 27.5 37.5t26.5 38t30.5 27.5t48.5 23q17 6 34 6 q27 0 56 -14q47 -23 55 -69q2 -9 2 -18q0 -26 -13 -51q-17 -34 -60.5 -79t-49.5 -53q-29 -35 -63 -88l-29 -43q-20 -31 -31 -49q-10 -16 -31.5 -51t-32.5 -55.5t-21.5 -49.5t-8.5 -53q0 -16 8.5 -38t16.5 -36t25.5 -43t23.5 -41q84 -145 149 -301q10 -20 33 -63t29 -61.5 t0 -49.5t-35 -61q-57 -57 -116 -57q-43 0 -89 30q-31 115 -84 231q-6 14 -22.5 50t-25.5 54.5t-26.5 44t-35.5 42.5q-10 -4 -19.5 -13.5t-13.5 -15.5t-14.5 -23.5t-14.5 -23.5q-16 -25 -67.5 -117t-81.5 -127q-31 -31 -81 -46q-24 -7 -46 -7q-26 0 -50 9q-46 17 -55 71 q-1 8 -1 17q0 23 8 46q11 33 25.5 53.5t39.5 51.5t31 39q70 98 106 162q6 10 29.5 46t32 50t18.5 39q12 30 12 44q0 51 -53 144q-33 59 -99.5 191.5t-99.5 189.5q-6 8 -19 29.5t-20.5 34t-14.5 31t-7 32.5z" />
<glyph unicode="Y" horiz-adv-x="1193" d="M31 1309q0 68 74 126q44 34 84 34q28 0 53 -17q10 -6 22 -28.5t20.5 -43t20.5 -49t14 -35.5q45 -88 78 -161q16 -37 44 -111t51.5 -120t58.5 -81q25 12 44 35t40.5 59.5t30.5 49.5q137 197 208 293q41 51 62 83q61 92 63 95q18 14 51 19q8 1 15 1q25 0 50 -12 q34 -16 44 -53q3 -11 3 -23q0 -17 -7 -37q-12 -33 -27.5 -54.5t-42 -51t-28.5 -33.5q-37 -47 -100.5 -125t-105.5 -134t-93 -134q-31 -47 -64 -107q-55 -84 -61 -114q-10 -43 -17 -187q-2 -59 -18 -215q-12 -123 -16 -139q-12 -31 -53 -55q-34 -21 -73 -21h-14q-35 4 -53 35 t-19 80q0 12 -1 24q0 36 3 71q3 46 11 101.5t8 77.5q2 44 3 83q0 123 -25 192q-8 23 -35 65.5t-37 65.5q-18 53 -71.5 144t-69.5 126q-18 39 -68 137q-6 10 -19.5 35t-19.5 38t-12 34t-6 37z" />
<glyph unicode="Z" horiz-adv-x="1048" d="M72 31q-2 9 -2 20q0 61 47 178q20 47 86 148q12 18 35.5 61t35.5 62q37 68 88 137q137 188 185 285q6 12 19.5 36.5t22.5 40t16 40t9 46.5q-12 10 -22 16.5t-22.5 9.5t-19.5 4t-25.5 2t-26.5 1q-25 2 -79 3t-81 3h-102q-125 20 -140 93q-3 14 -3 28q0 36 19 72 q26 51 58 53q18 2 231 2q18 1 42 1t54 -1q58 -2 81 -2q227 0 303 -27q80 -29 80 -85q0 -28 -13 -61q-14 -38 -32.5 -64.5t-48 -66.5t-40.5 -56q-53 -82 -141 -243t-145.5 -243t-89.5 -145q-45 -84 -50 -123q42 -20 122 -20q24 0 52 2q20 0 71 -2q25 -1 44 -1.5t31 1.5 q106 0 125 -3q78 -4 90 -22q22 -32 22 -70q0 -32 -16 -69q-35 -80 -96 -88q-57 -8 -221 -13q-12 0 -69 -2q-28 -1 -50 -1t-37 1t-36 1q-42 0 -109 -3q-57 -2 -97 -2t-61 2q-33 4 -62.5 22.5t-31.5 41.5z" />
<glyph unicode="[" horiz-adv-x="905" d="M75 130q-3 48 1 118.5t4 91.5q0 203 4 281q6 104 7 296.5t3 266.5q0 8 1 45t1 51t2 45t6.5 48.5t10.5 38t16 34.5q12 16 57 26.5t114 13.5t129.5 4t130 0t89.5 -1q49 4 90 1t62 -26q39 -49 27.5 -117.5t-52.5 -91.5q-51 -20 -219 -19t-229 -17q-10 -82 -11 -373 q-10 -569 0 -619q35 -41 177 -41q10 0 67.5 3.5t91 2t73.5 -11.5t52 -33q25 -47 13.5 -96t-43.5 -63q-86 -39 -377 -17q-27 2 -87.5 4t-87 5.5t-60.5 20.5t-48 52q-12 29 -15 77z" />
<glyph unicode="\" horiz-adv-x="876" d="M10 1378q2 51 40 88t81 43q20 8 41 2t33 -7t25.5 -15t20.5 -22.5t17.5 -30t15.5 -34.5t14 -38t15 -39q96 -223 478 -1022q8 -20 30.5 -59t32.5 -66.5t10 -46.5q-2 -76 -80.5 -118t-136.5 -13q-25 12 -86 166q-68 164 -142.5 330t-182 390t-152.5 320q-6 14 -26.5 53 t-34 71t-13.5 48z" />
<glyph unicode="]" horiz-adv-x="790" d="M74 1317q-20 70 3 116t93 50q43 2 165 0t169 -2q178 4 207 -66q25 -61 0 -244q-8 -51 -13 -245q-2 -68 -6 -183.5t-5 -165t1 -151.5q12 -281 -12 -371q-2 -10 -10.5 -18t-24.5 -15.5t-26.5 -10.5l-35 -10t-32.5 -9q-49 -16 -289 -23q-76 -4 -110.5 16.5t-47.5 69.5 q-23 82 26.5 112t153 37t138.5 21q29 76 28 254q-4 315 15 504q23 221 8 248q-10 20 -69.5 21t-125 -6t-126 8.5t-74.5 62.5z" />
<glyph unicode="^" horiz-adv-x="983" d="M53.5 735q-28.5 53 38.5 160q111 193 152 252q2 2 41 68.5t61.5 97t66.5 66.5t87 36t77.5 -16.5t63.5 -53t46.5 -64.5t43 -84t35.5 -75q29 -55 113 -209q66 -125 61 -176q-4 -47 -57.5 -68.5t-116.5 -4.5q-39 16 -68.5 64t-68.5 150.5t-49 122.5q-2 4 -7.5 16.5 t-8.5 19.5t-9 18.5t-11 18.5t-11.5 14.5t-12.5 11.5t-14 4q-27 0 -57.5 -39t-63.5 -100.5t-35 -63.5q-6 -10 -22.5 -35.5t-25.5 -41t-25.5 -38t-27.5 -37t-24.5 -29.5t-24 -22.5t-20.5 -9.5q-98 -6 -126.5 47z" />
<glyph unicode="_" horiz-adv-x="1579" d="M86 -108.5q14 51.5 55 61.5q139 35 420 14q63 -2 168 -1t255.5 3t174.5 2q10 0 56.5 1t78 1t72.5 -4t68 -12q43 -14 61 -70.5t4 -111.5q-4 -12 -15 -22.5t-31.5 -17.5t-42 -12.5t-53.5 -8.5t-56.5 -5t-62.5 -2h-60h-60h-51q-412 0 -672 4q-180 0 -213 8 q-59 14 -84.5 67.5t-11.5 105z" />
<glyph unicode="`" horiz-adv-x="686" d="M23 1452q4 88 102 102q27 2 47.5 -6t50 -29.5t45.5 -29.5q25 -14 78 -46t98 -58.5t82 -45.5q8 -4 23.5 -12t22 -12t18.5 -11.5t18 -12.5t13.5 -12t12.5 -14.5t7 -15.5q16 -55 -11.5 -107t-58.5 -61q-8 -8 -30.5 -2t-30.5 6t-29.5 12.5t-26.5 16.5t-24.5 18.5t-23.5 16.5 q-59 41 -151.5 93t-135.5 79q-35 23 -49.5 34t-31.5 37.5t-15 59.5z" />
<glyph unicode="a" d="M61 319q-5 25 -5 50q0 94 81 176q57 57 158 90q39 12 112.5 19.5t128 14.5t68.5 25q17 28 18 59q0 27 -14 56q-29 61 -69 68q-80 -12 -180 -63q-95 -48 -133 -48h-3q-45 16 -55 76q-1 8 -1 15q0 45 32 73q37 33 102 61q113 57 192 79q40 11 83 11q41 0 83 -10 q55 -20 101.5 -85.5t58.5 -145.5q6 -31 7 -68q1 -18 1 -34.5t-1 -29.5q-1 -28 -5 -71t-7 -62.5t-10 -64.5t-9 -53q-45 -240 -76 -342q-12 -37 -48 -77t-69 -44q-9 -1 -21 -2q-22 0 -55 5q-51 7 -77 19q-76 29 -116 47.5t-92.5 53.5t-95.5 80q-78 67 -84 122zM268 412 q2 -139 252 -176q70 18 70 231q-15 12 -84 12q-26 0 -60 -2q-135 -6 -178 -65z" />
<glyph unicode="b" horiz-adv-x="935" d="M62 275q3 40 12.5 114t11.5 107q6 82 64 604q2 16 7 92t12 130t19 87q29 49 96 55q6 1 12 1q57 0 85 -52q8 -18 12 -40.5t2 -56.5t-4 -51.5t-8 -59.5t-6 -48q-5 -67 -5 -115t5 -77q25 -23 64.5 -30t95 -9t81.5 -6q121 -23 207 -96.5t93 -190.5v-15q0 -184 -201 -374 q-111 -100 -238 -162q-53 -27 -145 -57q-77 -26 -118 -26q-8 0 -15 1q-119 12 -138 174q-2 35 -2 63q0 21 1 38zM272 217q45 0 143.5 56.5t139.5 103.5l23 24q25 23 30.5 30t25 29.5t27 35t19.5 32t15 36t3 32.5q-6 82 -115 121q-74 26 -151 26q-36 0 -74 -6 q-59 -59 -67 -268z" />
<glyph unicode="c" horiz-adv-x="890" d="M66 346q-15 50 -16 106q0 94 44 203q57 119 160.5 191t234.5 86q27 3 58 3q54 0 120 -9q103 -14 115 -62q4 -17 4 -33q0 -38 -20 -70q-29 -46 -72 -52q-20 -5 -48 -5q-21 0 -48 3q-46 5 -70 4h-14q-111 -14 -188 -104q-58 -66 -58 -129q0 -21 6 -42q31 -90 106 -141 q57 -39 135 -39q25 0 52 4t66 14.5t62.5 15.5t49 4t44 -17.5t32.5 -49.5q7 -17 7 -32q0 -54 -82 -97q-98 -51 -232 -51h-20q-317 6 -428 299z" />
<glyph unicode="d" horiz-adv-x="970" d="M53 514q10 78 41 135q76 147 207 221q135 72 350 72q49 37 58.5 229.5t27.5 231.5q10 18 49 28q21 5 38 4q15 0 28 -3q23 -4 37 -18.5t20 -40t10 -52.5q2 -13 1.5 -29.5t-1.5 -35.5q-3 -38 -5.5 -63.5t-7.5 -65.5l-7 -56q-4 -66 -19.5 -234.5t-21.5 -250.5 q-3 -76 -3 -145q0 -34 1 -66q1 -48 1 -99.5t-1 -105.5q-2 -109 -12 -178q-17 -114 -118 -114q-22 0 -48 5q-27 12 -44.5 73.5t-25.5 74.5q-39 8 -105.5 16t-118.5 19.5t-95 33.5q-74 41 -140.5 111t-87.5 141q-12 54 -11 106q-1 28 3 56zM295 571q-24 -52 -24 -99 q0 -62 40 -118q45 -59 141 -99q68 -28 122 -28q22 0 42 4q8 20 13.5 63.5t7.5 101t4 75.5q8 80 8 134q0 61 -10 89q-10 14 -28 19q-12 3 -22 2h-11q-16 -2 -51 -7.5t-62 -7.5q-115 -10 -170 -129z" />
<glyph unicode="e" horiz-adv-x="917" d="M92 362q-19 87 -19 162q0 140 68 234q37 70 99.5 124t124.5 72q78 29 148 29q64 0 122 -24q121 -50 186 -201q12 -20 27.5 -69.5t15.5 -74.5q1 -6 1 -11q0 -37 -23 -75q-27 -43 -68 -57q-31 -10 -105.5 -42t-127.5 -46q-143 -41 -197 -59q12 -47 48 -67.5t112 -37.5 q23 -5 45 -5t44 5q44 10 69.5 24.5t58.5 20.5t55 -10q31 -35 31 -72q0 -43 -31 -67q-80 -57 -205 -73q-34 -4 -64 -4q-82 0 -140 30q-123 51 -178.5 109t-96.5 185zM295 614q-5 -29 -5 -50q0 -28 9 -42h8q17 0 49 6q41 8 96.5 23.5t79.5 19.5q37 8 73 32t44 48 q-27 76 -74 108q-33 22 -72 22q-16 0 -34 -4q-59 -13 -125 -66q-37 -29 -49 -97z" />
<glyph unicode="f" horiz-adv-x="966" d="M27 625q6 35 41.5 57.5t78.5 24.5q12 2 19.5 0t12.5 -1t7 0t4 1l4 3q1 1 4 6t7 11q8 10 10 41t0 60.5t2 54.5q27 254 88 397q51 121 115.5 190.5t167.5 92.5q33 7 63 7q144 0 226 -161q29 -57 37 -120q4 -24 4 -43q0 -29 -9 -46q-12 -41 -53 -57q-23 -9 -46 -10 q-17 0 -34 6q-10 0 -20.5 6t-18.5 20.5t-13 23.5t-13.5 28.5t-10.5 25.5t-13 34t-18 41t-22.5 27.5t-36.5 14.5q-41 0 -72.5 -50t-44 -99.5t-26.5 -118.5q-2 -16 -4 -23q-14 -68 -20 -185q-1 -24 -1 -45q0 -85 17 -134q25 -10 65 -10h22q9 0 18 1q48 0 98 -14q33 -10 49 -40 t15 -60.5t-17.5 -56t-42.5 -31.5q-23 -4 -103 -7.5t-114 -21.5q-11 -23 -11 -143v-42v-35q0 -131 -14 -186q-14 -39 -58 -53q-23 -7 -46 -7q-21 0 -41 6q-43 13 -52 46q-11 43 -11 149q0 30 1 66t1 66q0 107 -11 155q-31 8 -57.5 9.5t-38 1.5t-28.5 10t-42 35q-19 20 -19 50 q0 15 5 32z" />
<glyph unicode="g" horiz-adv-x="894" d="M45 -307q19 77 82 77q13 0 27 -3q6 -2 70 -30q56 -24 104 -24h14q29 2 70 31t63 55q86 131 87 263q0 9 -1 18q-28 5 -82 5h-19h-41q-35 0 -50 1q-106 8 -200.5 84t-111.5 227q-4 34 -3 66q0 113 44 211q57 147 208 236q130 77 263 77q21 0 43 -2q158 -16 197 -55 q20 -18 26 -80q3 -34 2 -64q0 -24 -1 -45q-4 -59 -12.5 -214.5t-14.5 -241.5q-4 -37 -9 -105.5t-11.5 -120t-16.5 -96.5q-29 -117 -88 -227q-86 -152 -238 -211q-62 -24 -125 -24q-83 0 -171 40q-53 25 -84 67q-23 31 -24 63q0 11 3 22zM265 466q-1 -10 -1 -20q0 -53 33 -95 q39 -50 123 -66q38 -8 67 -8q60 0 82 34q33 51 39 252q0 172 -8 205q-56 13 -91 13q-21 0 -34 -5q-49 -16 -97 -66.5t-77 -114.5t-36 -129z" />
<glyph unicode="h" horiz-adv-x="876" d="M74 205q10 84 33.5 234.5t37.5 267.5q8 78 22.5 192.5t20.5 173.5q2 18 5.5 58t5.5 65t6 59.5t11 57t16.5 46t24.5 37t34 17.5q14 3 28 3q21 0 42 -7q36 -12 53 -37q14 -23 16 -54.5t-2 -56t-11 -57.5t-9 -49t-5.5 -39.5t-6.5 -44t-6 -44t-5 -42t-3 -33t1 -22.5t6 -8 q45 2 127 49q63 36 116 36q16 0 32 -3q63 -12 98 -99.5t41 -206.5q2 -4 2 -62q0 -44 -1 -119q-3 -175 -3 -200q1 -33 0 -62q0 -162 -19 -212q-8 -27 -24 -43q-30 -28 -73 -28h-14q-52 5 -71 36q-10 16 -10 71.5t5 173.5t5 193v64q0 55 -2 101t-8 92.5t-19 56.5 q-80 0 -145 -66q-53 -47 -84 -133q-18 -84 -31.5 -219t-19.5 -184q-12 -121 -33 -152q-25 -44 -90 -44q-8 0 -16 1q-84 11 -84 155q0 39 6 87z" />

<glyph unicode="i" horiz-adv-x="407" d="M38 98q-1 6 -1 15t1 20q1 23 2 35t5 41t6 39q4 35 51 424q29 215 144 225q5 1 9 1q24 0 55 -16q38 -19 44 -57q2 -12 0 -29.5t-12 -53t-12 -48.5q-43 -219 -49 -364q-2 -18 -2 -77.5t-4.5 -97.5t-12.5 -57q-23 -45 -94 -64q-25 -7 -46 -7q-40 0 -65 24q-8 8 -13 21.5 t-6 25.5zM166 1112q0 5 -1 11q0 39 26 73q30 39 73 49q16 3 30 3q36 0 62 -18q37 -26 39 -81q0 -59 -54 -92q-37 -22 -75 -23q-18 0 -37 5q-57 16 -63 73z" />
<glyph unicode="j" horiz-adv-x="460" d="M-264 -446q39 23 97 35t69 16q27 12 50 36.5t38.5 49t31 67.5t23.5 71t18.5 84t14.5 81.5t13 87t11 80.5q39 291 41 424q4 119 17 202q2 6 4 28t4 32t7 28.5t10 28.5t14.5 23.5t23 20.5t29.5 12q18 4 35 4q22 0 42 -8q36 -13 48 -44q10 -27 11 -58v-8q0 -29 -6 -68 q-7 -44 -7 -54q-10 -104 -21 -276q-4 -72 -23.5 -215.5t-21.5 -167.5q-16 -129 -28 -185q-4 -20 -16.5 -91t-24.5 -101q-18 -43 -64.5 -109.5t-79.5 -93.5q-51 -41 -90 -61q-51 -27 -110 -39q-25 -6 -50 -6q-45 0 -88 20q-64 30 -63 88q0 42 41 66zM178 1309q-2 11 -2 21 q0 34 20 67q26 43 66 53q24 8 47 8q20 0 38 -6q40 -12 48 -49q3 -13 3 -25q0 -49 -46 -89q-45 -39 -91 -39q-13 0 -28 3q-47 11 -55 56z" />
<glyph unicode="k" horiz-adv-x="847" d="M72 182v125q2 16 2 27q27 575 76 1016q8 76 16 111.5t31.5 68.5t66.5 45q20 6 37 6q39 0 66 -29v-32q0 -74 -8 -162q-9 -109 -23 -242t-21 -203q-6 -77 -6 -131q0 -33 2 -57q27 10 119 68q86 57 129 88q6 4 30.5 24.5t36 26.5t33 13t43 -1t43.5 -31q18 -16 24.5 -34.5 t-3.5 -39t-20.5 -36t-37 -38t-39 -31.5t-40.5 -32q-10 -8 -17 -12q-8 -4 -26.5 -17.5t-30.5 -21.5t-26.5 -20.5t-22.5 -24.5t-10 -24q-2 -18 5 -31.5t26.5 -32t25.5 -26.5q80 -90 186 -197q4 -4 17.5 -16.5t19.5 -17.5t16.5 -17.5t15.5 -21.5t10 -22.5t7 -27.5q0 -6 1 -12 q0 -53 -32 -86q-25 -26 -66 -26q-18 0 -40 5q-31 12 -79 59.5t-104 109t-83 85.5l-12 12q-12 14 -26.5 30t-32 33t-34 31.5t-24.5 18.5q0 -203 -17 -272q-12 -59 -81 -78q-21 -5 -38 -5q-35 0 -56 20q-29 30 -29 85z" />
<glyph unicode="l" horiz-adv-x="425" d="M48 108q3 50 9 96t15.5 100t11.5 75q63 559 74 680q2 25 6 103.5t9 115.5t18.5 93t40 86t65.5 42q23 4 40 5h3q16 0 26 -11q11 -12 18 -23.5t9 -35t2 -42t-3 -47t-5 -49t-5 -47t-5 -43.5q-12 -180 -43 -482t-39 -396q-20 -207 -43 -265q-20 -51 -75 -82q-30 -17 -56 -18 q-22 0 -41 12q-20 10 -28 47q-5 25 -5 57q0 14 1 29z" />
<glyph unicode="m" horiz-adv-x="1372" d="M69 150q-1 12 -1 25q0 42 8 89q2 23 7 113t11 141q10 102 19 232q4 166 22 211q20 51 68 73q14 9 36 9q5 0 10 -1q30 -2 46 -16q37 -29 39 -117v-27q0 -75 -9 -155q-8 -69 -9 -97q0 -10 1 -16q16 10 89 107q2 4 23.5 33.5t28.5 40t28.5 37t35 39t32.5 27.5t38 24 q32 18 59 17q7 0 14 -1q32 -6 55 -17.5t39.5 -46t27 -66.5t16.5 -80t8 -87t2 -86q88 80 115 121q14 23 48 65.5t44 57.5q4 6 17.5 24.5t21.5 29.5t22.5 29.5t26.5 29t29.5 22.5t33 16t35 4t39.5 -8q18 -8 30.5 -27.5t16.5 -52t6 -62.5q1 -12 1 -26q0 -21 -2 -48 q-3 -44 -6 -70.5t-8 -69.5t-7 -53q0 -4 -19 -213q-18 -190 -28 -215q-29 -70 -108 -75h-8q-71 0 -91 83q-3 17 -3 46q0 65 15 193q2 8 8.5 51.5t8.5 61.5t2 52t-4 63q-47 -25 -82 -95q-12 -20 -43 -74.5t-50.5 -88t-49 -75.5t-58.5 -69q-33 -31 -77 -45q-20 -6 -39 -6 q-23 0 -44 9q-47 21 -47 74q0 24 12 114q4 29 14.5 85t15.5 90q4 24 4 53q0 12 -1 25q-2 44 -14 74q-20 -4 -39 -19t-28 -28.5t-26.5 -44.5t-21.5 -39q-10 -16 -32.5 -53t-35 -57.5t-31 -52t-32.5 -62.5t-27 -66q-51 -125 -92 -147q-25 -14 -66.5 -15t-58.5 9q-28 17 -31 70 z" />
<glyph unicode="n" horiz-adv-x="944" d="M82 242q2 14 2 22q4 47 14.5 131t17.5 150.5t9 132.5q0 10 1 38.5t2 42t2 39t4 40t7 35t11.5 31.5t15.5 24.5t21.5 20.5t27.5 9q13 2 25 3q29 0 48 -15q26 -20 33 -63t7 -89v-104q0 -57 6 -90q63 61 86 94q74 113 172 187q83 61 147 61q36 0 66 -20q18 -10 38.5 -58.5 t24.5 -97.5q1 -16 2 -37q0 -81 -19 -234q-24 -194 -24 -253q0 -12 2.5 -38t2.5 -43.5t-5 -27.5q-20 -55 -98 -68q-16 -3 -29 -3q-56 0 -86 42q-2 30 -1 63q0 107 20 247q14 112 14 184q0 36 -4 64q-18 -2 -34.5 -11.5t-33 -28t-26.5 -30.5t-27.5 -39t-23.5 -35 q-47 -61 -67.5 -93t-42 -72t-40.5 -70q-6 -10 -40 -83t-63.5 -118t-53.5 -49q-22 -5 -41 -5q-35 0 -54 18q-26 25 -26 70q0 28 10 126z" />
<glyph unicode="o" horiz-adv-x="956" d="M50 523q5 148 77 253q4 6 14.5 22.5t13.5 20.5t11 16.5t11 16.5t11.5 14.5t14.5 16.5t16 15t20.5 17.5t22.5 18.5q78 59 148 70q55 10 105 9q147 0 250 -85q138 -115 144 -318q4 -26 4 -51q0 -90 -46 -177q-58 -112 -165 -189q-114 -75 -243 -75q-26 0 -53 3 q-76 8 -156 48t-127 89q-73 110 -73 247v18zM272 473q12 -80 82 -126q45 -30 102 -30q30 0 64 9q51 14 104.5 68.5t65.5 119.5q7 34 7 66q0 88 -54 158q-61 78 -145 79q-18 0 -37 -4q-82 -14 -144 -128q-49 -90 -48 -170q0 -21 3 -42z" />
<glyph unicode="p" horiz-adv-x="1011" d="M53 -223.5q0 20.5 3 55.5t3 53q2 94 17 418q23 330 76 580q41 92 245 102q180 -8 288 -41t200 -133q68 -82 80 -205q2 -21 2 -42q0 -100 -49 -189q-37 -68 -116 -139.5t-159 -110.5q-47 -33 -98 -45t-126 -18.5t-114 -14.5q-8 -25 -11 -57.5t-6 -76.5t-5 -69 q-8 -88 -54 -141q-33 -38 -83 -38q-20 0 -42 5q-20 6 -32.5 20.5t-15.5 40t-3 46zM297 248h18q123 0 234 53q119 57 164 158q26 58 26 109q0 73 -55 129q-82 84 -211 85q-17 0 -35 -2t-30.5 -4t-22.5 -3t-16.5 -8t-10.5 -10t-8 -16.5t-5 -18.5t-4 -26.5t-5 -31.5 q-41 -239 -41 -366q0 -26 2 -48z" />
<glyph unicode="q" d="M32 428q-3 30 -4 59q0 134 74 240q49 68 114 105.5t179 78.5q147 55 281 62q11 1 22 0q117 0 133 -62q1 -15 1.5 -26.5t-1.5 -19.5q-2 -15 -12 -60t-12 -62q-12 -80 -29.5 -258t-32.5 -268q-33 -319 -34 -336q-10 -47 -23.5 -157.5t-19.5 -143.5q-14 -59 -67 -80 q-22 -9 -44 -8q-31 0 -61 16q-42 21 -42 103q0 68 13 139q2 27 9 68t9 63.5t1 49t-9 44.5q-10 23 -33.5 40.5t-80 43t-64.5 29.5q-70 33 -152 107q-96 63 -115 233zM258 496v-13q0 -72 43 -127q59 -72 215 -106q31 115 43 246q4 35 12.5 87t12.5 90q3 25 2 48v22 q-78 -2 -159 -30.5t-112 -67.5q-53 -69 -57 -149z" />
<glyph unicode="r" horiz-adv-x="841" d="M76 78q-2 7 -2 22q0 30 8 93q6 70 17.5 294t21.5 316q2 14 5 47t5 44t6 34.5t7 32t9.5 23.5t14.5 20.5t19.5 13.5t25.5 11t33 3q5 0 10 1q44 0 72 -32q8 -25 11 -52t2 -43.5t-4 -53.5t-3 -47q23 -8 52.5 4t66 35.5t53.5 29.5q120 45 188 45q13 0 25 -1q35 -4 64.5 -22.5 t35.5 -47.5q2 -10 2 -20q0 -42 -29 -72q-36 -37 -77 -47q-117 -29 -166 -45q-63 -18 -143 -72.5t-80 -81.5q-2 -25 -4.5 -123t-8.5 -175t-16 -116q-14 -49 -43 -61q-22 -9 -64 -9q-14 0 -30 1q-25 2 -50.5 17.5t-33.5 33.5z" />
<glyph unicode="s" horiz-adv-x="804" d="M86 176q8 33 49 49q19 9 41 9q26 0 57 -12q50 -19 97 -19q7 0 13 1q52 3 106 77q4 25 -7.5 49t-37 47.5t-46 39t-53.5 37t-41 27.5q-156 115 -162 205q-1 14 -1 29q0 33 7 70q9 54 29 81q94 117 287 138q3 1 9 0q18 0 63 -5q59 -6 86 -16q160 -63 170 -156q1 -6 0 -11 q0 -28 -17 -52q-20 -29 -43 -43q-10 -14 -38.5 -7t-49 16t-49.5 26.5t-39 21.5q-56 15 -95 15q-83 0 -87 -68q-2 -20 15.5 -41.5t35.5 -36t43 -30t27 -17.5t28.5 -22.5t32.5 -25.5t29.5 -25.5t32 -31t27 -31t25.5 -36.5t17 -38.5t13.5 -45t3.5 -47.5q-6 -156 -150 -252 q-43 -29 -116 -40q-35 -5 -65 -5q-34 0 -63 6q-131 29 -165 61q-24 22 -23 67q0 19 4 42z" />
<glyph unicode="t" horiz-adv-x="919" d="M25 819q4 29 27.5 56.5t53.5 39.5q10 2 104.5 10.5t113.5 20.5q12 8 22 36t14.5 51.5t10.5 62.5t6 45q2 16 8 69.5t11 74t21.5 54t46.5 48t77 16.5h14q57 0 67 -31q4 -12 4 -27q0 -27 -14 -61q-4 -33 -18 -96q-16 -69 -16 -100t6 -107q22 -17 60 -17q17 0 37 4q47 8 98 8 q18 0 37 -1q71 -4 79 -45q3 -14 3 -29q0 -26 -10 -52q-15 -40 -48 -56q-31 -16 -140.5 -25.5t-128.5 -26.5q-14 -12 -25 -58t-16.5 -89t-11.5 -102.5t-6 -63.5q-10 -104 -31 -240q-2 -10 -8 -56t-14 -81t-20.5 -77t-35 -67.5t-51.5 -29.5q-9 -1 -17 -1q-27 0 -57 9 q-40 12 -51 33q-3 6 -2 19q0 17 4 48q8 52 20.5 109.5t14.5 65.5q31 180 33 229q4 29 22 291q-10 22 -66 22q-22 0 -52 -4q-52 -6 -84.5 -6t-44.5 6q-31 16 -43 55q-7 23 -8 42q1 13 4 24z" />
<glyph unicode="u" horiz-adv-x="876" d="M74 600q4 74 11 118t26.5 93t60.5 71q37 20 94 19h10q37 -23 40 -78q1 -11 1 -21q0 -43 -10 -79q-2 -18 -6 -59q-8 -61 -11 -95t-5 -94q0 -11 -1 -21q0 -45 8 -72q9 -34 25.5 -67.5t52.5 -45.5q17 -5 37 -5q23 0 50 6q55 8 97 110.5t50 203.5q3 23 3 91q0 34 -1 79v41 q0 96 8 112q12 43 70 62q27 9 47 8q23 0 37 -10q62 -36 62 -263q0 -21 -1 -42q-4 -137 -38 -259q-53 -190 -163 -276q-78 -61 -208 -61q-52 0 -113 10q-205 49 -229 252q-6 55 -7 147q1 56 3 125z" />
<glyph unicode="v" horiz-adv-x="931" d="M61 764q-11 30 -10 55q0 34 19 62q27 37 86 48q14 3 26 2q41 0 70 -28q18 -20 59 -192q53 -217 74 -365q33 55 97.5 186.5t99.5 186.5q14 27 38.5 86t47 95t53.5 58q31 24 66 25q15 0 31 -5q52 -15 69 -73q10 -53 10 -58q0 -15 -9 -36q-11 -27 -19.5 -40t-25 -38.5 t-24.5 -40.5q-29 -49 -109.5 -199.5t-158.5 -287.5q-76 -129 -125 -165q-35 -26 -70 -26l-28 4q-29 6 -47.5 32t-25.5 51.5t-19 78.5q-2 12 -5 19q-20 78 -92 293t-78 272z" />
<glyph unicode="w" horiz-adv-x="1392" d="M74 769q4 108 28 138q28 34 85 34h10q63 -3 86 -40q12 -18 12 -81.5t-4 -142.5q-3 -53 -3 -81q0 -14 1 -23q20 -262 53 -305q49 12 94 95t82 173.5t62 108.5q39 19 69 19q38 0 62 -29q25 -31 52.5 -126t52 -171t46.5 -80h3q35 0 106 108q74 112 98 209q12 51 33.5 193.5 t38.5 179.5q29 43 92 48q6 0 11 1q56 0 91 -49l2 -54q0 -224 -91 -443q-101 -246 -249 -347q-101 -66 -174 -65q-52 0 -92 33q-18 16 -64 105t-53 91q-4 2 -15 -12t-27.5 -37.5t-34 -48.5t-36 -47.5t-30.5 -30.5q-57 -49 -154.5 -49t-142.5 72q-14 20 -24.5 45.5t-19.5 69.5 t-13 61.5t-14.5 79t-10.5 65.5q-8 59 -15 143q-5 53 -5 115q1 36 2 75z" />
<glyph unicode="x" horiz-adv-x="915" d="M36 116q-1 7 -1 12.5t1 10.5q1 10 7 24.5t10 23t13.5 21.5t13.5 18t14 18.5t12 15.5q20 25 46 50.5t55 58.5q104 115 115 131l-105 129q-106 129 -121 188q-3 16 -3 31q0 37 23 63q32 37 70 38h5q36 0 55 -15q33 -16 106 -135q8 -10 56.5 -73.5t64.5 -80.5q14 6 82 93 t144 157q59 54 104 54q13 0 24 -5q66 -27 66 -74q0 -48 -59 -127q-66 -86 -144 -164.5t-86 -93.5q31 -74 146 -217q6 -8 23.5 -30.5t26.5 -35t22.5 -31.5t20.5 -35.5t9 -33.5q2 -10 2 -19q0 -44 -39 -71q-26 -18 -55 -18q-24 0 -49 12q-53 27 -142.5 150t-128.5 153 q-47 -20 -132 -135t-146 -131q-23 -7 -43 -7q-54 0 -78 54q-4 13 -5 26z" />
<glyph unicode="y" horiz-adv-x="921" d="M57 829q10 74 65 110q28 19 59 19q28 0 57 -16q6 -4 12 -10t11 -17l9 -18q4 -8 8.5 -23.5t7.5 -24.5t7 -26.5t6 -25.5q113 -344 213 -478q12 20 92 293t123 324q12 16 32.5 26.5t44.5 12.5h6q20 0 40 -12q23 -14 37 -48q7 -14 6 -41q0 -98 -87 -366q-112 -342 -226 -549 q-8 -16 -60.5 -119.5t-95.5 -152.5q-2 -2 -14.5 -17.5t-22.5 -28t-29.5 -31t-37 -30.5t-40 -24.5t-43.5 -15.5q-8 -1 -17 -1q-14 0 -29 3q-24 5 -46 22q-31 23 -36 48.5t11.5 51t36 46t46 42t33.5 29.5q109 121 145 285q2 29 -12.5 58.5t-39 65t-34.5 56.5q-18 41 -84 158.5 t-94 201.5q-4 10 -20.5 50t-23.5 60.5t-14 53.5q-4 20 -3 37q-1 11 1 22z" />

<glyph unicode="z" horiz-adv-x="839" d="M57 209q-1 6 0 12q0 19 4 40q6 28 15.5 48.5t28 47t29.5 39t32.5 36t23.5 27.5q51 61 144.5 154.5t140.5 129.5q-26 9 -111 10h-18h-20q-88 0 -158 8q-78 9 -86 46q-1 13 -2 24q0 52 31 72q55 37 294 38q62 0 138 -3q168 0 202 -61q5 -22 5 -43q0 -25 -7 -48 q-12 -41 -26.5 -59t-51 -50t-49.5 -44q-20 -23 -88.5 -86.5t-122 -119.5t-75.5 -97q18 -12 198 -23q27 0 70 1t62.5 1t44 -6t36 -22.5t17.5 -44.5q1 -10 1 -19q0 -43 -33 -66q-40 -28 -101 -30h-15q-65 0 -319 12q-10 0 -40 2t-45.5 3t-41 4t-39.5 8.5t-30.5 12.5t-26 19.5 t-11.5 26.5z" />
<glyph unicode="{" horiz-adv-x="817" d="M43 676q-2 49 24.5 73.5t90.5 47.5q29 10 71.5 20t77.5 27q-18 51 -64 80.5t-88 60.5t-55 88q-31 133 53.5 262t202.5 203q41 27 140.5 58.5t158.5 29.5q41 -2 76 -23.5t43 -50.5q10 -37 -17.5 -84t-60.5 -61q-31 -14 -78 -11t-81 -1q-70 -14 -140.5 -81t-66.5 -126 q4 -45 42 -90t81 -77t76.5 -80t31.5 -103q0 -29 -39 -76t-76 -80l-38 -33q14 -8 36.5 -22.5t61.5 -50t39 -62.5q6 -86 -105 -221q-12 -14 -41.5 -45t-49 -52.5t-34 -49t-12.5 -48.5q12 -90 215 -80q23 2 55 7l50 6q16 2 32.5 -3t24.5 -22q29 -49 0 -108.5t-78 -69.5 q-127 -33 -311.5 18.5t-218.5 139.5q-20 70 -9 127t39 102q14 23 70.5 74t95.5 97t35 79q-4 25 -24.5 37t-54.5 18t-44 10q-70 31 -102.5 62t-34.5 84z" />
<glyph unicode="|" horiz-adv-x="411" d="M49 -98q0 59 8.5 185t8.5 175q0 231 20 651q2 49 5 176.5t7 198.5q2 33 3 94.5t2 96t9.5 82t21.5 74t41 47t67 24.5q68 6 114 -41q2 -186 -2 -411.5t-10 -388.5t-17.5 -442.5t-15.5 -422.5q-2 -29 -2 -75t-1 -70.5t-4 -57.5t-11 -61q-12 -41 -55 -72t-93.5 -27.5 t-78.5 52.5q-17 31 -17 213z" />
<glyph unicode="}" horiz-adv-x="731" d="M33 1403q0 51 38 89t130 28q27 -2 147 -45q94 -37 174 -95.5t90 -126.5q8 -8 2 -36.5t-6 -37t-10 -36t-13 -35.5t-16.5 -34.5t-15.5 -33.5q-6 -12 -18.5 -37.5t-20.5 -42t-13 -39t-3 -38.5q4 -66 71 -97q121 -45 127 -96q10 -78 -98 -137q-23 -12 -61.5 -23.5t-60 -22.5 t-25.5 -36q-4 -20 32.5 -65.5t75.5 -106.5t39 -117q0 -213 -260 -319q-35 -14 -79 -16.5t-83 19t-41 68.5q-2 45 21.5 71t74.5 44q6 2 33 11.5t37 13.5t30.5 14t31 18.5t18.5 22.5t8 31q0 70 -92 139q-96 68 -111 152q-14 80 33 139t117 88q-90 125 -80 205q4 43 62.5 139 t52.5 154q-8 63 -99 100q-23 10 -91 20.5t-108 33t-40 73.5z" />
<glyph unicode="~" horiz-adv-x="1366" d="M58.5 474.5q-21.5 66.5 17.5 111.5q55 66 149 127q180 115 336 118q61 2 99 -29.5t56.5 -77.5t36 -92t52.5 -76t90 -26q49 4 99 46t83 88.5t72 71t76 1.5q76 -59 53 -145t-121 -178q-182 -166 -373 -131q-35 6 -74.5 29.5t-62.5 47.5q-29 29 -70.5 114t-76.5 91 q-16 4 -41 -3t-41.5 -16t-45 -25.5t-38.5 -22.5q-23 -10 -65 -37t-73.5 -41t-58.5 -14q-57 2 -78.5 68.5z" />
<glyph unicode="&#xa1;" horiz-adv-x="512" d="M42 43q-1 33 5 60.5t15.5 63.5t11.5 52q8 59 27.5 224t31.5 253q27 176 53 211q23 31 72 52.5t99.5 11.5t62.5 -62q6 -55 1 -83.5t-23.5 -98.5t-24.5 -106q-47 -285 -47 -291q-4 -31 -7.5 -86.5t-7.5 -90t-14 -74.5t-33.5 -65.5t-60.5 -38.5q-27 -12 -78 -10t-68 27 q-14 18 -15 51zM234.5 1332q-35.5 52 7.5 118q29 43 90 54.5t111.5 -18.5t48.5 -87q0 -35 -25 -57.5t-49.5 -30.5t-69.5 -17q-78 -14 -113.5 38z" />
<glyph unicode="&#xa2;" horiz-adv-x="962" d="M65.5 421q-18.5 171 88.5 292q106 119 290 182q4 14 16.5 72.5t23 75t45 35t79.5 17.5t68 -40q16 -12 3 -82t-11 -88q2 -8 48 -16.5t96 -28t58 -54.5q25 -96 -45 -129q-59 -25 -180 -24q-6 -29 -12 -127t-12 -137q29 -18 89 -4t128.5 11t83.5 -46q12 -47 -20 -107.5 t-81 -70.5q-27 -6 -97.5 -9.5t-98.5 -11.5h-2q-23 -8 -35.5 -32.5t-20.5 -60.5t-18 -52q-35 -59 -154 -31q-35 8 -31.5 57t-9.5 78q-16 23 -75.5 46.5t-67.5 29.5q-127 84 -145.5 255zM306 472q1 -36 26.5 -63.5t68.5 -31.5q33 88 29 241q-39 4 -69.5 -18t-43 -57t-11.5 -71 z" />
<glyph unicode="&#xa3;" horiz-adv-x="1271" d="M84 674q4 49 44 67.5t85 23.5t51 17q4 10 -9 79t-29.5 152t-18.5 115q-6 193 128 289t327 94q135 -2 221 -52t174 -154q102 -117 94 -179q-6 -41 -57.5 -69.5t-98.5 -22.5q-31 6 -57.5 39t-74.5 93.5t-115 109.5q-53 39 -151.5 27.5t-123.5 -54.5q-31 -70 -7.5 -251 t48.5 -207q6 -6 90 3t165 -3.5t89 -67.5q10 -98 -94 -127q-16 -4 -69.5 -8t-98.5 -13.5t-59 -27.5q-18 -25 -24.5 -58.5t-3.5 -92t1 -81.5q37 -12 94.5 -21t81.5 -20q57 -27 100 -67.5t80 -67t105 -30.5q12 0 84.5 10t91.5 -2q16 -4 34.5 -34t16.5 -65q-4 -43 -41 -73.5 t-70 -38.5q-203 -53 -335 35q-23 14 -69 51t-86 63.5t-71 32.5q-61 14 -151 -19.5t-123 -33.5q-45 0 -88 30.5t-45 67.5q0 37 56 95.5t71 93.5q18 43 25.5 119.5t-1.5 88.5q-10 20 -61 28.5t-62 14.5q-25 12 -45 43t-18 58z" />
<glyph unicode="&#xa5;" horiz-adv-x="1271" d="M84 600q-8 98 27 137q27 31 74.5 38t121.5 -1t88 -8q-20 39 -94 210t-125 245q-4 10 -17.5 31.5t-20.5 34.5t-13 34.5t-6 44.5q4 59 54 103t110 24q37 -12 90 -129q16 -35 46 -93.5t54 -107.5l49 -98q57 -109 80 -109q12 0 30.5 14.5t41 41t41 49t38 49.5t21.5 29 q27 33 77 99.5t87 109.5t82 79q29 25 69.5 34t78.5 -10t44 -75q12 -86 -159 -243q-174 -178 -287 -349q18 -25 83.5 -18.5t116 12.5t76.5 -37q18 -51 -2 -99t-59 -64q-20 -8 -99 -14.5t-131.5 -23t-45.5 -53.5q4 -31 72.5 -34.5t139 -10t80.5 -39.5q18 -45 7 -98t-54 -72 q-16 -6 -141 -3t-129 -11q-2 -2 -5 -81t-28 -113q-23 -35 -119 -27q-31 4 -46 26.5t-17 48t-5 74t-7 78.5q-29 29 -96.5 26t-114.5 -10.5t-82 33.5q-25 49 -13.5 90.5t41.5 63.5q16 12 91 15t136.5 15.5t63.5 51.5q2 37 -61.5 44t-132.5 -3q-57 -12 -115.5 -4t-85.5 53z" />
<glyph unicode="&#xa8;" horiz-adv-x="745" d="M113 1274q6 47 38.5 78.5t75.5 40.5q88 16 101 -66q12 -76 -41 -139q-39 -45 -88 -39q-45 4 -68.5 38t-17.5 87zM445.5 1211.5q-11.5 78.5 39.5 136.5q51 55 115 16q39 -25 51.5 -78t-18.5 -100t-101 -49q-75 -4 -86.5 74.5z" />
<glyph unicode="&#xa9;" horiz-adv-x="1644" d="M106 590q-6 119 5.5 231.5t52.5 234.5t109.5 216t189.5 165.5t278 94.5q139 20 284.5 -31t258.5 -148.5t187.5 -229.5t80.5 -267q16 -346 -171 -596t-484 -276q-195 -18 -369 46t-293 210.5t-129 349.5zM362 516q27 -82 108 -154.5t181.5 -109.5t207 -42t179.5 48 q162 106 228.5 313t-19.5 428q-76 170 -295 248t-374 -14q-154 -94 -213.5 -314.5t-2.5 -402.5zM507 731q3 96 52 172q35 55 118 96t163 48q66 6 124 -11.5t66 -60.5q10 -51 -12.5 -89t-54.5 -46q-31 -6 -86.5 -11.5t-84 -15.5t-42.5 -41q-14 -43 -4 -83t34 -56 q31 -20 146.5 -20.5t126.5 -37.5q14 -51 -19 -105t-88 -67q-45 -10 -148.5 11.5t-146.5 38.5q-68 27 -107.5 104.5t-36.5 173.5z" />
<glyph unicode="&#xaa;" d="M61 319q-5 25 -5 50q0 94 81 176q57 57 158 90q39 12 112.5 19.5t128 14.5t68.5 25q17 28 18 59q0 27 -14 56q-29 61 -69 68q-80 -12 -180 -63q-95 -48 -133 -48h-3q-45 16 -55 76q-1 8 -1 15q0 45 32 73q37 33 102 61q113 57 192 79q40 11 83 11q41 0 83 -10 q55 -20 101.5 -85.5t58.5 -145.5q6 -31 7 -68q1 -18 1 -34.5t-1 -29.5q-1 -28 -5 -71t-7 -62.5t-10 -64.5t-9 -53q-45 -240 -76 -342q-12 -37 -48 -77t-69 -44q-9 -1 -21 -2q-22 0 -55 5q-51 7 -77 19q-76 29 -116 47.5t-92.5 53.5t-95.5 80q-78 67 -84 122zM268 412 q2 -139 252 -176q70 18 70 231q-15 12 -84 12q-26 0 -60 -2q-135 -6 -178 -65z" />
<glyph unicode="&#xab;" horiz-adv-x="1116" d="M80 500q-12 86 194 229q121 84 222 135q25 16 68.5 13t56.5 -29q35 -76 -31 -123q-23 -18 -82 -56t-107.5 -73t-62.5 -59q18 -25 39.5 -42.5t54.5 -38t49 -32.5q88 -59 103 -105q18 -57 -25 -99t-115 -36q-12 0 -35.5 13.5t-48 31t-28.5 19.5q-86 57 -166 131t-86 121z M537 537q2 23 34.5 56.5t61.5 49.5q137 78 289 137q31 10 69.5 -12.5t42.5 -48.5q8 -47 -54 -91t-129 -74t-67 -38q0 -4 60.5 -33.5t124 -70.5t67.5 -74q6 -43 -26.5 -76t-87.5 -26q-31 2 -93 34q-2 0 -35.5 20.5t-53 33t-56.5 37t-58.5 44t-46 44t-34.5 47.5t-8 41z" />
<glyph unicode="&#xad;" horiz-adv-x="1067" d="M55 557q0 88 115 100q41 6 360 7q27 0 124.5 3t156.5 0t96 -14q53 -16 77 -74.5t-1 -117.5q-8 -18 -35.5 -31.5t-78 -20t-83 -8.5t-99 -3t-79.5 -1q-403 -12 -477 17q-37 12 -57.5 53t-18.5 90z" />
<glyph unicode="&#xae;" horiz-adv-x="1705" d="M102 782q84 748 785 740q193 -2 370 -133.5t277 -332t84 -399.5q-18 -197 -74.5 -328.5t-160 -206.5t-239.5 -103.5t-329 -24.5q-348 6 -550 217t-163 571zM346 575q31 -119 112 -204.5t181 -120.5t214 -48.5t210 11.5q203 37 272 248q68 205 -18 442q-90 240 -285 338 q-152 78 -336 39q-119 -25 -213 -142.5t-133 -273.5t-4 -289zM542 571.5q3 30.5 5 53t7 55.5t7 47q23 180 45 234q41 98 148 124q45 10 95 14.5t103.5 -2.5t93 -38t48.5 -82q8 -57 -3.5 -102.5t-32 -66t-37.5 -35.5t-17 -19q16 -45 96 -127t96 -129q-12 -49 -58 -67.5 t-91.5 -11.5t-67.5 27q-20 18 -52 75t-65 94.5t-67 35.5q-27 -2 -38.5 -33.5t-16.5 -83t-13 -71.5q-10 -25 -43 -29t-72 2q-23 0 -38 11.5t-21 32t-10 41t-1 51zM770 844q25 -16 86.5 5t63.5 50q0 39 -36 49t-73 -9t-37 -52q-4 -29 -4 -43z" />
<glyph unicode="&#xb0;" horiz-adv-x="837" d="M88 1014q2 43 29.5 101.5t62.5 101.5q162 197 338 186q125 -6 199 -98.5t65 -206.5q-4 -53 -54 -138.5t-93 -123.5q-70 -63 -168 -82t-201 20q-66 27 -125 92.5t-53 147.5zM330 1073q2 -53 56 -86t110.5 -23.5t66.5 62.5q14 74 -36 124t-111 36q-37 -8 -62.5 -41 t-23.5 -72z" />
<glyph unicode="&#xb2;" horiz-adv-x="958" d="M33 946q2 61 103.5 162.5t176.5 142.5q49 43 142.5 57.5t183.5 -15t117 -107.5q25 -141 -19.5 -270.5t-136.5 -284.5q-6 -10 -81 -129t-99 -193q43 -14 239.5 6.5t227.5 -20.5q31 -39 10.5 -117t-72.5 -94q-147 -23 -561 -12q-59 2 -101 22.5t-44 52.5q-2 35 12 79 t32.5 74t47.5 71t35 53q33 55 81 127t83.5 129t68.5 129q6 14 23.5 44t28 51.5t20.5 50t10 57t-12 55.5q-8 16 -17.5 26.5t-21.5 12.5t-24.5 1t-28 -9t-27.5 -15.5t-28.5 -20.5t-26.5 -21.5t-24.5 -21.5t-20.5 -18q-20 -16 -58.5 -61t-72 -71.5t-68.5 -28.5 q-49 -2 -74.5 28.5t-23.5 77.5z" />

<glyph unicode="&#xb3;" horiz-adv-x="989" d="M46 1117.5q-3 15.5 7 31.5t17.5 25.5t24 21.5t26.5 19.5t28.5 17.5t26.5 16q145 80 354 105q113 14 241 -47.5t138 -161.5q25 -84 -69.5 -197.5t-149.5 -132.5q20 -8 50 -22.5t86.5 -62.5t70.5 -99q37 -127 -8 -239.5t-123 -190.5q-53 -53 -142 -100.5t-180 -59.5 q-315 -55 -331 82q-4 43 18.5 78t61.5 49h49h52q13 0 47 1t51.5 5t46 10t49 15.5t46 23.5t48.5 33q129 109 110 215q-10 61 -73.5 88t-134 28t-129 21.5t-60.5 71.5q-2 27 3 48t10 34.5t24.5 27t28 18.5t40 19.5t43.5 20.5q238 119 226 184q-10 47 -100.5 50t-125.5 -17 q-41 -12 -130 -65.5t-115 -63.5q-55 -10 -98.5 8t-51.5 51q0 25 -3 40.5z" />
<glyph unicode="&#xb4;" horiz-adv-x="745" d="M115 1112q-12 39 6 73t61 58.5t86 43t99.5 39t78.5 30.5q143 61 185 67q88 14 105.5 -54.5t-48.5 -125.5q-47 -33 -103.5 -58.5t-150.5 -57t-125 -44.5q-6 -2 -33.5 -13t-39 -15t-35 -7.5t-35.5 2t-27.5 20.5t-23.5 42z" />
<glyph unicode="&#xb8;" horiz-adv-x="681" d="M76 -475q-4 41 22.5 73.5t63.5 47.5q33 10 94 9t92 7q57 14 83 66.5t-15 81.5q-33 14 -60.5 12t-75 -9.5t-63.5 -7.5q-61 2 -71.5 50.5t6.5 117.5q2 10 4 33t3 32t4 28.5t5 28.5t5 24.5t6 24t8.5 19.5t10.5 18t11 14q35 31 78 31.5t59 -25.5q12 -4 7 -68.5t-1 -89.5 q268 -12 281 -266q4 -90 -65.5 -183.5t-151.5 -128.5q-43 -18 -122 -28t-132 -2q-45 6 -62.5 28.5t-23.5 61.5z" />
<glyph unicode="&#xb9;" horiz-adv-x="587" d="M101 115.5q-3 21.5 2.5 62.5t8.5 55.5t9 53.5q25 137 44 382.5t28 309.5q2 23 5 68t5 75.5t9 65.5t22.5 57.5t39.5 32.5q35 20 93.5 9t78.5 -60q8 -43 4 -72t-18 -92.5t-18 -89.5q-12 -92 -28.5 -300t-27.5 -288q-4 -23 -6 -136.5t-20 -152.5q-18 -37 -67.5 -67.5 t-88.5 -24.5q-25 4 -42 18.5t-23.5 43t-9.5 50z" />
<glyph unicode="&#xba;" horiz-adv-x="956" d="M50 523q5 148 77 253q4 6 14.5 22.5t13.5 20.5t11 16.5t11 16.5t11.5 14.5t14.5 16.5t16 15t20.5 17.5t22.5 18.5q78 59 148 70q55 10 105 9q147 0 250 -85q138 -115 144 -318q4 -26 4 -51q0 -90 -46 -177q-58 -112 -165 -189q-114 -75 -243 -75q-26 0 -53 3 q-76 8 -156 48t-127 89q-73 110 -73 247v18zM272 473q12 -80 82 -126q45 -30 102 -30q30 0 64 9q51 14 104.5 68.5t65.5 119.5q7 34 7 66q0 88 -54 158q-61 78 -145 79q-18 0 -37 -4q-82 -14 -144 -128q-49 -90 -48 -170q0 -21 3 -42z" />
<glyph unicode="&#xbb;" horiz-adv-x="1241" d="M82 737q2 45 49 82t88 37q51 -8 106.5 -38t118 -74t88.5 -58q90 -57 113 -98q27 -49 2 -111q-47 -76 -175 -150.5t-249 -115.5q-31 2 -55.5 26.5t-30.5 51.5q-12 51 30 93t108.5 80t84.5 62q-16 27 -148 102.5t-130 110.5zM578 782q-12 29 18.5 90.5t85.5 53.5 q35 -4 140.5 -51.5t170.5 -92.5q6 -4 37 -22.5t50.5 -31.5t44 -31.5t39 -34t16.5 -29.5q8 -51 -41 -119q-180 -231 -371 -358q-47 -25 -91 -8.5t-54 55.5q-6 33 6 63.5t25.5 46t48 44t36.5 30.5q147 141 146 168q0 12 -145.5 96t-161.5 131z" />
<glyph unicode="&#xbf;" horiz-adv-x="958" d="M29 389q8 111 80.5 190.5t190.5 153.5t157 115q6 29 -5.5 97.5t-4 114.5t54.5 58q156 39 172 -65q35 -219 28 -281q-4 -18 -12 -32.5t-24.5 -28t-26.5 -20.5t-37 -20.5t-37 -19.5q-29 -20 -90 -55t-98 -57.5t-75 -64.5t-52 -91q-2 -57 39 -95t92 -42q82 -6 168 71.5 t125 149.5q10 18 19 57t24.5 61.5t48.5 30.5q45 8 95 -20.5t59 -63.5q16 -70 -93 -233q-82 -125 -246.5 -195.5t-324.5 -7.5q-100 39 -166.5 113t-60.5 180zM446 1427q41 55 126 34t94 -81q10 -78 -76 -102q-84 -23 -136.5 31.5t-7.5 117.5z" />
<glyph unicode="&#xc0;" horiz-adv-x="999" d="M25 63q-2 18 5 47t23.5 76t22.5 64q109 328 317 856q12 31 37 110.5t42 121.5t55 83t89 45q47 4 73 -18.5t31 -47t11 -93.5q2 -25 4 -37q20 -180 79.5 -465t76.5 -389q8 -49 33.5 -169t33.5 -165q-2 -43 -51 -72.5t-92 -27.5q-53 6 -76.5 96t-40 205.5t-43.5 156.5 q-14 -2 -88.5 -10t-123 -17.5t-83.5 -23.5q-20 -74 -65 -188.5t-82 -171.5q-49 -47 -115.5 -30t-72.5 64zM195 1870q4 88 102 102q27 2 47.5 -6t50 -29.5t45.5 -29.5q25 -14 78 -46t98.5 -58.5t81.5 -45.5q8 -4 23.5 -12t22 -12t18.5 -11.5t18 -12.5t13.5 -12t12.5 -14.5 t7 -15.5q16 -55 -11.5 -107.5t-58.5 -60.5q-8 -8 -30.5 -2t-30.5 6t-29.5 12.5t-26.5 16.5t-24.5 18.5t-23.5 16.5q-59 41 -151.5 93t-135.5 79q-35 23 -49.5 34t-31.5 37.5t-15 59.5zM438 612q35 -10 98.5 1.5t84.5 29.5q2 66 -17.5 179.5t-40.5 146.5h-18 q-27 -51 -63 -168t-44 -189z" />
<glyph unicode="&#xc1;" horiz-adv-x="999" d="M25 63q-2 18 5 47t23.5 76t22.5 64q109 328 317 856q12 31 37 110.5t42 121.5t55 83t89 45q47 4 73 -18.5t31 -47t11 -93.5q2 -25 4 -37q20 -180 79.5 -465t76.5 -389q8 -49 33.5 -169t33.5 -165q-2 -43 -51 -72.5t-92 -27.5q-53 6 -76.5 96t-40 205.5t-43.5 156.5 q-14 -2 -88.5 -10t-123 -17.5t-83.5 -23.5q-20 -74 -65 -188.5t-82 -171.5q-49 -47 -115.5 -30t-72.5 64zM264 1554q-12 39 6.5 73t61.5 58.5t86 43t99 39t79 30.5q143 61 184 68q88 14 105.5 -54.5t-47.5 -125.5q-47 -33 -103.5 -58.5t-151 -57.5t-124.5 -44 q-6 -2 -34 -13.5t-39 -15.5t-34.5 -7t-36 2t-28 20t-23.5 42zM438 612q35 -10 98.5 1.5t84.5 29.5q2 66 -17.5 179.5t-40.5 146.5h-18q-27 -51 -63 -168t-44 -189z" />
<glyph unicode="&#xc2;" horiz-adv-x="999" d="M25 63q-2 18 5 47t23.5 76t22.5 64q109 328 317 856q12 31 37 110.5t42 121.5t55 83t89 45q47 4 73 -18.5t31 -47t11 -93.5q2 -25 4 -37q20 -180 79.5 -465t76.5 -389q8 -49 33.5 -169t33.5 -165q-2 -43 -51 -72.5t-92 -27.5q-53 6 -76.5 96t-40 205.5t-43.5 156.5 q-14 -2 -88.5 -10t-123 -17.5t-83.5 -23.5q-20 -74 -65 -188.5t-82 -171.5q-49 -47 -115.5 -30t-72.5 64zM281 1534q-20 27 0 93.5t45 105.5q47 76 128 151.5t126 71.5q98 -8 243 -139q123 -109 140 -193q8 -51 -29 -93t-90 -38q-29 2 -53.5 18.5t-36 29.5t-39.5 48 q-4 6 -15.5 19.5t-18.5 22.5t-18.5 21.5t-19.5 20.5t-17.5 16.5t-17.5 12.5t-14 4q-31 0 -82 -56.5t-76 -97.5q-31 -51 -77.5 -54t-77.5 36zM438 612q35 -10 98.5 1.5t84.5 29.5q2 66 -17.5 179.5t-40.5 146.5h-18q-27 -51 -63 -168t-44 -189z" />
<glyph unicode="&#xc3;" horiz-adv-x="999" d="M25 63q-2 18 5 47t23.5 76t22.5 64q109 328 317 856q12 31 37 110.5t42 121.5t55 83t89 45q47 4 73 -18.5t31 -47t11 -93.5q2 -25 4 -37q20 -180 79.5 -465t76.5 -389q8 -49 33.5 -169t33.5 -165q-2 -43 -51 -72.5t-92 -27.5q-53 6 -76.5 96t-40 205.5t-43.5 156.5 q-14 -2 -88.5 -10t-123 -17.5t-83.5 -23.5q-20 -74 -65 -188.5t-82 -171.5q-49 -47 -115.5 -30t-72.5 64zM274 1571q-2 16 1.5 32.5t8.5 25.5t14 24.5t11 19.5q25 43 72 90q23 25 58.5 42.5t81.5 16.5t81 -32q10 -10 41 -68.5t59 -60.5q23 0 45.5 24.5t37 52t38 44t51.5 4.5 q41 -20 34 -63.5t-30.5 -83.5t-52.5 -64q-135 -117 -243 -25q-16 12 -37 55.5t-41 47.5q-18 2 -38 -11.5t-31 -26.5t-27.5 -37t-18.5 -28q-33 -35 -71 -26.5t-44 47.5zM438 612q35 -10 98.5 1.5t84.5 29.5q2 66 -17.5 179.5t-40.5 146.5h-18q-27 -51 -63 -168t-44 -189z" />
<glyph unicode="&#xc4;" horiz-adv-x="999" d="M25 63q-2 18 5 47t23.5 76t22.5 64q109 328 317 856q12 31 37 110.5t42 121.5t55 83t89 45q47 4 73 -18.5t31 -47t11 -93.5q2 -25 4 -37q20 -180 79.5 -465t76.5 -389q8 -49 33.5 -169t33.5 -165q-2 -43 -51 -72.5t-92 -27.5q-53 6 -76.5 96t-40 205.5t-43.5 156.5 q-14 -2 -88.5 -10t-123 -17.5t-83.5 -23.5q-20 -74 -65 -188.5t-82 -171.5q-49 -47 -115.5 -30t-72.5 64zM362 1675q6 47 39 79t76 40q88 16 101 -65q12 -76 -41 -140q-39 -45 -88 -39q-45 4 -69 38t-18 87zM438 612q35 -10 98.5 1.5t84.5 29.5q2 66 -17.5 179.5 t-40.5 146.5h-18q-27 -51 -63 -168t-44 -189zM695.5 1613q-11.5 79 39.5 136q51 55 115 16q39 -25 51 -78t-18.5 -100t-100.5 -49q-75 -4 -86.5 75z" />
<glyph unicode="&#xc5;" horiz-adv-x="999" d="M25 63q-2 18 5 47t23.5 76t22.5 64q109 328 317 856q12 31 37 110.5t42 121.5t55 83t89 45q47 4 73 -18.5t31 -47t11 -93.5q2 -25 4 -37q20 -180 79.5 -465t76.5 -389q8 -49 33.5 -169t33.5 -165q-2 -43 -51 -72.5t-92 -27.5q-53 6 -76.5 96t-40 205.5t-43.5 156.5 q-14 -2 -88.5 -10t-123 -17.5t-83.5 -23.5q-20 -74 -65 -188.5t-82 -171.5q-49 -47 -115.5 -30t-72.5 64zM272 1597q2 43 30 101.5t63 101.5q162 197 337 187q125 -6 199 -98.5t66 -207.5q-4 -53 -54.5 -138t-93.5 -124q-70 -63 -168 -81.5t-200 20.5q-66 27 -125.5 92 t-53.5 147zM438 612q35 -10 98.5 1.5t84.5 29.5q2 66 -17.5 179.5t-40.5 146.5h-18q-27 -51 -63 -168t-44 -189zM514 1657q2 -53 56.5 -86t110.5 -24t67 63q14 74 -36 124t-112 35q-37 -8 -62.5 -40.5t-23.5 -71.5z" />
<glyph unicode="&#xc6;" horiz-adv-x="1800" d="M73 127q5 45 29.5 98.5t65.5 112.5q326 549 545 979q106 162 217 174q43 4 62.5 -11.5t34.5 -41t40 -37.5q31 -2 61.5 0t114.5 11t119 11q305 23 326 -65q27 -135 -86 -148q-29 -4 -242 -17t-293 -42q-6 -346 0 -397q88 -23 201.5 -18t230.5 3t139 -26q31 -27 23 -91.5 t-57 -78.5q-57 -16 -256 -19.5t-256 -23.5q-23 -35 -20 -141.5t20 -137.5q16 -14 60 -15t122 7t94 8q8 0 41 2l49 3q16 1 47 0t49.5 -4t40 -9t34.5 -18.5t20 -28.5q14 -37 -3.5 -80t-37.5 -49q-113 -31 -228 -29q-25 0 -181.5 -8t-253.5 1t-97 50q0 18 -5 102.5t-3 106.5 q10 205 -25 234q-156 25 -268 -13q-41 -18 -111.5 -138t-79.5 -130q-6 -8 -22.5 -39t-27.5 -47t-28.5 -38.5t-38 -35t-42.5 -14.5q-68 -6 -98.5 18.5t-25.5 69.5zM655 756q37 -25 160 -6q16 47 11 133t-33 118q-8 -12 -32 -41.5t-35 -47t-27.5 -44t-27 -54t-16.5 -58.5z" />
<glyph unicode="&#xc7;" horiz-adv-x="1062" d="M39 616q0 240 33.5 369t138.5 256q92 109 229.5 165t294.5 11q106 -31 174 -98.5t29 -128.5q-31 -53 -83 -57.5t-108.5 19.5t-128 32t-141.5 -19q-201 -88 -205 -477q0 -166 47.5 -265t149.5 -155q88 -45 172 -47q35 -2 93.5 15.5t103.5 34t90 13.5t67 -38 q35 -55 -3 -114.5t-89 -82.5q-104 -49 -291 -57q-23 -2 -47 0t-46.5 -1t-41 -9.5t-28 -23.5t-5.5 -46q6 -29 34 -43t71 -23.5t61 -19.5q51 -29 82 -93.5t19 -123.5q-8 -43 -33 -78t-42.5 -49t-57.5 -43q-66 -43 -180.5 -43t-125.5 76q-6 43 26 67.5t73 30.5t76.5 19.5 t37.5 35.5q-4 33 -28.5 47.5t-65.5 22.5t-57 16q-98 41 -104.5 158t61.5 186q-57 31 -115.5 106t-91.5 163q-16 43 -30.5 139t-14.5 153z" />
<glyph unicode="&#xc8;" horiz-adv-x="919" d="M68 231q-2 63 14 281q6 139 33 537q2 82 3 116.5t12 88t32 75.5q59 66 325 66q76 0 119 -3t94.5 -11.5t77 -27t29.5 -46.5q4 -63 -12.5 -95t-71.5 -34q-23 -2 -86 -2q-223 -4 -266 -33q-25 -16 -33 -101q0 -4 -5 -38.5t-7 -56t-3 -53.5t4 -53.5t17 -33.5q20 -18 59 -19 q31 0 100.5 15.5t100.5 15.5q66 0 84 -61q18 -106 -86 -140q-27 -4 -90 -12q-164 -18 -199 -45q-27 -29 -26 -137q0 -92 4 -127q0 -4 1 -11t1 -10l2 -2q96 -4 262 13q16 2 77.5 14t96.5 16.5t78 -2.5q29 -8 45 -53t0 -96q-12 -37 -36.5 -59.5t-67.5 -31.5t-72 -11.5 t-84 -4.5q-129 0 -367 -16q-104 -8 -129.5 28.5t-29.5 159.5zM121 1833q4 88 102 102q27 2 47.5 -6t50 -29.5t46.5 -29.5q25 -14 78 -46t98 -58.5t82 -45.5q8 -4 23.5 -12t21.5 -12t18 -11.5t18.5 -12.5t13.5 -12t12 -14.5t7 -15.5q16 -55 -11.5 -107.5t-57.5 -60.5 q-8 -8 -31 -2t-31 6t-29.5 12.5t-26.5 16.5t-24.5 18.5t-23.5 16.5q-59 41 -151.5 93t-135.5 79q-35 23 -49 34t-31.5 37.5t-15.5 59.5z" />
<glyph unicode="&#xc9;" horiz-adv-x="919" d="M68 231q-2 63 14 281q6 139 33 537q2 82 3 116.5t12 88t32 75.5q59 66 325 66q76 0 119 -3t94.5 -11.5t77 -27t29.5 -46.5q4 -63 -12.5 -95t-71.5 -34q-23 -2 -86 -2q-223 -4 -266 -33q-25 -16 -33 -101q0 -4 -5 -38.5t-7 -56t-3 -53.5t4 -53.5t17 -33.5q20 -18 59 -19 q31 0 100.5 15.5t100.5 15.5q66 0 84 -61q18 -106 -86 -140q-27 -4 -90 -12q-164 -18 -199 -45q-27 -29 -26 -137q0 -92 4 -127q0 -4 1 -11t1 -10l2 -2q96 -4 262 13q16 2 77.5 14t96.5 16.5t78 -2.5q29 -8 45 -53t0 -96q-12 -37 -36.5 -59.5t-67.5 -31.5t-72 -11.5 t-84 -4.5q-129 0 -367 -16q-104 -8 -129.5 28.5t-29.5 159.5zM215 1526q-12 39 6.5 72.5t61.5 58t86 43t99 39t79 30.5q143 61 184 68q88 14 105.5 -54.5t-48.5 -125.5q-47 -33 -103 -58.5t-150.5 -57.5t-124.5 -44q-6 -2 -34 -13t-39 -15.5t-34.5 -7.5t-36 2t-28 20.5 t-23.5 42.5z" />

<glyph unicode="&#xca;" horiz-adv-x="919" d="M68 231q-2 63 14 281q6 139 33 537q2 82 3 116.5t12 88t32 75.5q59 66 325 66q76 0 119 -3t94.5 -11.5t77 -27t29.5 -46.5q4 -63 -12.5 -95t-71.5 -34q-23 -2 -86 -2q-223 -4 -266 -33q-25 -16 -33 -101q0 -4 -5 -38.5t-7 -56t-3 -53.5t4 -53.5t17 -33.5q20 -18 59 -19 q31 0 100.5 15.5t100.5 15.5q66 0 84 -61q18 -106 -86 -140q-27 -4 -90 -12q-164 -18 -199 -45q-27 -29 -26 -137q0 -92 4 -127q0 -4 1 -11t1 -10l2 -2q96 -4 262 13q16 2 77.5 14t96.5 16.5t78 -2.5q29 -8 45 -53t0 -96q-12 -37 -36.5 -59.5t-67.5 -31.5t-72 -11.5 t-84 -4.5q-129 0 -367 -16q-104 -8 -129.5 28.5t-29.5 159.5zM129 1491q-20 27 0.5 93.5t44.5 105.5q47 76 128 151.5t126 71.5q98 -8 244 -139q123 -109 139 -193q8 -51 -29 -93t-90 -38q-29 2 -53.5 18.5t-35.5 29.5t-40 48q-4 6 -15 19.5t-18.5 22.5t-18.5 21.5 t-19.5 20.5t-17.5 16.5t-17 12.5t-15 4q-31 0 -82 -56.5t-75 -97.5q-31 -51 -78 -54t-78 36z" />
<glyph unicode="&#xcb;" horiz-adv-x="919" d="M68 231q-2 63 14 281q6 139 33 537q2 82 3 116.5t12 88t32 75.5q59 66 325 66q76 0 119 -3t94.5 -11.5t77 -27t29.5 -46.5q4 -63 -12.5 -95t-71.5 -34q-23 -2 -86 -2q-223 -4 -266 -33q-25 -16 -33 -101q0 -4 -5 -38.5t-7 -56t-3 -53.5t4 -53.5t17 -33.5q20 -18 59 -19 q31 0 100.5 15.5t100.5 15.5q66 0 84 -61q18 -106 -86 -140q-27 -4 -90 -12q-164 -18 -199 -45q-27 -29 -26 -137q0 -92 4 -127q0 -4 1 -11t1 -10l2 -2q96 -4 262 13q16 2 77.5 14t96.5 16.5t78 -2.5q29 -8 45 -53t0 -96q-12 -37 -36.5 -59.5t-67.5 -31.5t-72 -11.5 t-84 -4.5q-129 0 -367 -16q-104 -8 -129.5 28.5t-29.5 159.5zM178 1608q6 47 39 78.5t76 39.5q88 16 100 -65q12 -76 -41 -139q-39 -45 -88 -39q-45 4 -68.5 38t-17.5 87zM511 1545q-11 79 40 136q51 55 115 17q39 -25 51 -78t-18.5 -100t-100.5 -50q-76 -4 -87 75z" />
<glyph unicode="&#xcc;" horiz-adv-x="434" d="M-113 1931q4 88 103 103q27 2 47 -6.5t50 -30t46 -29.5q25 -14 78 -46t98 -58.5t82 -44.5q8 -4 23.5 -12.5t21.5 -12.5t18.5 -11t18.5 -12.5t13.5 -12.5t12.5 -14t7 -15q16 -55 -11.5 -107.5t-58.5 -60.5q-8 -8 -30.5 -2t-30.5 6t-29.5 12t-27 16t-25 18.5t-23.5 16.5 q-59 41 -151 93.5t-135 78.5q-35 23 -49.5 34t-32 37.5t-15.5 59.5zM64.5 91q-7.5 75 3.5 140q2 29 3 138.5t3 142.5q4 82 19.5 280.5t21.5 303.5q20 301 28 321q14 27 53.5 45.5t73.5 20.5q74 0 90 -47q12 -59 8.5 -117.5t-16 -164t-14.5 -134.5q-2 -43 -15.5 -256 t-13.5 -336q0 -326 -28 -369q-23 -33 -78.5 -53t-87.5 -6q-43 16 -50.5 91z" />
<glyph unicode="&#xcd;" horiz-adv-x="434" d="M-88 1583q-12 39 6.5 73t61.5 58.5t86 43t99 39t79 30.5q143 61 184 67q88 14 105.5 -54t-48.5 -126q-47 -33 -103 -58.5t-150.5 -57t-125.5 -44.5q-6 -2 -33.5 -13t-38.5 -15t-35 -7t-36 2t-27.5 20t-23.5 42zM64.5 91q-7.5 75 3.5 140q2 29 3 138.5t3 142.5 q4 82 19.5 280.5t21.5 303.5q20 301 28 321q14 27 53.5 45.5t73.5 20.5q74 0 90 -47q12 -59 8.5 -117.5t-16 -164t-14.5 -134.5q-2 -43 -15.5 -256t-13.5 -336q0 -326 -28 -369q-23 -33 -78.5 -53t-87.5 -6q-43 16 -50.5 91z" />
<glyph unicode="&#xce;" horiz-adv-x="434" d="M-45 1552q-20 27 0 93.5t45 105.5q47 76 128 151.5t126 71.5q98 -8 244 -139q123 -109 139 -193q8 -51 -29 -93t-90 -38q-29 2 -53.5 18.5t-35.5 30t-40 48.5q-4 6 -15.5 19t-18.5 22.5t-18 21.5t-19.5 20.5t-17.5 16.5t-17.5 12t-14.5 4q-31 0 -82 -56t-75 -97 q-31 -51 -78 -54.5t-78 35.5zM64.5 91q-7.5 75 3.5 140q2 29 3 138.5t3 142.5q4 82 19.5 280.5t21.5 303.5q20 301 28 321q14 27 53.5 45.5t73.5 20.5q74 0 90 -47q12 -59 8.5 -117.5t-16 -164t-14.5 -134.5q-2 -43 -15.5 -256t-13.5 -336q0 -326 -28 -369 q-23 -33 -78.5 -53t-87.5 -6q-43 16 -50.5 91z" />
<glyph unicode="&#xcf;" horiz-adv-x="434" d="M-16 1720q6 47 38.5 79t75.5 40q88 16 101 -65q12 -76 -41 -140q-39 -45 -88 -39q-45 4 -68.5 38t-17.5 87zM64.5 91q-7.5 75 3.5 140q2 29 3 138.5t3 142.5q4 82 19.5 280.5t21.5 303.5q20 301 28 321q14 27 53.5 45.5t73.5 20.5q74 0 90 -47q12 -59 8.5 -117.5 t-16 -164t-14.5 -134.5q-2 -43 -15.5 -256t-13.5 -336q0 -326 -28 -369q-23 -33 -78.5 -53t-87.5 -6q-43 16 -50.5 91zM316.5 1658q-11.5 79 39.5 136q51 55 115 16q39 -25 51.5 -78t-18.5 -100t-101 -49q-75 -4 -86.5 75z" />
<glyph unicode="&#xd1;" horiz-adv-x="1163" d="M65.5 87q-4.5 52 10 141t14.5 98q8 145 38 410t38 419q16 219 45 250q18 20 66.5 31.5t89.5 -0.5q16 -6 29.5 -19.5t25.5 -37t20.5 -41t22.5 -53.5t20 -52q156 -362 183 -422q125 -281 157 -328q16 59 27 289q4 66 9 175.5t9 182.5q2 23 0 71t0 86t11 63q8 23 33.5 48 t58.5 32q90 16 117 -25q39 -49 -3 -303q-8 -53 -26.5 -407.5t-18.5 -411.5v-59q0 -48 -2 -69.5t-8 -54t-18 -51.5q-20 -31 -71.5 -46t-96.5 1q-29 12 -72 102q-27 51 -84 153.5t-98 183.5t-74 159q-8 20 -42 80.5t-63.5 123t-43.5 116.5q-14 -74 -28.5 -304.5t-21.5 -275.5 q-18 -266 -61 -309q-23 -27 -72 -33t-88 16q-28 19 -32.5 71zM387 1526q-2 16 1 32.5t8 25.5t14.5 24.5t11.5 19.5q25 43 72 90q23 25 58.5 42.5t81.5 16.5t81 -32q10 -10 40.5 -68.5t59.5 -60.5q23 0 45.5 24.5t36.5 52t37.5 44t52.5 4.5q41 -20 34 -63.5t-30.5 -83.5 t-52.5 -64q-135 -117 -244 -25q-16 12 -36.5 55.5t-41.5 47.5q-18 2 -37.5 -11.5t-30.5 -27t-27.5 -37t-18.5 -27.5q-33 -35 -71 -26.5t-44 47.5z" />
<glyph unicode="&#xd2;" horiz-adv-x="1314" d="M70 643q23 401 206 574q174 207 408 208q117 2 228.5 -29.5t172.5 -105.5q113 -109 148 -282.5t6 -352.5q-23 -133 -45.5 -200.5t-75.5 -145.5q-190 -309 -567 -311q-236 2 -373 213q-70 106 -93 191t-15 241zM317 530q8 -84 85 -182t149 -123q104 -37 198.5 13.5 t145.5 130.5q100 152 109 417q-4 119 -65.5 229.5t-139.5 135.5q-100 33 -189 27q-66 -6 -130 -58.5t-95 -111.5q-35 -70 -57.5 -219.5t-10.5 -258.5zM330 1868q4 88 102 102q27 2 47.5 -6t50 -29.5t45.5 -29.5q25 -14 78.5 -46t98.5 -58.5t82 -45.5q8 -4 23 -12t21.5 -12.5 t18.5 -11.5t18.5 -12t13.5 -12t12 -14.5t7 -15.5q16 -55 -11.5 -107.5t-57.5 -60.5q-8 -8 -31 -2t-31 6t-29.5 12.5t-26.5 16.5t-24.5 18.5t-23.5 16.5q-59 41 -151.5 93t-135.5 79q-35 23 -49.5 34t-31.5 37.5t-15 59.5z" />
<glyph unicode="&#xd3;" horiz-adv-x="1314" d="M70 643q23 401 206 574q174 207 408 208q117 2 228.5 -29.5t172.5 -105.5q113 -109 148 -282.5t6 -352.5q-23 -133 -45.5 -200.5t-75.5 -145.5q-190 -309 -567 -311q-236 2 -373 213q-70 106 -93 191t-15 241zM317 530q8 -84 85 -182t149 -123q104 -37 198.5 13.5 t145.5 130.5q100 152 109 417q-4 119 -65.5 229.5t-139.5 135.5q-100 33 -189 27q-66 -6 -130 -58.5t-95 -111.5q-35 -70 -57.5 -219.5t-10.5 -258.5zM371 1528q-12 39 6 72.5t61 58t86 43t99.5 39t78.5 31.5q143 61 185 67q88 14 105.5 -54.5t-48.5 -125.5 q-47 -33 -103.5 -58.5t-150.5 -57.5t-125 -44q-6 -2 -33.5 -13t-39 -15.5t-35 -7.5t-35.5 2t-27.5 20.5t-23.5 42.5z" />
<glyph unicode="&#xd4;" horiz-adv-x="1314" d="M70 643q23 401 206 574q174 207 408 208q117 2 228.5 -29.5t172.5 -105.5q113 -109 148 -282.5t6 -352.5q-23 -133 -45.5 -200.5t-75.5 -145.5q-190 -309 -567 -311q-236 2 -373 213q-70 106 -93 191t-15 241zM317 530q8 -84 85 -182t149 -123q104 -37 198.5 13.5 t145.5 130.5q100 152 109 417q-4 119 -65.5 229.5t-139.5 135.5q-100 33 -189 27q-66 -6 -130 -58.5t-95 -111.5q-35 -70 -57.5 -219.5t-10.5 -258.5zM334 1499q-20 27 0 93.5t45 105.5q47 76 128 151.5t126 71.5q98 -8 244 -139q123 -109 139 -193q8 -51 -29 -93t-90 -38 q-29 2 -53.5 18.5t-35.5 30t-40 47.5q-4 6 -15.5 19.5t-18.5 23t-18 21.5t-19.5 20.5t-17.5 16.5t-17.5 12t-14.5 4q-31 0 -82 -56t-76 -97q-31 -51 -77.5 -54.5t-77.5 35.5z" />
<glyph unicode="&#xd5;" horiz-adv-x="1314" d="M70 643q23 401 206 574q174 207 408 208q117 2 228.5 -29.5t172.5 -105.5q113 -109 148 -282.5t6 -352.5q-23 -133 -45.5 -200.5t-75.5 -145.5q-190 -309 -567 -311q-236 2 -373 213q-70 106 -93 191t-15 241zM317 530q8 -84 85 -182t149 -123q104 -37 198.5 13.5 t145.5 130.5q100 152 109 417q-4 119 -65.5 229.5t-139.5 135.5q-100 33 -189 27q-66 -6 -130 -58.5t-95 -111.5q-35 -70 -57.5 -219.5t-10.5 -258.5zM350 1511q-2 16 1 33t8.5 26t14.5 24.5t11 19.5q25 43 72 90q23 25 58.5 42t81.5 16t81 -31q10 -10 41 -68.5t59 -60.5 q23 0 45.5 24.5t36.5 52t38 44t52 3.5q41 -20 34 -63t-30.5 -83t-52.5 -64q-135 -117 -244 -25q-16 12 -36.5 55t-40.5 47q-18 2 -38 -11t-31 -26.5t-27.5 -37t-18.5 -27.5q-33 -35 -71 -27t-44 47z" />
<glyph unicode="&#xd6;" horiz-adv-x="1314" d="M70 643q23 401 206 574q174 207 408 208q117 2 228.5 -29.5t172.5 -105.5q113 -109 148 -282.5t6 -352.5q-23 -133 -45.5 -200.5t-75.5 -145.5q-190 -309 -567 -311q-236 2 -373 213q-70 106 -93 191t-15 241zM317 530q8 -84 85 -182t149 -123q104 -37 198.5 13.5 t145.5 130.5q100 152 109 417q-4 119 -65.5 229.5t-139.5 135.5q-100 33 -189 27q-66 -6 -130 -58.5t-95 -111.5q-35 -70 -57.5 -219.5t-10.5 -258.5zM477 1638q6 47 39 79t76 40q88 16 100 -65q12 -76 -41 -140q-39 -45 -88 -39q-45 4 -68.5 38t-17.5 87zM810 1576 q-11 79 40 136q51 55 115 17q39 -25 51 -78.5t-18.5 -100.5t-100.5 -49q-76 -4 -87 75z" />
<glyph unicode="&#xd8;" horiz-adv-x="1366" d="M84 172q0 41 27.5 75t55.5 58.5t30 36.5q2 27 -17.5 70t-23.5 55q-51 184 4 382t174 296q92 78 187 108.5t251 14.5q29 -2 72 -13.5t74.5 -19.5t39.5 -6q6 2 55.5 52t80.5 67q33 20 98 6q74 -20 74 -84q0 -23 -45 -84.5t-45 -73.5q0 -23 44 -92.5t58 -124.5 q70 -274 -25.5 -476t-310.5 -274q-197 -63 -442 -18q-10 2 -52 14.5t-63 10.5q-37 -4 -92 -50.5t-74 -44.5q-53 6 -95 40t-40 75zM350 725q-14 -106 6 -190q10 -35 25 -29q41 29 211 226.5t229 283.5q-39 39 -135 44t-158 -28q-72 -39 -118 -123t-60 -184zM545 336 q25 -43 98 -47q184 -14 312 75t147 252q4 51 -12.5 127t-40 125.5t-33.5 38.5q-86 -88 -236.5 -272t-234.5 -299z" />
<glyph unicode="&#xd9;" horiz-adv-x="1105" d="M74 492q-29 268 18 610q2 18 7 60t8.5 58.5t9.5 48t14 47t20.5 35t30 31t41.5 19.5q86 25 121 -12q12 -14 13 -49t-3 -69t-12 -81t-10 -66q-12 -141 -17.5 -202.5t-3.5 -171t17 -203.5q25 -162 73 -234q25 -39 79.5 -68.5t121.5 -15.5q59 12 97 106.5t49.5 199 t13.5 221.5q0 45 4 98q0 66 8 242q0 4 1 67.5t4 104.5t12 61q14 37 53 62.5t80 31.5q59 10 85.5 -20.5t22.5 -84.5t-10 -120q-2 -8 -2 -12q-12 -98 -20.5 -353t-30.5 -370q-53 -272 -207 -383q-68 -49 -164 -68.5t-203 8.5q-78 25 -155.5 94.5t-108.5 145.5q-23 55 -39 119 q-8 39 -18 113zM209 1825q4 88 102 102q27 2 47.5 -6t50 -29.5t46.5 -29.5q25 -14 78 -46t98 -58.5t82 -45.5q8 -4 23.5 -12t21.5 -12.5t18 -11.5t18.5 -12t13.5 -12t12 -14.5t7 -15.5q16 -55 -11.5 -107.5t-57.5 -60.5q-8 -8 -30.5 -2t-31 6t-30 12.5t-26.5 16.5 t-24.5 18.5t-23.5 16.5q-59 41 -151.5 93t-135.5 79q-35 23 -49 34t-31.5 37.5t-15.5 59.5z" />
<glyph unicode="&#xda;" horiz-adv-x="1105" d="M74 492q-29 268 18 610q2 18 7 60t8.5 58.5t9.5 48t14 47t20.5 35t30 31t41.5 19.5q86 25 121 -12q12 -14 13 -49t-3 -69t-12 -81t-10 -66q-12 -141 -17.5 -202.5t-3.5 -171t17 -203.5q25 -162 73 -234q25 -39 79.5 -68.5t121.5 -15.5q59 12 97 106.5t49.5 199 t13.5 221.5q0 45 4 98q0 66 8 242q0 4 1 67.5t4 104.5t12 61q14 37 53 62.5t80 31.5q59 10 85.5 -20.5t22.5 -84.5t-10 -120q-2 -8 -2 -12q-12 -98 -20.5 -353t-30.5 -370q-53 -272 -207 -383q-68 -49 -164 -68.5t-203 8.5q-78 25 -155.5 94.5t-108.5 145.5q-23 55 -39 119 q-8 39 -18 113zM420 1559q-12 39 6 72.5t61 58t86 43t99.5 39t79.5 30.5q143 61 184 68q88 14 105.5 -54.5t-48.5 -125.5q-47 -33 -103 -58.5t-150.5 -57.5t-125.5 -44q-6 -2 -33.5 -13.5t-39 -15.5t-35 -7t-35.5 2t-27.5 20.5t-23.5 42.5z" />
<glyph unicode="&#xdb;" horiz-adv-x="1105" d="M74 492q-29 268 18 610q2 18 7 60t8.5 58.5t9.5 48t14 47t20.5 35t30 31t41.5 19.5q86 25 121 -12q12 -14 13 -49t-3 -69t-12 -81t-10 -66q-12 -141 -17.5 -202.5t-3.5 -171t17 -203.5q25 -162 73 -234q25 -39 79.5 -68.5t121.5 -15.5q59 12 97 106.5t49.5 199 t13.5 221.5q0 45 4 98q0 66 8 242q0 4 1 67.5t4 104.5t12 61q14 37 53 62.5t80 31.5q59 10 85.5 -20.5t22.5 -84.5t-10 -120q-2 -8 -2 -12q-12 -98 -20.5 -353t-30.5 -370q-53 -272 -207 -383q-68 -49 -164 -68.5t-203 8.5q-78 25 -155.5 94.5t-108.5 145.5q-23 55 -39 119 q-8 39 -18 113zM289 1513q-20 27 0 93.5t45 105.5q47 76 128 151.5t126 71.5q98 -8 243 -139q123 -109 140 -192q8 -51 -29 -93.5t-90 -37.5q-29 2 -53.5 18t-35.5 29.5t-40 48.5q-4 6 -15.5 19.5t-18.5 22.5t-18.5 21.5t-19.5 20.5t-17 16t-17.5 12.5t-14.5 4.5 q-31 0 -82 -56.5t-76 -97.5q-31 -51 -77.5 -54.5t-77.5 35.5z" />
<glyph unicode="&#xdc;" horiz-adv-x="1105" d="M74 492q-29 268 18 610q2 18 7 60t8.5 58.5t9.5 48t14 47t20.5 35t30 31t41.5 19.5q86 25 121 -12q12 -14 13 -49t-3 -69t-12 -81t-10 -66q-12 -141 -17.5 -202.5t-3.5 -171t17 -203.5q25 -162 73 -234q25 -39 79.5 -68.5t121.5 -15.5q59 12 97 106.5t49.5 199 t13.5 221.5q0 45 4 98q0 66 8 242q0 4 1 67.5t4 104.5t12 61q14 37 53 62.5t80 31.5q59 10 85.5 -20.5t22.5 -84.5t-10 -120q-2 -8 -2 -12q-12 -98 -20.5 -353t-30.5 -370q-53 -272 -207 -383q-68 -49 -164 -68.5t-203 8.5q-78 25 -155.5 94.5t-108.5 145.5q-23 55 -39 119 q-8 39 -18 113zM360 1626q6 47 39 79t76 40q88 16 100 -66q12 -76 -40 -139q-39 -45 -89 -39q-45 4 -68.5 38t-17.5 87zM693.5 1563.5q-11.5 78.5 39.5 136.5q51 55 115 16q39 -25 51 -78t-18.5 -100t-100.5 -49q-75 -4 -86.5 74.5z" />

<glyph unicode="&#xdd;" horiz-adv-x="1193" d="M31 1309q0 68 74.5 126t136.5 17q10 -6 22 -28.5t20.5 -43t20.5 -49t14 -35.5q45 -88 78 -161q16 -37 44 -111t51.5 -120t58.5 -81q25 12 44 35t40.5 59.5t30.5 49.5q137 197 208 293q41 51 62 83q61 92 63 95q18 14 50 19t66 -11t44 -53q8 -27 -4 -60t-27.5 -54.5 t-42 -51t-28.5 -33.5q-37 -47 -100.5 -125t-105.5 -134t-93 -134q-31 -47 -64 -107q-55 -84 -61 -114q-10 -43 -17 -187q-2 -59 -18 -215q-12 -123 -16 -139q-12 -31 -52.5 -55.5t-87.5 -20.5q-35 4 -53 35t-19 80t2 95t11 101.5t8 77.5q10 184 -22 275q-8 23 -35 65.5 t-37 65.5q-18 53 -71.5 144t-69.5 126q-18 39 -68 137q-6 10 -19.5 35t-19.5 38t-12 34t-6 37zM432 1552q-12 39 6.5 73t61.5 58.5t86 43t99 39t79 30.5q143 61 184 68q88 14 105.5 -54.5t-47.5 -126.5q-47 -33 -103.5 -58.5t-151 -57t-124.5 -43.5q-6 -2 -34 -13.5 t-39 -15.5t-34.5 -7t-36 2t-28 20t-23.5 42z" />
<glyph unicode="&#xdf;" horiz-adv-x="1148" d="M125 553q-31 233 0 435t139.5 345.5t284.5 161.5q217 20 414 -192q43 -47 64.5 -75t46 -75t21.5 -97t-32 -108q-20 -39 -68.5 -99.5t-89.5 -96.5q-113 -96 -114 -150q-2 -16 15 -36.5t56 -57.5t53 -51q100 -104 105 -209q4 -119 -131 -215q-86 -61 -148 -53 q-63 10 -84.5 74.5t31.5 109.5q4 4 26.5 12t41 21.5t20.5 31.5q4 37 -53 98.5t-117.5 133t-60.5 127.5q2 63 48 143t126 143q90 74 100 140q8 68 -86 153.5t-164 85.5q-49 0 -88 -47t-60.5 -120.5t-33.5 -149.5t-14 -145q-2 -113 19.5 -364t8.5 -388q-16 -35 -50 -64.5 t-78 -41t-85 21.5q-8 6 -14 17.5t-8 29.5t-3 32.5t-2 41t-1 43.5q-6 192 -35 434z" />
<glyph unicode="&#xe0;" d="M61 319q-27 123 76 226q57 57 158 90q39 12 112.5 19.5t128 14.5t68.5 25q33 53 4.5 114.5t-69.5 68.5q-80 -12 -179.5 -62.5t-136.5 -48.5q-45 16 -55 76q-6 55 31 88t102 61q113 57 191.5 79t166.5 1q55 -20 101.5 -85.5t58.5 -145.5q6 -31 7 -68t0 -64.5t-5 -70.5 t-7 -62.5t-10 -64.5t-9 -53q-45 -240 -76 -342q-12 -37 -48 -77t-69 -44q-25 -4 -76 3t-77 19q-76 29 -116 47.5t-92.5 53.5t-95.5 80q-78 67 -84 122zM145 1491q4 88 103 102q27 2 47 -6t50 -29.5t46 -29.5q25 -14 78 -46t98 -58.5t82 -45.5q8 -4 23.5 -12t21.5 -12 t18.5 -11.5t18.5 -12.5t13.5 -12t12.5 -14.5t7 -15.5q16 -55 -11.5 -107.5t-58.5 -60.5q-8 -8 -30.5 -2t-30.5 6t-29.5 12.5t-27 16.5t-25 18.5t-23.5 16.5q-59 41 -151 93t-135 79q-35 23 -49.5 34t-32 37.5t-15.5 59.5zM268 412q2 -139 252 -176q70 18 70 231 q-20 16 -144 10q-135 -6 -178 -65z" />
<glyph unicode="&#xe1;" d="M61 319q-27 123 76 226q57 57 158 90q39 12 112.5 19.5t128 14.5t68.5 25q33 53 4.5 114.5t-69.5 68.5q-80 -12 -179.5 -62.5t-136.5 -48.5q-45 16 -55 76q-6 55 31 88t102 61q113 57 191.5 79t166.5 1q55 -20 101.5 -85.5t58.5 -145.5q6 -31 7 -68t0 -64.5t-5 -70.5 t-7 -62.5t-10 -64.5t-9 -53q-45 -240 -76 -342q-12 -37 -48 -77t-69 -44q-25 -4 -76 3t-77 19q-76 29 -116 47.5t-92.5 53.5t-95.5 80q-78 67 -84 122zM240 1155q-12 39 6 73t61 58.5t86 43t99.5 39t78.5 30.5q143 61 185 67q88 14 105.5 -54.5t-48.5 -125.5 q-47 -33 -103.5 -58.5t-150.5 -57t-125 -44.5q-6 -2 -33.5 -13t-39 -15t-35 -7.5t-35.5 2t-27.5 20.5t-23.5 42zM268 412q2 -139 252 -176q70 18 70 231q-20 16 -144 10q-135 -6 -178 -65z" />
<glyph unicode="&#xe2;" d="M61 319q-27 123 76 226q57 57 158 90q39 12 112.5 19.5t128 14.5t68.5 25q33 53 4.5 114.5t-69.5 68.5q-80 -12 -179.5 -62.5t-136.5 -48.5q-45 16 -55 76q-6 55 31 88t102 61q113 57 191.5 79t166.5 1q55 -20 101.5 -85.5t58.5 -145.5q6 -31 7 -68t0 -64.5t-5 -70.5 t-7 -62.5t-10 -64.5t-9 -53q-45 -240 -76 -342q-12 -37 -48 -77t-69 -44q-25 -4 -76 3t-77 19q-76 29 -116 47.5t-92.5 53.5t-95.5 80q-78 67 -84 122zM213 1106q-20 27 0 93.5t45 105.5q47 76 128 151.5t126 71.5q98 -8 244 -139q123 -109 139 -193q8 -51 -29 -93t-90 -38 q-29 2 -53.5 18.5t-35.5 29.5t-40 48q-4 6 -15 19.5t-18.5 22.5t-18.5 21.5t-19.5 20.5t-17.5 16.5t-17.5 12.5t-14.5 4q-31 0 -82 -56.5t-75 -97.5q-31 -51 -78 -54t-78 36zM268 412q2 -139 252 -176q70 18 70 231q-20 16 -144 10q-135 -6 -178 -65z" />
<glyph unicode="&#xe3;" d="M61 319q-27 123 76 226q57 57 158 90q39 12 112.5 19.5t128 14.5t68.5 25q33 53 4.5 114.5t-69.5 68.5q-80 -12 -179.5 -62.5t-136.5 -48.5q-45 16 -55 76q-6 55 31 88t102 61q113 57 191.5 79t166.5 1q55 -20 101.5 -85.5t58.5 -145.5q6 -31 7 -68t0 -64.5t-5 -70.5 t-7 -62.5t-10 -64.5t-9 -53q-45 -240 -76 -342q-12 -37 -48 -77t-69 -44q-25 -4 -76 3t-77 19q-76 29 -116 47.5t-92.5 53.5t-95.5 80q-78 67 -84 122zM184 1210q-2 16 1 33t8.5 26t14.5 24.5t11 19.5q25 43 72 90q23 25 58.5 42t81.5 16t81 -31q10 -10 41 -68.5t59 -61.5 q23 0 45.5 25t37 52.5t38 44t51.5 3.5q41 -20 34 -63t-30.5 -83t-52.5 -65q-135 -117 -243 -24q-16 12 -37 55t-41 47q-18 2 -38 -11t-31 -26.5t-27.5 -37t-18.5 -27.5q-33 -35 -71 -27t-44 47zM268 412q2 -139 252 -176q70 18 70 231q-20 16 -144 10q-135 -6 -178 -65z" />
<glyph unicode="&#xe4;" d="M61 319q-27 123 76 226q57 57 158 90q39 12 112.5 19.5t128 14.5t68.5 25q33 53 4.5 114.5t-69.5 68.5q-80 -12 -179.5 -62.5t-136.5 -48.5q-45 16 -55 76q-6 55 31 88t102 61q113 57 191.5 79t166.5 1q55 -20 101.5 -85.5t58.5 -145.5q6 -31 7 -68t0 -64.5t-5 -70.5 t-7 -62.5t-10 -64.5t-9 -53q-45 -240 -76 -342q-12 -37 -48 -77t-69 -44q-25 -4 -76 3t-77 19q-76 29 -116 47.5t-92.5 53.5t-95.5 80q-78 67 -84 122zM268 412q2 -139 252 -176q70 18 70 231q-20 16 -144 10q-135 -6 -178 -65zM291 1305q6 47 38.5 78.5t76.5 39.5 q88 16 100 -65q12 -76 -41 -139q-39 -45 -88 -39q-45 4 -68.5 38t-17.5 87zM623.5 1242q-11.5 79 40.5 136q51 55 114 17q39 -25 51.5 -78t-18.5 -100.5t-100 -49.5q-76 -4 -87.5 75z" />
<glyph unicode="&#xe5;" d="M61 319q-27 123 76 226q57 57 158 90q39 12 112.5 19.5t128 14.5t68.5 25q33 53 4.5 114.5t-69.5 68.5q-80 -12 -179.5 -62.5t-136.5 -48.5q-45 16 -55 76q-6 55 31 88t102 61q113 57 191.5 79t166.5 1q55 -20 101.5 -85.5t58.5 -145.5q6 -31 7 -68t0 -64.5t-5 -70.5 t-7 -62.5t-10 -64.5t-9 -53q-45 -240 -76 -342q-12 -37 -48 -77t-69 -44q-25 -4 -76 3t-77 19q-76 29 -116 47.5t-92.5 53.5t-95.5 80q-78 67 -84 122zM170 1208q2 43 29.5 101.5t62.5 101.5q162 197 338 186q125 -6 198.5 -98t65.5 -207q-4 -53 -54 -138t-93 -124 q-70 -63 -168 -81.5t-201 20.5q-66 27 -125 92t-53 147zM268 412q2 -139 252 -176q70 18 70 231q-20 16 -144 10q-135 -6 -178 -65zM412 1268q2 -53 56 -86t110.5 -24t66.5 63q14 74 -36 124t-111 35q-37 -8 -62.5 -40.5t-23.5 -71.5z" />
<glyph unicode="&#xe6;" horiz-adv-x="1302" d="M98 147q-51 137 32 271.5t192 187.5q27 12 95 23.5t99 29.5q43 27 60.5 96.5t-3.5 135.5q-66 6 -102.5 -12.5t-89.5 -73.5q-10 -10 -42 -53t-56.5 -59.5t-63.5 -16.5q-147 6 -33 160q33 47 78 88q156 139 277 153q27 6 76 4t65 -14q29 -20 59.5 -61t55.5 -48 q29 -8 91 8.5t113 12.5q123 -8 195 -106.5t16 -229.5q-31 -78 -115.5 -131t-201.5 -74q-6 0 -31.5 -2t-43 -4t-38 -8t-30.5 -14q-8 -6 -13.5 -15.5t-8.5 -22t-5 -23.5t-2 -28v-29v-33v-30q96 -55 235 23q20 10 51 38.5t51.5 47t56.5 33t65 -3.5q33 -14 42 -53.5t-14 -86.5 q-43 -98 -171 -155.5t-298 -65.5q-20 -2 -96 15.5t-88 17.5q-27 2 -78 -13.5t-71 -15.5q-109 -10 -195 24.5t-115 112.5zM299 260q6 -47 66.5 -63.5t105.5 10.5q37 20 53.5 96t10.5 135q-78 29 -162 -32.5t-74 -145.5zM774 643q-2 -29 11.5 -40t52.5 -8t108 30 q33 12 64.5 48t27.5 64q-12 61 -118 47q-51 -8 -96.5 -44t-49.5 -97z" />
<glyph unicode="&#xe7;" horiz-adv-x="931" d="M104 279q-27 117 24.5 218t133.5 171q147 129 365 114q166 -12 172 -63q6 -39 -17.5 -81t-62.5 -50q-31 -8 -115 -10.5t-123 -12.5q-57 -12 -104 -54t-51 -101.5t45 -106.5t110 -61q18 -8 50 -5t45.5 5t45 10t50.5 12q133 25 164 -41q18 -49 8 -85t-29 -48 q-66 -43 -151.5 -55t-148 -19.5t-85.5 -38.5q18 -25 77.5 -55.5t87.5 -71t11 -114.5q-18 -78 -142 -119t-185 -29q-88 18 -84 88q2 31 34.5 47.5t70.5 20.5t68.5 17.5t30.5 39.5q0 29 -88 70t-90 80q-2 37 18.5 64.5t14.5 45.5q0 2 -32 28t-68 76.5t-50 113.5z" />
<glyph unicode="&#xe8;" horiz-adv-x="917" d="M84 1397q4 88 102 102q27 2 47.5 -6t50 -29.5t46.5 -29.5q25 -14 78 -46t98 -58.5t82 -45.5q8 -4 23.5 -12t21.5 -12.5t18.5 -11.5t18.5 -12t13 -12t12 -14.5t7 -15.5q16 -55 -11 -107.5t-58 -60.5q-8 -8 -30.5 -2t-31 6t-30 12.5t-26.5 16.5t-24.5 18.5t-23.5 16.5 q-59 41 -151.5 93t-135.5 79q-35 23 -49 34t-31.5 37.5t-15.5 59.5zM92 362q-55 252 49 396q37 70 99.5 124t124.5 72q150 55 270.5 5t185.5 -201q12 -20 27.5 -69.5t15.5 -74.5q4 -43 -22.5 -86t-67.5 -57q-31 -10 -105.5 -42t-127.5 -46q-143 -41 -197 -59 q12 -47 48 -67.5t112 -37.5q45 -10 89 0t69.5 24.5t58.5 20.5t55 -10q33 -37 31 -77t-31 -62q-80 -57 -205 -72.5t-204 25.5q-123 51 -178.5 109t-96.5 185zM295 614.5q-12 -67.5 4 -92.5q16 -2 57 6.5t96.5 23.5t79.5 19q37 8 73 32t44 48q-27 76 -74 108t-106 18.5 t-125 -66.5q-37 -29 -49 -96.5z" />
<glyph unicode="&#xe9;" horiz-adv-x="917" d="M92 362q-55 252 49 396q37 70 99.5 124t124.5 72q150 55 270.5 5t185.5 -201q12 -20 27.5 -69.5t15.5 -74.5q4 -43 -22.5 -86t-67.5 -57q-31 -10 -105.5 -42t-127.5 -46q-143 -41 -197 -59q12 -47 48 -67.5t112 -37.5q45 -10 89 0t69.5 24.5t58.5 20.5t55 -10 q33 -37 31 -77t-31 -62q-80 -57 -205 -72.5t-204 25.5q-123 51 -178.5 109t-96.5 185zM156 1077q-12 39 6 73t61 58.5t86 43t99.5 39t78.5 30.5q143 61 185 68q88 14 105.5 -54.5t-48.5 -126.5q-47 -33 -103.5 -58.5t-150.5 -57t-125 -43.5q-6 -2 -33.5 -13.5t-39 -15.5 t-35 -7t-35.5 2t-27.5 20t-23.5 42zM295 614.5q-12 -67.5 4 -92.5q16 -2 57 6.5t96.5 23.5t79.5 19q37 8 73 32t44 48q-27 76 -74 108t-106 18.5t-125 -66.5q-37 -29 -49 -96.5z" />
<glyph unicode="&#xea;" horiz-adv-x="917" d="M92 362q-55 252 49 396q37 70 99.5 124t124.5 72q150 55 270.5 5t185.5 -201q12 -20 27.5 -69.5t15.5 -74.5q4 -43 -22.5 -86t-67.5 -57q-31 -10 -105.5 -42t-127.5 -46q-143 -41 -197 -59q12 -47 48 -67.5t112 -37.5q45 -10 89 0t69.5 24.5t58.5 20.5t55 -10 q33 -37 31 -77t-31 -62q-80 -57 -205 -72.5t-204 25.5q-123 51 -178.5 109t-96.5 185zM139 1038q-20 27 0.5 93.5t44.5 105.5q47 76 128 151.5t126 71.5q98 -8 244 -139q123 -109 139 -193q8 -51 -28.5 -93t-90.5 -38q-29 2 -53 18.5t-35.5 30t-40.5 48.5q-4 6 -15 19 t-18.5 22.5t-18.5 21.5t-19 20.5t-17.5 16.5t-17.5 12t-14 4q-31 0 -82.5 -56t-75.5 -97q-31 -51 -78 -54.5t-78 35.5zM295 614.5q-12 -67.5 4 -92.5q16 -2 57 6.5t96.5 23.5t79.5 19q37 8 73 32t44 48q-27 76 -74 108t-106 18.5t-125 -66.5q-37 -29 -49 -96.5z" />
<glyph unicode="&#xeb;" horiz-adv-x="917" d="M92 362q-55 252 49 396q37 70 99.5 124t124.5 72q150 55 270.5 5t185.5 -201q12 -20 27.5 -69.5t15.5 -74.5q4 -43 -22.5 -86t-67.5 -57q-31 -10 -105.5 -42t-127.5 -46q-143 -41 -197 -59q12 -47 48 -67.5t112 -37.5q45 -10 89 0t69.5 24.5t58.5 20.5t55 -10 q33 -37 31 -77t-31 -62q-80 -57 -205 -72.5t-204 25.5q-123 51 -178.5 109t-96.5 185zM168 1171q6 47 39 79t76 40q88 16 100 -65q12 -76 -41 -140q-39 -45 -88 -38q-45 4 -68.5 37.5t-17.5 86.5zM295 614.5q-12 -67.5 4 -92.5q16 -2 57 6.5t96.5 23.5t79.5 19q37 8 73 32 t44 48q-27 76 -74 108t-106 18.5t-125 -66.5q-37 -29 -49 -96.5zM500.5 1109q-11.5 79 40.5 136q51 55 114 17q39 -25 51.5 -78.5t-18.5 -100.5t-100 -49q-76 -4 -87.5 75z" />
<glyph unicode="&#xec;" horiz-adv-x="495" d="M-109 1370q4 88 103 103q27 2 47 -6.5t50 -30t46 -29.5q25 -14 78 -46t98 -58.5t82 -45.5q8 -4 23.5 -12t21.5 -12t18.5 -11.5t18.5 -12.5t13.5 -12t12.5 -14t7 -16q16 -55 -11.5 -107t-58.5 -61q-8 -8 -30.5 -1.5t-30.5 6.5t-29.5 12t-27 16t-24.5 18.5t-24 16.5 q-59 41 -151 93t-135 79q-35 23 -49.5 34t-32 37.5t-15.5 59.5zM71 98.5q-1 12.5 0 35t2 34.5t5 41t6 39q4 35 51 424q6 49 13.5 79.5t21.5 67.5t38.5 56.5t59.5 21.5q27 4 65 -15.5t44 -56.5q2 -12 0 -29.5t-12.5 -53t-12.5 -48.5q-43 -219 -49 -364q-2 -18 -2 -77.5 t-4 -97.5t-12 -57q-23 -45 -89.5 -64.5t-105.5 17.5q-8 8 -13 21.5t-6 26z" />
<glyph unicode="&#xed;" horiz-adv-x="495" d="M-18 1049q-12 39 6 72.5t61 58t86 43t99.5 39t78.5 30.5q143 61 185 68q88 14 105.5 -54.5t-48.5 -125.5q-47 -33 -103.5 -58.5t-150.5 -57.5t-125 -44q-6 -2 -33.5 -13.5t-39 -15.5t-35 -7t-36 2t-27.5 20.5t-23 42.5zM71 98.5q-1 12.5 0 35t2 34.5t5 41t6 39 q4 35 51 424q6 49 13.5 79.5t21.5 67.5t38.5 56.5t59.5 21.5q27 4 65 -15.5t44 -56.5q2 -12 0 -29.5t-12.5 -53t-12.5 -48.5q-43 -219 -49 -364q-2 -18 -2 -77.5t-4 -97.5t-12 -57q-23 -45 -89.5 -64.5t-105.5 17.5q-8 8 -13 21.5t-6 26z" />
<glyph unicode="&#xee;" horiz-adv-x="495" d="M-68 993q-20 27 0.5 93.5t44.5 105.5q47 76 128 151.5t126 71.5q98 -8 244 -139q123 -109 139 -193q8 -51 -28.5 -93t-89.5 -38q-29 2 -53.5 18.5t-36 30t-39.5 48.5q-4 6 -15.5 19t-18.5 22.5t-18.5 21.5t-19.5 20.5t-17.5 16.5t-17.5 12t-14 4q-31 0 -82 -56t-76 -97 q-31 -51 -78 -54.5t-78 35.5zM71 98.5q-1 12.5 0 35t2 34.5t5 41t6 39q4 35 51 424q6 49 13.5 79.5t21.5 67.5t38.5 56.5t59.5 21.5q27 4 65 -15.5t44 -56.5q2 -12 0 -29.5t-12.5 -53t-12.5 -48.5q-43 -219 -49 -364q-2 -18 -2 -77.5t-4 -97.5t-12 -57q-23 -45 -89.5 -64.5 t-105.5 17.5q-8 8 -13 21.5t-6 26z" />

<glyph unicode="&#xef;" horiz-adv-x="495" d="M-10 1169q6 47 38.5 79t75.5 40q88 16 101 -65q12 -76 -41 -140q-39 -45 -88 -39q-45 4 -68.5 38t-17.5 87zM71 98.5q-1 12.5 0 35t2 34.5t5 41t6 39q4 35 51 424q6 49 13.5 79.5t21.5 67.5t38.5 56.5t59.5 21.5q27 4 65 -15.5t44 -56.5q2 -12 0 -29.5t-12.5 -53 t-12.5 -48.5q-43 -219 -49 -364q-2 -18 -2 -77.5t-4 -97.5t-12 -57q-23 -45 -89.5 -64.5t-105.5 17.5q-8 8 -13 21.5t-6 26zM322.5 1107q-11.5 79 39.5 136q51 55 115 17q39 -25 51.5 -78.5t-18.5 -100.5t-100 -49q-76 -4 -87.5 75z" />
<glyph unicode="&#xf1;" horiz-adv-x="944" d="M73 126q3 52 9 116q2 14 2 22q4 47 14.5 131t17.5 150.5t9 132.5q0 10 1 38.5t2 42t2 39t4 40t7 35t11.5 31.5t15.5 24.5t21.5 20.5t27.5 9q47 8 72.5 -12t33 -63t7.5 -89v-104q0 -57 6 -90q63 61 86 94q74 113 172 187q131 96 213 41q18 -10 38.5 -58.5t24.5 -97.5 q6 -78 -17.5 -271.5t-23.5 -252.5q0 -12 2.5 -38t2.5 -43.5t-5 -27.5q-20 -55 -98 -68.5t-115 39.5q-8 127 19 310q20 168 10 248q-18 -2 -34.5 -11.5t-33 -28t-26.5 -30.5t-27.5 -39t-23.5 -35q-47 -61 -67.5 -93t-42 -72t-40.5 -70q-6 -10 -40 -83t-63.5 -118t-53.5 -49 q-66 -14 -94.5 13.5t-25.5 79.5zM285 1073q-2 16 1 32.5t8 26t14 24.5t11 20q25 43 72 90q23 25 58.5 42t82 16t80.5 -32q10 -10 41 -68.5t60 -60.5q23 0 45 24.5t36.5 52.5t38 44t52.5 4q41 -20 33.5 -63t-31 -83t-51.5 -65q-135 -117 -244 -24q-16 12 -36.5 55t-41.5 47 q-18 2 -37.5 -11.5t-31 -26.5t-28 -36.5t-18.5 -27.5q-33 -35 -70.5 -27t-43.5 47z" />
<glyph unicode="&#xf2;" horiz-adv-x="956" d="M50 523.5q5 148.5 77 252.5q4 6 14.5 22.5t13.5 20.5t11 16.5t11 16.5t11.5 14.5t14.5 16.5t16 15t20.5 17.5t22.5 18.5q78 59 148 70q217 39 355 -76t144 -318q16 -117 -42 -228.5t-165 -188.5q-137 -90 -296 -72q-76 8 -156 48t-127 89q-78 117 -73 265.5zM152 1421 q4 88 102 103q27 2 47.5 -6.5t50 -30t45.5 -29.5q25 -14 78 -46t98 -58.5t82 -44.5q8 -4 23.5 -12.5t22 -12.5t18.5 -11t18 -12.5t13.5 -12.5t12.5 -14t7 -15q16 -55 -11.5 -107.5t-58.5 -60.5q-8 -8 -30.5 -2t-30.5 6t-29.5 12t-26.5 16t-24.5 18.5t-23.5 16.5 q-59 41 -151.5 93.5t-135.5 78.5q-35 23 -49.5 34t-31.5 37.5t-15 59.5zM272 473q12 -80 82 -126t166 -21q51 14 104.5 68.5t65.5 119.5q27 129 -47 224.5t-182 74.5q-82 -14 -143.5 -128t-45.5 -212z" />
<glyph unicode="&#xf3;" horiz-adv-x="956" d="M50 523.5q5 148.5 77 252.5q4 6 14.5 22.5t13.5 20.5t11 16.5t11 16.5t11.5 14.5t14.5 16.5t16 15t20.5 17.5t22.5 18.5q78 59 148 70q217 39 355 -76t144 -318q16 -117 -42 -228.5t-165 -188.5q-137 -90 -296 -72q-76 8 -156 48t-127 89q-78 117 -73 265.5zM172 1112 q-12 39 6.5 73t61.5 58.5t86 43t99 39t79 30.5q143 61 184 67q88 14 105.5 -54.5t-48.5 -125.5q-47 -33 -103 -58.5t-150.5 -57t-124.5 -44.5q-6 -2 -34 -13t-39 -15t-34.5 -7.5t-36 2t-28 20.5t-23.5 42zM272 473q12 -80 82 -126t166 -21q51 14 104.5 68.5t65.5 119.5 q27 129 -47 224.5t-182 74.5q-82 -14 -143.5 -128t-45.5 -212z" />
<glyph unicode="&#xf4;" horiz-adv-x="956" d="M50 523.5q5 148.5 77 252.5q4 6 14.5 22.5t13.5 20.5t11 16.5t11 16.5t11.5 14.5t14.5 16.5t16 15t20.5 17.5t22.5 18.5q78 59 148 70q217 39 355 -76t144 -318q16 -117 -42 -228.5t-165 -188.5q-137 -90 -296 -72q-76 8 -156 48t-127 89q-78 117 -73 265.5zM147 1079 q-20 27 0.5 93.5t45.5 105.5q47 76 127.5 151.5t125.5 71.5q98 -8 244 -139q123 -109 139 -193q8 -51 -28.5 -93t-89.5 -38q-29 2 -53.5 18.5t-36 30t-39.5 48.5q-4 6 -15.5 19t-18.5 22.5t-18.5 21.5t-19.5 20.5t-17.5 16.5t-17.5 12t-14 4q-31 0 -82 -56t-76 -97 q-31 -51 -78 -54.5t-78 35.5zM272 473q12 -80 82 -126t166 -21q51 14 104.5 68.5t65.5 119.5q27 129 -47 224.5t-182 74.5q-82 -14 -143.5 -128t-45.5 -212z" />
<glyph unicode="&#xf5;" horiz-adv-x="956" d="M50 523.5q5 148.5 77 252.5q4 6 14.5 22.5t13.5 20.5t11 16.5t11 16.5t11.5 14.5t14.5 16.5t16 15t20.5 17.5t22.5 18.5q78 59 148 70q217 39 355 -76t144 -318q16 -117 -42 -228.5t-165 -188.5q-137 -90 -296 -72q-76 8 -156 48t-127 89q-78 117 -73 265.5zM168 1124 q-2 16 1 33t8 26t14.5 24.5t11.5 19.5q25 43 71 90q23 25 59 42t82 16t81 -32q10 -10 40.5 -68t59.5 -61q23 0 45.5 25t36.5 52.5t37.5 44t52.5 3.5q41 -20 34 -63t-30.5 -83t-52.5 -65q-135 -117 -244 -24q-16 12 -36.5 55t-41.5 47q-18 2 -37.5 -11t-31 -26.5t-27.5 -37 t-18 -27.5q-33 -35 -71 -27t-44 47zM272 473q12 -80 82 -126t166 -21q51 14 104.5 68.5t65.5 119.5q27 129 -47 224.5t-182 74.5q-82 -14 -143.5 -128t-45.5 -212z" />
<glyph unicode="&#xf6;" horiz-adv-x="956" d="M50 523.5q5 148.5 77 252.5q4 6 14.5 22.5t13.5 20.5t11 16.5t11 16.5t11.5 14.5t14.5 16.5t16 15t20.5 17.5t22.5 18.5q78 59 148 70q217 39 355 -76t144 -318q16 -117 -42 -228.5t-165 -188.5q-137 -90 -296 -72q-76 8 -156 48t-127 89q-78 117 -73 265.5zM197 1227 q6 47 38.5 78.5t75.5 40.5q88 16 101 -66q12 -76 -41 -139q-39 -45 -88 -39q-45 4 -68.5 38t-17.5 87zM272 473q12 -80 82 -126t166 -21q51 14 104.5 68.5t65.5 119.5q27 129 -47 224.5t-182 74.5q-82 -14 -143.5 -128t-45.5 -212zM529.5 1164q-11.5 79 39.5 136 q51 55 115 17q39 -25 51.5 -78t-18.5 -100t-101 -49q-75 -5 -86.5 74z" />
<glyph unicode="&#xf8;" horiz-adv-x="1085" d="M113 541q47 135 135 213q109 94 270 108q10 0 58.5 -4t66.5 2q8 2 24.5 34t49.5 66.5t84 45.5q33 6 72.5 -9.5t52.5 -46.5q14 -41 -21 -93t-35 -79q0 -2 55.5 -85t63.5 -148q0 -55 4 -94t-9 -77t-19.5 -62.5t-28 -50t-34.5 -41t-39.5 -33t-42 -27.5t-44.5 -25 q-78 -43 -204 -54t-140 -20q-6 -4 -18.5 -40.5t-42 -71.5t-78.5 -41q-49 -8 -82 17.5t-37 62.5t15.5 73.5t19.5 59.5q0 35 -44 93t-48 67q-51 125 -4 260zM335 446.5q-7 -57.5 25 -94.5q18 16 38 47t39.5 68t27.5 49q55 88 65 137q-45 18 -91 -11.5t-71.5 -83.5 t-32.5 -111.5zM545 274q86 2 156.5 35t91.5 97q12 43 -7.5 102t-50.5 82q-35 -27 -93 -123.5t-97 -192.5z" />
<glyph unicode="&#xf9;" horiz-adv-x="876" d="M59 1380q4 88 103 103q27 2 47 -6.5t50 -30t46 -29.5q25 -14 78 -46t98 -58.5t82 -44.5q8 -4 23.5 -12.5t21.5 -12.5t18.5 -11t18.5 -12.5t13.5 -12.5t12.5 -14t7 -15q16 -55 -11.5 -107.5t-58.5 -60.5q-8 -8 -30.5 -2t-30.5 6t-29.5 12t-27 16.5t-25 18.5t-23.5 16 q-59 41 -151 93.5t-135 78.5q-35 23 -49.5 34t-32 37.5t-15.5 59.5zM74 600q4 74 11 118t26.5 93t60.5 70.5t104 19.5q37 -23 40 -78t-9 -100q-2 -18 -6 -59q-8 -61 -11 -95t-5 -93.5t7 -93.5t25.5 -67.5t52.5 -45t87 0.5q55 8 97 110.5t50 203.5q4 35 2 170t8 153 q12 43 69.5 61.5t84.5 -1.5q68 -39 61 -305q-4 -137 -38 -259q-53 -190 -163 -276t-321 -51q-205 49 -229 252q-10 88 -4 272z" />
<glyph unicode="&#xfa;" horiz-adv-x="876" d="M74 600q4 74 11 118t26.5 93t60.5 70.5t104 19.5q37 -23 40 -78t-9 -100q-2 -18 -6 -59q-8 -61 -11 -95t-5 -93.5t7 -93.5t25.5 -67.5t52.5 -45t87 0.5q55 8 97 110.5t50 203.5q4 35 2 170t8 153q12 43 69.5 61.5t84.5 -1.5q68 -39 61 -305q-4 -137 -38 -259 q-53 -190 -163 -276t-321 -51q-205 49 -229 252q-10 88 -4 272zM178 1087q-12 39 6.5 73t61.5 58.5t86 43t99 39t79 30.5q143 61 184 68q88 14 105.5 -54.5t-47.5 -125.5q-47 -33 -103.5 -58.5t-151 -57.5t-124.5 -44q-6 -2 -34 -13.5t-39 -15.5t-34.5 -7t-36 2t-28 20 t-23.5 42z" />
<glyph unicode="&#xfb;" horiz-adv-x="876" d="M74 600q4 74 11 118t26.5 93t60.5 70.5t104 19.5q37 -23 40 -78t-9 -100q-2 -18 -6 -59q-8 -61 -11 -95t-5 -93.5t7 -93.5t25.5 -67.5t52.5 -45t87 0.5q55 8 97 110.5t50 203.5q4 35 2 170t8 153q12 43 69.5 61.5t84.5 -1.5q68 -39 61 -305q-4 -137 -38 -259 q-53 -190 -163 -276t-321 -51q-205 49 -229 252q-10 88 -4 272zM106 1079q-20 27 0.5 93.5t45.5 105.5q47 76 127.5 151.5t126.5 71.5q98 -8 243 -139q123 -109 139 -193q8 -51 -28.5 -93t-89.5 -38q-29 2 -53.5 18.5t-36 30t-39.5 48.5q-4 6 -15.5 19t-18.5 22.5 t-18.5 21.5t-19.5 20.5t-17.5 16.5t-17.5 12t-14 4q-31 0 -82 -56t-76 -97q-31 -51 -78 -54.5t-78 35.5z" />
<glyph unicode="&#xfc;" horiz-adv-x="876" d="M74 600q4 74 11 118t26.5 93t60.5 70.5t104 19.5q37 -23 40 -78t-9 -100q-2 -18 -6 -59q-8 -61 -11 -95t-5 -93.5t7 -93.5t25.5 -67.5t52.5 -45t87 0.5q55 8 97 110.5t50 203.5q4 35 2 170t8 153q12 43 69.5 61.5t84.5 -1.5q68 -39 61 -305q-4 -137 -38 -259 q-53 -190 -163 -276t-321 -51q-205 49 -229 252q-10 88 -4 272zM219 1188q6 47 39 78.5t76 40.5q88 16 100 -66q12 -76 -41 -139q-39 -45 -88 -39q-45 4 -68.5 38t-17.5 87zM552 1125.5q-11 78.5 40 136.5q51 55 115 16q39 -25 51 -78t-18.5 -100t-100.5 -49 q-76 -4 -87 74.5z" />
<glyph unicode="&#xfd;" horiz-adv-x="921" d="M57 829q10 74 64.5 110t116.5 3q6 -4 12 -10t11 -17l9 -18q4 -8 8.5 -23.5t7.5 -24.5t7 -26.5t6 -25.5q113 -344 213 -478q12 20 92 293t123 324q12 16 32.5 26.5t44 12.5t46 -12.5t37.5 -47.5q31 -66 -81 -407.5t-226 -548.5q-8 -16 -60.5 -119.5t-95.5 -152.5 q-2 -2 -14.5 -17.5t-22.5 -28t-29.5 -31t-37 -30.5t-40 -24.5t-44 -15.5t-45 2t-46.5 22q-31 23 -36 48.5t11.5 51t36 46t46 42t33.5 29.5q109 121 145 285q2 29 -12.5 58.5t-39 65t-34.5 56.5q-18 41 -84 158.5t-94 201.5q-4 10 -20.5 50t-23.5 60.5t-13.5 53t-2.5 59.5z M256 1112q-12 39 6.5 73t61.5 58.5t86 43t99 39t79 30.5q143 61 184 67q88 14 105.5 -54.5t-48.5 -125.5q-47 -33 -103 -58.5t-150.5 -57t-124.5 -44.5q-6 -2 -34 -13t-39 -15t-35 -7.5t-36 2t-27.5 20.5t-23.5 42z" />
<glyph unicode="&#xff;" horiz-adv-x="921" d="M57 829q10 74 64.5 110t116.5 3q6 -4 12 -10t11 -17l9 -18q4 -8 8.5 -23.5t7.5 -24.5t7 -26.5t6 -25.5q113 -344 213 -478q12 20 92 293t123 324q12 16 32.5 26.5t44 12.5t46 -12.5t37.5 -47.5q31 -66 -81 -407.5t-226 -548.5q-8 -16 -60.5 -119.5t-95.5 -152.5 q-2 -2 -14.5 -17.5t-22.5 -28t-29.5 -31t-37 -30.5t-40 -24.5t-44 -15.5t-45 2t-46.5 22q-31 23 -36 48.5t11.5 51t36 46t46 42t33.5 29.5q109 121 145 285q2 29 -12.5 58.5t-39 65t-34.5 56.5q-18 41 -84 158.5t-94 201.5q-4 10 -20.5 50t-23.5 60.5t-13.5 53t-2.5 59.5z M244 1198q6 47 38.5 79t75.5 40q88 16 101 -66q12 -76 -41 -139q-39 -45 -88 -39q-45 4 -68.5 38t-17.5 87zM576.5 1135.5q-11.5 78.5 39.5 136.5q51 55 115 16q39 -25 51.5 -78t-18.5 -100t-100 -49q-76 -4 -87.5 74.5z" />
<glyph unicode="&#x152;" horiz-adv-x="1800" d="M104 385q-31 240 25.5 436.5t177.5 304.5q68 61 95.5 82t103.5 64q63 35 209 53q109 12 248 8q53 -2 167.5 0t190.5 2h57q31 0 64 -1t63.5 -2t59 -7t50 -14t36 -22.5t16.5 -35.5q14 -104 -49 -129q-57 -25 -169 -24.5t-202 10.5t-176 0q55 -63 88 -138t48.5 -122 t31.5 -57q43 -20 120 -21.5t151.5 6.5t133 -12.5t62.5 -79.5q8 -109 -80 -131q-41 -10 -186.5 -6t-173.5 -21q-33 -18 -47.5 -44.5t-26.5 -75t-25 -76.5q39 -35 126 -41t167 3t143.5 -9.5t67.5 -77.5q8 -119 -76 -139q-92 -18 -233 4q-25 2 -73 2t-75 4q-29 4 -101.5 17.5 t-104 16.5t-103.5 -1q-41 -4 -177 -44t-224 -34q-154 8 -228 65q-55 43 -107.5 125t-64.5 162zM342 465q23 -106 79 -172t152 -64q184 4 309.5 100.5t137.5 282.5q12 199 -168 394q-106 111 -184 100q-72 -10 -137.5 -48t-96.5 -87q-49 -76 -80.5 -234.5t-11.5 -271.5z" />
<glyph unicode="&#x153;" horiz-adv-x="1271" d="M59 332q-14 147 33 295.5t127 218.5q20 18 61.5 42.5t65.5 29.5q25 6 96.5 1.5t87.5 -1.5q12 2 78 30.5t140 34.5q92 8 195.5 -35t161.5 -137t9 -205q-35 -76 -124 -123t-191 -55q-51 -4 -75 -48t-17 -91q2 -45 47 -74t84 -18q72 20 182 147q51 61 103.5 64.5t70.5 -52.5 q14 -37 -19.5 -98t-74.5 -106q-158 -178 -346 -160q-55 6 -144 47q-18 10 -43.5 26.5t-46 27.5t-41.5 13q-27 4 -91 -4t-146 4q-72 12 -122.5 78t-60.5 148zM255 410.5q7 -105.5 50 -113.5q31 -6 56.5 -7t60.5 12t57.5 46t36.5 101.5t8 168.5q-2 29 -50 65t-83 36 q-66 0 -104.5 -101.5t-31.5 -207zM692 770q-14 -49 15 -160q63 -10 146 15.5t83 70.5q2 55 -89.5 77t-154.5 -3z" />
<glyph unicode="&#x178;" horiz-adv-x="1193" d="M31 1309q0 68 74.5 126t136.5 17q10 -6 22 -28.5t20.5 -43t20.5 -49t14 -35.5q45 -88 78 -161q16 -37 44 -111t51.5 -120t58.5 -81q25 12 44 35t40.5 59.5t30.5 49.5q137 197 208 293q41 51 62 83q61 92 63 95q18 14 50 19t66 -11t44 -53q8 -27 -4 -60t-27.5 -54.5 t-42 -51t-28.5 -33.5q-37 -47 -100.5 -125t-105.5 -134t-93 -134q-31 -47 -64 -107q-55 -84 -61 -114q-10 -43 -17 -187q-2 -59 -18 -215q-12 -123 -16 -139q-12 -31 -52.5 -55.5t-87.5 -20.5q-35 4 -53 35t-19 80t2 95t11 101.5t8 77.5q10 184 -22 275q-8 23 -35 65.5 t-37 65.5q-18 53 -71.5 144t-69.5 126q-18 39 -68 137q-6 10 -19.5 35t-19.5 38t-12 34t-6 37zM354 1620q6 47 39 79t76 40q88 16 100 -66q12 -76 -41 -139q-39 -45 -88 -39q-45 4 -68.5 38t-17.5 87zM687 1557.5q-11 78.5 40 136.5q51 55 115 16q39 -25 51 -78t-18.5 -100 t-100.5 -49q-76 -4 -87 74.5z" />

<glyph unicode="&#x2c6;" horiz-adv-x="837" d="M94 1079q-20 27 0.5 93.5t44.5 105.5q47 76 128 151.5t126 71.5q98 -8 244 -139q123 -109 139 -193q8 -51 -28.5 -93t-90.5 -38q-29 2 -53 18.5t-35.5 30t-40.5 48.5q-4 6 -15 19t-18.5 22.5t-18.5 21.5t-19 20.5t-17.5 16.5t-17.5 12t-14 4q-31 0 -82.5 -56t-75.5 -97 q-31 -51 -78 -54.5t-78 35.5z" />
<glyph unicode="&#x2dc;" horiz-adv-x="847" d="M109 1108q-2 16 1 32.5t8 26t14 24.5t11 19q25 43 72 90q23 25 58.5 42.5t81.5 16.5t81 -32q10 -10 41 -68.5t60 -60.5q23 0 45 24.5t36.5 52.5t38 44t52.5 4q41 -20 33.5 -63t-31 -83t-52.5 -65q-135 -117 -243 -25q-16 12 -37 55.5t-41 47.5q-18 2 -37.5 -11.5 t-31 -26.5t-28 -36.5t-18.5 -28.5q-33 -35 -70.5 -26.5t-43.5 47.5z" />
<glyph unicode="&#x2000;" horiz-adv-x="1015" />
<glyph unicode="&#x2001;" horiz-adv-x="2033" />
<glyph unicode="&#x2002;" horiz-adv-x="1015" />
<glyph unicode="&#x2003;" horiz-adv-x="2033" />
<glyph unicode="&#x2004;" horiz-adv-x="677" />
<glyph unicode="&#x2005;" horiz-adv-x="507" />
<glyph unicode="&#x2006;" horiz-adv-x="337" />
<glyph unicode="&#x2007;" horiz-adv-x="337" />
<glyph unicode="&#x2008;" horiz-adv-x="253" />
<glyph unicode="&#x2009;" horiz-adv-x="405" />
<glyph unicode="&#x200a;" horiz-adv-x="112" />
<glyph unicode="&#x2010;" horiz-adv-x="1067" d="M55 557q0 88 115 100q41 6 360 7q27 0 124.5 3t156.5 0t96 -14q53 -16 77 -74.5t-1 -117.5q-8 -18 -35.5 -31.5t-78 -20t-83 -8.5t-99 -3t-79.5 -1q-403 -12 -477 17q-37 12 -57.5 53t-18.5 90z" />
<glyph unicode="&#x2011;" horiz-adv-x="1067" d="M55 557q0 88 115 100q41 6 360 7q27 0 124.5 3t156.5 0t96 -14q53 -16 77 -74.5t-1 -117.5q-8 -18 -35.5 -31.5t-78 -20t-83 -8.5t-99 -3t-79.5 -1q-403 -12 -477 17q-37 12 -57.5 53t-18.5 90z" />
<glyph unicode="&#x2012;" horiz-adv-x="1067" d="M55 557q0 88 115 100q41 6 360 7q27 0 124.5 3t156.5 0t96 -14q53 -16 77 -74.5t-1 -117.5q-8 -18 -35.5 -31.5t-78 -20t-83 -8.5t-99 -3t-79.5 -1q-403 -12 -477 17q-37 12 -57.5 53t-18.5 90z" />
<glyph unicode="&#x2013;" horiz-adv-x="1366" d="M92 571q2 20 13.5 36t32 26t41 18t52 11.5t55 5.5t59.5 2h55q19 0 54 -2t46 -2q215 -6 485 -7q156 4 225 -18q51 -16 66.5 -85t-6.5 -99q-4 -8 -15.5 -15.5t-27.5 -11.5l-33 -8q-16 -4 -41 -5t-42 -3t-46 -2h-43h-41h-35q-8 0 -301 -5.5t-360 -0.5q-84 8 -144 32 q-37 16 -46 48t-3 85z" />

<glyph unicode="&#x2014;" horiz-adv-x="1613" d="M110.5 588q14.5 51 55.5 61q158 39 422 25q98 -6 596 -6q10 0 57 1t79 1t73 -4t65 -13q43 -14 61.5 -69.5t4.5 -110.5q-2 -12 -13.5 -23.5t-32 -18.5t-42 -12t-54 -8t-56 -5.5t-62.5 -2.5h-61h-59h-52q-23 0 -672 11q-18 0 -67.5 -2t-86.5 -2t-59 6q-59 14 -85 67.5 t-11.5 104.5z" />
<glyph unicode="&#x2018;" horiz-adv-x="931" d="M97 975q-3 94 18.5 180t73 154.5t118.5 85.5q37 10 94 -27q41 -43 35 -94t-36.5 -97.5t-46 -112t2.5 -134.5q8 -29 50.5 -97.5t46.5 -93.5q6 -49 -29 -91t-74 -50q-55 -10 -123.5 68.5t-95.5 144.5q-31 70 -34 164z" />
<glyph unicode="&#x2019;" horiz-adv-x="602" d="M168 774q-8 31 7 70t43 85t36 66q12 35 14 101.5t-8 109.5q-8 35 -45 107.5t-35 116.5q2 47 44 76.5t89 37.5q59 8 105.5 -66.5t68 -180t15.5 -203.5q-8 -123 -62.5 -232.5t-120.5 -138.5q-51 -20 -96 -2t-55 53z" />
<glyph unicode="&#x201a;" horiz-adv-x="546" d="M113 63q-8 31 7 70t42.5 85t36.5 67q12 35 14 101.5t-8 109.5q-8 35 -45 107.5t-35 115.5q2 47 44 76.5t89 38.5q59 8 105.5 -67t68 -180.5t14.5 -203.5q-8 -123 -62 -232.5t-120 -138.5q-51 -20 -96 -2t-55 53z" />
<glyph unicode="&#x201c;" horiz-adv-x="931" d="M97 975q-3 94 18.5 180t73 154.5t118.5 85.5q37 10 94 -27q41 -43 35 -94t-36.5 -97.5t-46 -112t2.5 -134.5q8 -29 50.5 -97.5t46.5 -93.5q6 -49 -29 -91t-74 -50q-55 -10 -123.5 68.5t-95.5 144.5q-31 70 -34 164zM512 934q-8 172 45 302t152 161q14 6 62 -2.5t56 -26.5 q25 -49 16 -102.5t-32 -87t-43 -95t-16 -125t51 -132t49 -89.5q2 -37 -28.5 -75.5t-65.5 -49.5q-92 -27 -166 89t-80 233z" />
<glyph unicode="&#x201d;" horiz-adv-x="962" d="M116.5 603q-16.5 36 0 80t53.5 83q6 8 30.5 34.5t37 44t20.5 34.5q20 45 24.5 106.5t-10.5 97.5q-14 39 -57 95.5t-45 97.5q-2 51 30.5 86t84.5 49q76 23 149 -94q55 -86 70 -168q23 -125 -14 -254t-107 -209q-113 -131 -195 -123q-55 4 -71.5 40zM528 651q-8 31 7.5 70 t43 85t35.5 66q12 35 14.5 101.5t-7.5 109.5q-8 35 -45 108t-35 116q2 47 44 76.5t89 37.5q59 8 105 -66.5t67.5 -180t15.5 -203.5q-8 -123 -62.5 -232.5t-119.5 -138.5q-51 -20 -96.5 -2t-55.5 53z" />
<glyph unicode="&#x201e;" horiz-adv-x="962" d="M116.5 19.5q-16.5 35.5 0 79.5t53.5 83q6 8 30.5 35t37 44.5t20.5 33.5q20 45 24.5 106.5t-10.5 98.5q-14 39 -57 95t-45 97q-2 51 30.5 86t84.5 49q76 23 149 -94q55 -86 70 -168q23 -125 -14 -254t-107 -209q-113 -131 -195 -122q-55 4 -71.5 39.5zM528 68 q-8 31 7.5 69.5t43 84.5t35.5 67q12 35 14.5 101.5t-7.5 109.5q-8 35 -45 107.5t-35 115.5q2 47 44 76.5t89 38.5q59 8 105 -67t67.5 -180.5t15.5 -203.5q-8 -123 -62.5 -232.5t-119.5 -138.5q-51 -20 -96.5 -1.5t-55.5 53.5z" />
<glyph unicode="&#x2022;" horiz-adv-x="745" d="M86 451q14 123 105.5 208.5t207.5 96.5q129 10 204 -52.5t67 -187.5q-6 -84 -65.5 -154.5t-139.5 -107.5t-170 -36t-152 52q-71 60 -57 181z" />
<glyph unicode="&#x2026;" horiz-adv-x="495" d="M82 51q-4 90 62.5 189.5t179.5 74.5q55 -29 73.5 -90t2 -122.5t-62.5 -108.5t-106 -49q-49 -2 -98 28.5t-51 77.5zM586 51q-4 90 62.5 189.5t178.5 74.5q55 -29 74 -90t2.5 -122.5t-62.5 -108.5t-106 -49q-49 -2 -98 28.5t-51 77.5zM1087 51q-4 90 63 189.5t179 74.5 q55 -29 73.5 -90t2.5 -122.5t-62.5 -108.5t-105.5 -49q-49 -2 -98.5 28.5t-51.5 77.5z" />
<glyph unicode="&#x202f;" horiz-adv-x="405" />
<glyph unicode="&#x2039;" horiz-adv-x="712" d="M133 537q2 23 35 56.5t61 49.5q137 78 289 137q31 10 70 -12.5t43 -48.5q8 -47 -54.5 -91t-129 -74t-66.5 -38q0 -4 60.5 -33.5t124 -70.5t67.5 -74q6 -43 -27 -76t-88 -26q-31 2 -92 34q-2 0 -36 20.5t-53.5 33t-56 37t-58 44t-46 44t-35 47.5t-8.5 41z" />
<glyph unicode="&#x203a;" horiz-adv-x="776" d="M82 737q2 45 49 82t88 37q51 -8 106.5 -38t118 -74t88.5 -58q90 -57 113 -98q27 -49 2 -111q-6 -16 -16 -30.5t-27.5 -29t-29 -24.5t-38 -25.5t-38 -22.5t-43 -24.5t-39.5 -21.5q-12 -6 -44 -26.5t-53.5 -32t-49 -21.5t-46.5 -8q-31 2 -55.5 26.5t-30.5 51.5 q-12 51 30 93t108.5 80t84.5 62q-16 27 -148 102.5t-130 110.5z" />
<glyph unicode="&#x205f;" horiz-adv-x="507" />
<glyph unicode="&#x20ac;" horiz-adv-x="1396" d="M72 782q-10 92 55 136q20 12 118.5 17t119.5 15q96 172 237 298t316 155q94 20 228 -5.5t148 -82.5q8 -35 -20.5 -77t-61.5 -50q-35 -16 -121.5 -4t-113.5 10q-80 12 -207 -80t-125 -143q10 -12 161.5 -5t194.5 -28q37 -104 9 -135q-37 -27 -114 -39t-175 -18.5 t-141 -14.5q-8 -14 -5 -46t9 -48q4 -14 141 -9t162 -38q12 -59 9 -93t-38 -59q-31 -20 -121 -23t-102 -9q37 -94 166 -125t235 18q23 8 60 31.5t53 27.5q80 27 117 -16t24.5 -107.5t-59.5 -99.5q-35 -27 -125 -56.5t-152 -37.5q-227 -29 -387.5 63.5t-226.5 288.5 q-133 -20 -213 15q-41 31 -41 77.5t29 85.5q27 16 103.5 22.5t98.5 14.5q10 6 12.5 18.5t-0.5 34t-3 29.5q-20 12 -85 15.5t-115 18.5t-54 58z" />
<glyph unicode="&#x2122;" horiz-adv-x="1736" d="M100 1206q-39 147 136 183q43 8 249 18q12 2 23 2q84 4 177 -10.5t110 -55.5q18 -51 -16 -108t-93 -66q-14 -2 -63.5 -1t-65.5 -9q-18 -47 -24.5 -180t-36 -209t-115.5 -59q-51 10 -62.5 64t3 121t15.5 136.5t-24 108.5q-29 -2 -63.5 -1t-65 5t-53.5 19t-31 42zM740 806 q-1 30 1 60.5t14.5 70.5t20.5 65.5t20.5 58.5t14.5 37q27 76 41 109.5t46 83.5t80 68.5t114 12.5q41 -4 80.5 -67.5t46.5 -63.5q23 -2 66.5 43t60.5 53q29 14 54 21.5t45.5 3.5t36 -9t30 -24.5t23.5 -32t20.5 -42t15.5 -44t15 -51.5t16 -49q33 -92 47 -143q10 -37 14 -77 t0 -80t-28.5 -66.5t-65.5 -26.5q-53 -2 -83 38t-39 91t-28.5 108.5t-50.5 83.5q-27 -23 -47.5 -73t-33.5 -89.5t-51 -66.5t-101 -18q-41 20 -64.5 121.5t-52.5 125.5q-37 -27 -60.5 -108.5t-56.5 -139t-100 -51.5q-29 2 -44.5 19.5t-16.5 47.5z" />
<glyph unicode="&#xe000;" horiz-adv-x="950" d="M0 950h950v-950h-950v950z" />
<glyph unicode="&#xfb01;" horiz-adv-x="1374" d="M1005 98q-1 6 -1 15t1 20q1 23 2 35t5 41t6 39q4 35 51 424q29 215 144 225q5 1 9 1q24 0 55 -16q38 -19 44 -57q2 -12 0 -29.5t-12 -53t-12 -48.5q-43 -219 -49 -364q-2 -18 -2 -77.5t-4.5 -97.5t-12.5 -57q-23 -45 -94 -64q-25 -7 -46 -7q-40 0 -65 24q-8 8 -13 21.5 t-6 25.5zM1133 1112q0 5 -1 11q0 39 26 73q30 39 73 49q16 3 30 3q36 0 62 -18q37 -26 39 -81q0 -59 -54 -92q-37 -22 -75 -23q-18 0 -37 5q-57 16 -63 73zM27 625q6 35 41.5 57.5t78.5 24.5q12 2 19.5 0t12.5 -1t7 0t4 1l4 3q1 1 4 6t7 11q8 10 10 41t0 60.5t2 54.5 q27 254 88 397q51 121 115.5 190.5t167.5 92.5q33 7 63 7q144 0 226 -161q29 -57 37 -120q4 -24 4 -43q0 -29 -9 -46q-12 -41 -53 -57q-23 -9 -46 -10q-17 0 -34 6q-10 0 -20.5 6t-18.5 20.5t-13 23.5t-13.5 28.5t-10.5 25.5t-13 34t-18 41t-22.5 27.5t-36.5 14.5 q-41 0 -72.5 -50t-44 -99.5t-26.5 -118.5q-2 -16 -4 -23q-14 -68 -20 -185q-1 -24 -1 -45q0 -85 17 -134q25 -10 65 -10h22q9 0 18 1q48 0 98 -14q33 -10 49 -40t15 -60.5t-17.5 -56t-42.5 -31.5q-23 -4 -103 -7.5t-114 -21.5q-11 -23 -11 -143v-42v-35q0 -131 -14 -186 q-14 -39 -58 -53q-23 -7 -46 -7q-21 0 -41 6q-43 13 -52 46q-11 43 -11 149q0 30 1 66t1 66q0 107 -11 155q-31 8 -57.5 9.5t-38 1.5t-28.5 10t-42 35q-19 20 -19 50q0 15 5 32z" />

<glyph unicode="&#xfb02;" horiz-adv-x="1392" d="M1015 108q3 50 9 96t15.5 100t11.5 75q63 559 74 680q2 25 6 103.5t9 115.5t18.5 93t40 86t65.5 42q23 4 40 5h3q16 0 26 -11q11 -12 18 -23.5t9 -35t2 -42t-3 -47t-5 -49t-5 -47t-5 -43.5q-12 -180 -43 -482t-39 -396q-20 -207 -43 -265q-20 -51 -75 -82 q-30 -17 -56 -18q-22 0 -41 12q-20 10 -28 47q-5 25 -5 57q0 14 1 29zM27 625q6 35 41.5 57.5t78.5 24.5q12 2 19.5 0t12.5 -1t7 0t4 1l4 3q1 1 4 6t7 11q8 10 10 41t0 60.5t2 54.5q27 254 88 397q51 121 115.5 190.5t167.5 92.5q33 7 63 7q144 0 226 -161q29 -57 37 -120 q4 -24 4 -43q0 -29 -9 -46q-12 -41 -53 -57q-23 -9 -46 -10q-17 0 -34 6q-10 0 -20.5 6t-18.5 20.5t-13 23.5t-13.5 28.5t-10.5 25.5t-13 34t-18 41t-22.5 27.5t-36.5 14.5q-41 0 -72.5 -50t-44 -99.5t-26.5 -118.5q-2 -16 -4 -23q-14 -68 -20 -185q-1 -24 -1 -45 q0 -85 17 -134q25 -10 65 -10h22q9 0 18 1q48 0 98 -14q33 -10 49 -40t15 -60.5t-17.5 -56t-42.5 -31.5q-23 -4 -103 -7.5t-114 -21.5q-11 -23 -11 -143v-42v-35q0 -131 -14 -186q-14 -39 -58 -53q-23 -7 -46 -7q-21 0 -41 6q-43 13 -52 46q-11 43 -11 149q0 30 1 66t1 66 q0 107 -11 155q-31 8 -57.5 9.5t-38 1.5t-28.5 10t-42 35q-19 20 -19 50q0 15 5 32z" />
<glyph unicode="&#xfb03;" horiz-adv-x="2340" d="M1971 98q-1 6 -1 15t1 20q1 23 2 35t5 41t6 39q4 35 51 424q29 215 144 225q5 1 9 1q24 0 55 -16q38 -19 44 -57q2 -12 0 -29.5t-12 -53t-12 -48.5q-43 -219 -49 -364q-2 -18 -2 -77.5t-4.5 -97.5t-12.5 -57q-23 -45 -94 -64q-25 -7 -46 -7q-40 0 -65 24q-8 8 -13 21.5 t-6 25.5zM2099 1112q0 5 -1 11q0 39 26 73q30 39 73 49q16 3 30 3q36 0 62 -18q37 -26 39 -81q0 -59 -54 -92q-37 -22 -75 -23q-18 0 -37 5q-57 16 -63 73zM994 625q6 35 41.5 57.5t78.5 24.5q12 2 19.5 0t12.5 -1t7 0t4 1l4 3q1 1 4 6t7 11q8 10 10 41t0 60.5t2 54.5 q27 254 88 397q51 121 115.5 190.5t167.5 92.5q33 7 63 7q144 0 226 -161q29 -57 37 -120q4 -24 4 -43q0 -29 -9 -46q-12 -41 -53 -57q-23 -9 -46 -10q-17 0 -34 6q-10 0 -20.5 6t-18.5 20.5t-13 23.5t-13.5 28.5t-10.5 25.5t-13 34t-18 41t-22.5 27.5t-36.5 14.5 q-41 0 -72.5 -50t-44 -99.5t-26.5 -118.5q-2 -16 -4 -23q-14 -68 -20 -185q-1 -24 -1 -45q0 -85 17 -134q25 -10 65 -10h22q9 0 18 1q48 0 98 -14q33 -10 49 -40t15 -60.5t-17.5 -56t-42.5 -31.5q-23 -4 -103 -7.5t-114 -21.5q-11 -23 -11 -143v-42v-35q0 -131 -14 -186 q-14 -39 -58 -53q-23 -7 -46 -7q-21 0 -41 6q-43 13 -52 46q-11 43 -11 149q0 30 1 66t1 66q0 107 -11 155q-31 8 -57.5 9.5t-38 1.5t-28.5 10t-42 35q-19 20 -19 50q0 15 5 32zM27 625q6 35 41.5 57.5t78.5 24.5q12 2 19.5 0t12.5 -1t7 0t4 1l4 3q1 1 4 6t7 11q8 10 10 41 t0 60.5t2 54.5q27 254 88 397q51 121 115.5 190.5t167.5 92.5q33 7 63 7q144 0 226 -161q29 -57 37 -120q4 -24 4 -43q0 -29 -9 -46q-12 -41 -53 -57q-23 -9 -46 -10q-17 0 -34 6q-10 0 -20.5 6t-18.5 20.5t-13 23.5t-13.5 28.5t-10.5 25.5t-13 34t-18 41t-22.5 27.5 t-36.5 14.5q-41 0 -72.5 -50t-44 -99.5t-26.5 -118.5q-2 -16 -4 -23q-14 -68 -20 -185q-1 -24 -1 -45q0 -85 17 -134q25 -10 65 -10h22q9 0 18 1q48 0 98 -14q33 -10 49 -40t15 -60.5t-17.5 -56t-42.5 -31.5q-23 -4 -103 -7.5t-114 -21.5q-11 -23 -11 -143v-42v-35 q0 -131 -14 -186q-14 -39 -58 -53q-23 -7 -46 -7q-21 0 -41 6q-43 13 -52 46q-11 43 -11 149q0 30 1 66t1 66q0 107 -11 155q-31 8 -57.5 9.5t-38 1.5t-28.5 10t-42 35q-19 20 -19 50q0 15 5 32z" />
<glyph unicode="&#xfb04;" horiz-adv-x="2359" d="M1981 108q3 50 9 96t15.5 100t11.5 75q63 559 74 680q2 25 6 103.5t9 115.5t18.5 93t40 86t65.5 42q23 4 40 5h3q16 0 26 -11q11 -12 18 -23.5t9 -35t2 -42t-3 -47t-5 -49t-5 -47t-5 -43.5q-12 -180 -43 -482t-39 -396q-20 -207 -43 -265q-20 -51 -75 -82 q-30 -17 -56 -18q-22 0 -41 12q-20 10 -28 47q-5 25 -5 57q0 14 1 29zM994 625q6 35 41.5 57.5t78.5 24.5q12 2 19.5 0t12.5 -1t7 0t4 1l4 3q1 1 4 6t7 11q8 10 10 41t0 60.5t2 54.5q27 254 88 397q51 121 115.5 190.5t167.5 92.5q33 7 63 7q144 0 226 -161q29 -57 37 -120 q4 -24 4 -43q0 -29 -9 -46q-12 -41 -53 -57q-23 -9 -46 -10q-17 0 -34 6q-10 0 -20.5 6t-18.5 20.5t-13 23.5t-13.5 28.5t-10.5 25.5t-13 34t-18 41t-22.5 27.5t-36.5 14.5q-41 0 -72.5 -50t-44 -99.5t-26.5 -118.5q-2 -16 -4 -23q-14 -68 -20 -185q-1 -24 -1 -45 q0 -85 17 -134q25 -10 65 -10h22q9 0 18 1q48 0 98 -14q33 -10 49 -40t15 -60.5t-17.5 -56t-42.5 -31.5q-23 -4 -103 -7.5t-114 -21.5q-11 -23 -11 -143v-42v-35q0 -131 -14 -186q-14 -39 -58 -53q-23 -7 -46 -7q-21 0 -41 6q-43 13 -52 46q-11 43 -11 149q0 30 1 66t1 66 q0 107 -11 155q-31 8 -57.5 9.5t-38 1.5t-28.5 10t-42 35q-19 20 -19 50q0 15 5 32zM27 625q6 35 41.5 57.5t78.5 24.5q12 2 19.5 0t12.5 -1t7 0t4 1l4 3q1 1 4 6t7 11q8 10 10 41t0 60.5t2 54.5q27 254 88 397q51 121 115.5 190.5t167.5 92.5q33 7 63 7q144 0 226 -161 q29 -57 37 -120q4 -24 4 -43q0 -29 -9 -46q-12 -41 -53 -57q-23 -9 -46 -10q-17 0 -34 6q-10 0 -20.5 6t-18.5 20.5t-13 23.5t-13.5 28.5t-10.5 25.5t-13 34t-18 41t-22.5 27.5t-36.5 14.5q-41 0 -72.5 -50t-44 -99.5t-26.5 -118.5q-2 -16 -4 -23q-14 -68 -20 -185 q-1 -24 -1 -45q0 -85 17 -134q25 -10 65 -10h22q9 0 18 1q48 0 98 -14q33 -10 49 -40t15 -60.5t-17.5 -56t-42.5 -31.5q-23 -4 -103 -7.5t-114 -21.5q-11 -23 -11 -143v-42v-35q0 -131 -14 -186q-14 -39 -58 -53q-23 -7 -46 -7q-21 0 -41 6q-43 13 -52 46q-11 43 -11 149 q0 30 1 66t1 66q0 107 -11 155q-31 8 -57.5 9.5t-38 1.5t-28.5 10t-42 35q-19 20 -19 50q0 15 5 32z" />
</font>
</defs>
</svg>
