<?xml version="1.0" encoding="utf-8"?>
<svg version="1.2" baseProfile="tiny" id="Layer_1" xmlns="http://www.w3.org/2000/svg" xmlns:xlink="http://www.w3.org/1999/xlink"
	 x="0px" y="0px" width="54.959px" height="54.133px" viewBox="0 0 54.959 54.133" xml:space="preserve">
<path fill="#FFFFFF" d="M12.377,54.133c0,0-9.51-6.318-11.239-8.556c-1.729-2.238-1.105-9.7-0.595-11.272
	c0.509-1.57,5.245,4.965,9.9,5.847c0,0,3.968,0.508,3.889-0.356c-0.079-0.863-6.026-27.765,2.333-38.768
	c0,0,1.648-3.418,1.946,2.218c0.298,5.635,5.638,35.425,5.638,35.425s4.42,3.08,5.089,3.237c0.667,0.156,8.994,0.701,3.871,4.221
	c0,0,8.388,3.588,9.684,3.47c1.296-0.119,8.504,0.093,11.017-1.009c2.514-1.101,0.927,5.361-9.307,3.03S28.714,49.37,28.714,49.37
	s-9.722,0.89-12-0.209C14.436,48.063,12.377,54.133,12.377,54.133z"/>
</svg>
