<?xml version="1.0" encoding="utf-8"?>
<!-- Generator: Adobe Illustrator 14.0.0, SVG Export Plug-In . SVG Version: 6.00 Build 43363)  -->
<svg version="1.2" baseProfile="tiny" id="Layer_1" xmlns="http://www.w3.org/2000/svg" xmlns:xlink="http://www.w3.org/1999/xlink"
	 x="0px" y="0px" width="19.01px" height="77.865px" viewBox="0 0 19.01 77.865" xml:space="preserve">
<path d="M4.751,31.993c0,0,2.069,2.788,3.153,2.793S0.282,23.425,9.64,0c0,0-0.971,3.423,0.593,11.717
	c1.563,8.295,5.506,18.336,5.106,19.982c-0.399,1.647,2.734-0.681,3.291,0.797c0.56,1.479,0.99,1.697-2.455,5.064
	c-3.442,3.364-8.359,32.41-8.203,35.533c0.158,3.125-0.24,4.771-0.24,4.771s-5.022-19.506-1.63-29.855c0,0-3.084,0.939-3.748,3.32
	C1.693,53.713-3.823,37.546,4.751,31.993z"/>
</svg>
