<?xml version="1.0" encoding="utf-8"?>
<!-- Generator: Adobe Illustrator 14.0.0, SVG Export Plug-In . SVG Version: 6.00 Build 43363)  -->
<svg version="1.2" baseProfile="tiny" id="Layer_1" xmlns="http://www.w3.org/2000/svg" xmlns:xlink="http://www.w3.org/1999/xlink"
	 x="0px" y="0px" width="27.479px" height="52.371px" viewBox="0 0 27.479 52.371" xml:space="preserve">
<path fill="#FFFFFF" d="M18.484,1.763c0,0-1.605,7.713,2.25,14.461c3.854,6.746,1.928,9.317,1.928,9.317l2.25,0.322
	c0,0,1.446,1.125,0.963,2.249c-0.481,1.125-2.731,3.052-2.892,4.177c-0.161,1.125-4.659,13.978-7.552,20.083
	c0,0-3.693-11.728,0.483-18.155c0,0-3.215-0.001-4.178,0.642c-0.964,0.645-1.927,1.287-2.893,2.572
	c-0.964,1.284,0-1.607-0.643-2.893c-0.642-1.283-7.871-8.514-8.192-9.157c-0.321-0.643,7.39,2.571,7.711,3.213
	c0.322,0.643,6.104,0.964,7.068,0S10.13,7.869,18.484,1.763z"/>
</svg>
