<?xml version="1.0" encoding="utf-8"?>
<!-- Generator: Adobe Illustrator 14.0.0, SVG Export Plug-In . SVG Version: 6.00 Build 43363)  -->
<svg version="1.2" baseProfile="tiny" id="Layer_1" xmlns="http://www.w3.org/2000/svg" xmlns:xlink="http://www.w3.org/1999/xlink"
	 x="0px" y="0px" width="32.407px" height="35.575px" viewBox="0 0 32.407 35.575" xml:space="preserve">
<path fill="#FFFFFF" d="M12.451,27.766c0,0-2.604-1.302-3.471-0.435c-0.868,0.868-1.52,2.604-1.52,2.604s-4.338-1.951-5.422-4.121
	c-1.086-2.17-2.387-5.423-1.953-6.941s4.99,4.988,7.158,3.254c2.17-1.736-0.867-2.17-1.734-4.989C4.641,14.316,5.292,3.254,7.895,0
	c0,0-0.001,15.184,8.46,22.993c0,0,2.819,0.434,3.471,1.519c0.65,1.085-0.868,2.386-1.735,1.952c0,0,5.64,8.678,14.317,9.111
	C32.407,35.575,30.237,40.13,12.451,27.766z"/>
</svg>
