<?xml version="1.0" encoding="utf-8"?>
<!-- Generator: Adobe Illustrator 14.0.0, SVG Export Plug-In . SVG Version: 6.00 Build 43363)  -->
<svg version="1.2" baseProfile="tiny" id="Layer_1" xmlns="http://www.w3.org/2000/svg" xmlns:xlink="http://www.w3.org/1999/xlink"
	 x="0px" y="0px" width="18.051px" height="32.764px" viewBox="0 0 18.051 32.764" xml:space="preserve">
<path fill="#FFFFFF" d="M4.073,4.271c0,0,4.509,6.434,3.802,8.305s-4.639,0.56-5.558-0.668s-3.092,5.648-2.033,8.036
	c1.059,2.387,4.456,4.979,4.456,4.979s1.167-7.809,2.937-4.573c1.771,3.235-4.592,9.684-6.391,10.915s0.611,3.375,7.407-1.827
	c6.797-5.203,7.712-6.692,5.508-11.174c0,0,0.205-2.338,2.61-2.912c2.406-0.573,0.862-2.943-0.868-2.491
	c-1.73,0.453-2.546-0.586-0.402-2.995C17.685,7.456,5.244-0.82,2.268,0.066C-0.709,0.953,3.951,3.595,4.073,4.271z"/>
</svg>
