<?xml version="1.0" encoding="utf-8"?>
<!-- Generator: Adobe Illustrator 14.0.0, SVG Export Plug-In . SVG Version: 6.00 Build 43363)  -->
<!DOCTYPE svg PUBLIC "-//W3C//DTD SVG 1.1//EN" "http://www.w3.org/Graphics/SVG/1.1/DTD/svg11.dtd">
<svg version="1.1" id="Layer_1" xmlns="http://www.w3.org/2000/svg" xmlns:xlink="http://www.w3.org/1999/xlink" x="0px" y="0px"
	 width="35.598px" height="41.054px" viewBox="0 0 35.598 41.054" enable-background="new 0 0 35.598 41.054" xml:space="preserve">
<path fill="#FFFFFF" d="M26.926,39.084c0,0-13.644,2.601-15.55,1.826c-1.907-0.775-5.51-3.572-4.103-9.219
	c0,0,9.506,1.566,11.479-0.74c0,0,0.823-1.296-1.413-2.352C15.104,27.543,4.06,16.094,0,3.487c0,0,17.516,11.56,22.605,19.625
	c0,0,9.438-21.043,8.731-22.219c-0.707-1.175,3.198-2.403,2.688,4.869c-0.512,7.271-0.902,16.071-3.322,20.566
	c0,0,2.445-0.19,3.481-0.732c1.035-0.542,2.449,1.809,0.262,3.363c-2.187,1.556-3.124,5.32-9.17,6.715
	C25.275,35.674,25.537,39.037,26.926,39.084z"/>
</svg>
