<?xml version="1.0" encoding="utf-8"?>
<!-- Generator: Adobe Illustrator 14.0.0, SVG Export Plug-In . SVG Version: 6.00 Build 43363)  -->
<svg version="1.2" baseProfile="tiny" id="Layer_1" xmlns="http://www.w3.org/2000/svg" xmlns:xlink="http://www.w3.org/1999/xlink"
	 x="0px" y="0px" width="19.01px" height="77.865px" viewBox="18.968 0 19.01 77.865" xml:space="preserve">
<path fill="#FFFFFF" d="M23.719,31.993c0,0,2.069,2.788,3.153,2.793S19.25,23.425,28.608,0c0,0-0.971,3.423,0.592,11.717
	c1.564,8.294,5.506,18.335,5.107,19.982c-0.4,1.647,2.734-0.681,3.291,0.797c0.559,1.479,0.99,1.697-2.455,5.064
	c-3.443,3.365-8.36,32.41-8.203,35.533c0.158,3.125-0.241,4.771-0.241,4.771s-5.022-19.506-1.629-29.855c0,0-3.084,0.939-3.748,3.32
	C20.66,53.713,15.145,37.546,23.719,31.993z"/>
</svg>
