<?xml version="1.0" encoding="utf-8"?>
<!-- Generator: Adobe Illustrator 14.0.0, SVG Export Plug-In . SVG Version: 6.00 Build 43363)  -->
<svg version="1.2" baseProfile="tiny" id="Layer_1" xmlns="http://www.w3.org/2000/svg" xmlns:xlink="http://www.w3.org/1999/xlink"
	 x="0px" y="0px" width="24.244px" height="59.107px" viewBox="0 0 24.244 59.107" xml:space="preserve">
<path d="M11.504,28.762c0,0-3.539-21.547,6.815-28.762c0,0-0.004,21.223,1.934,26.808c0,0,1.085,1.528,1.72,1.28
	c0.636-0.248,3.072,0.994,2.004,2.633c-1.067,1.637-3.304,1.533-3.304,1.533s-9.312,19.248-8.772,25.623
	c0.538,6.377-9.761-13.748-0.926-21.104c0,0-4.361,1.949-6.13,6.785c0,0-5.305-6.709-3.768-9.016c0,0,3.479-2.334,3.866-3.219
	c0.387-0.882-2.401-0.525-2.401-0.525s1.32-6.614,3.132-6.346C7.486,24.722,11.386,27.834,11.504,28.762z"/>
</svg>
