<?xml version="1.0" encoding="utf-8"?>
<!-- Generator: Adobe Illustrator 14.0.0, SVG Export Plug-In . SVG Version: 6.00 Build 43363)  -->
<svg version="1.2" baseProfile="tiny" id="_x31_" xmlns="http://www.w3.org/2000/svg" xmlns:xlink="http://www.w3.org/1999/xlink"
	 x="0px" y="0px" width="202.763px" height="140.684px" viewBox="1.167 -2.186 202.763 140.684" xml:space="preserve">
<g>
	<g>
		<path d="M55.323,121.23l-4.131,2.645l-0.838-1.097c-1.305-1.708-2.939-5.235-0.79-7.626c1.489-1.658,2.128-3.463,2.011-5.68
			c-0.162-3.066-1.341-14.175-1.986-16.39c-0.701-0.366-3.052-1.468-10.92-4.735c-0.132,11.136-1.779,13.332-2.343,14.084
			c-2.977,3.971-8.642,4.303-13.718,4.303c-1.539,0-3.167-0.04-4.871-0.083c-1.855-0.046-3.774-0.094-5.765-0.094
			c-0.941,0-1.898,0.011-2.867,0.037c0,0-0.499,0.015-1.359,0.015c-5.54,0-18.93-0.511-23.606-5.241
			c-1.202-1.216-1.802-2.631-1.784-4.206c0.022-1.984,0.097-4.169,0.223-6.521c-7.102,4.598-8.815,5.873-9.227,6.221
			c-0.087,0.315-0.121,1.303-0.156,2.344c-0.053,1.567-0.132,3.937-0.453,7.463c-0.526,5.797,1.092,7.141,2.164,8.03
			c0.224,0.187,0.425,0.356,0.592,0.523c1.313,1.315,1.925,4.04,2.034,4.573l0.384,1.873l-5.875-0.225l-1.503,3.062l-0.349,0.225
			c-0.198,0.129-0.63,0.344-1.297,0.344c-1.188,0-2.493-0.683-3.875-2.027c-2.347-2.282-1.294-6.133-0.366-9.53
			c0.25-0.915,0.486-1.779,0.625-2.512c0.236-1.25,0.455-4.453,0.667-7.55c0.611-8.957,0.874-10.806,1.652-11.636
			c0.89-0.949,10.216-7.924,15.817-11.965c0.739-7.46,1.941-16.111,3.032-19.177c0.875-2.461,2.553-3.841,3.987-4.602
			c-0.537-0.942-0.829-2.207-0.476-3.81c0.637-2.899,2.847-4.663,6.567-5.243l4.546-0.709l-3.255,3.252
			c-0.78,0.78-1.214,2.076-0.092,3.374c0.502,0.582,1.208,0.668,1.584,0.668c0.033,0,0.062-0.001,0.086-0.002
			c0.941-0.27,5.87-1.606,11.508-1.686l0.615-0.004c4.572,0,8.313,0.692,9.749,0.999c0.53-0.38,1.387-1.179,1.306-2.34
			c-0.11-1.59-0.243-2.141-2.302-3.138l-4.165-2.015l4.555-0.812c0.492-0.088,1.008-0.132,1.534-0.132
			c4.411,0,9.11,3.075,9.86,6.451c0.383,1.726,0.075,3.152-0.451,4.212c1.442,0.744,3.326,2.008,4.244,3.846
			c1.187,2.373,2.283,12.496,2.668,20.917c17.692,7.984,18.19,8.927,18.557,9.619c0.295,0.555,0.38,1.241,0.787,8.594
			c0.223,4.029,0.59,10.663,0.949,12.118c1.077,1.097,4.987,5.413,3.851,9.174c-1.068,3.53-3.98,5.183-4.104,5.251l-1.472,0.819
			L55.323,121.23z"/>
		<path fill="#FF0092" d="M22.188,45.979c3.707,0,7.799,2.588,8.396,5.276c0.666,3-1.333,4.5-1.333,4.5s3.969,1.34,5.249,3.903
			c0.967,1.935,2.165,11.599,2.551,21.234c8.146,3.666,18.159,8.329,18.691,9.333c0.463,0.872,0.943,20.04,1.801,20.871
			c0.857,0.83,4.579,4.888,3.675,7.878c-0.904,2.989-3.396,4.375-3.396,4.375L56.024,119l-4.479,2.867c0,0-2.758-3.608-0.866-5.712
			c1.891-2.104,2.522-4.328,2.394-6.762c-0.129-2.435-1.506-16.506-2.302-17.34c-0.427-0.448-7.316-3.355-13.596-5.948
			c0.042,7.083-0.489,13.346-2.049,15.427c-2.354,3.139-6.806,3.702-12.518,3.702c-3.2,0-6.794-0.177-10.636-0.177
			c-0.955,0-1.926,0.011-2.909,0.038c0,0-0.483,0.014-1.317,0.014c-5.196,0-23.976-0.514-23.89-7.93
			c0.033-2.901,0.178-6.116,0.399-9.404c-4.999,3.213-11.74,7.608-12.13,8.195c-0.625,0.938-0.188,3.001-0.875,10.563
			c-0.687,7.563,2.126,8.688,3.188,9.75c1.062,1.063,1.625,3.813,1.625,3.813l-4.938-0.188l-1.75,3.563c0,0-0.158,0.103-0.482,0.103
			c-0.515,0-1.449-0.26-2.83-1.603c-2.25-2.188,0.062-7.375,0.687-10.688c0.625-3.313,1.001-17.438,1.938-18.438
			c0.732-0.782,9.953-7.719,16.149-12.17c0.844-8.773,2.069-16.827,3.019-19.495c1.396-3.926,5.313-4.51,5.313-4.51
			s-2.425-1.012-1.75-4.083c0.563-2.563,2.666-3.667,5.333-4.083C-4.666,49.921-5,52.088-3.416,53.921
			c0.902,1.044,2.12,1.188,2.719,1.188c0.227,0,0.365-0.021,0.365-0.021s5.25-1.583,11.25-1.667c0.2-0.003,0.397-0.004,0.594-0.004
			c5.633,0,10.01,1.097,10.01,1.097s2.729-1.343,2.541-4.042c-0.146-2.121-0.604-3.154-3.146-4.384
			C21.332,46.014,21.758,45.979,22.188,45.979 M22.188,42.979c-0.614,0-1.218,0.052-1.797,0.155l-9.11,1.624l8.33,4.031
			c1.375,0.665,1.375,0.665,1.459,1.89c0.015,0.222-0.101,0.437-0.252,0.619c-1.837-0.352-5.265-0.88-9.306-0.88
			c-0.21,0-0.422,0.001-0.636,0.004c-5.455,0.076-10.28,1.295-11.676,1.68c-0.121-0.012-0.264-0.046-0.346-0.142
			c-0.317-0.367-0.534-0.782,0.017-1.333l6.509-6.504l-9.092,1.418c-5.471,0.854-7.262,3.953-7.801,6.403
			c-0.3,1.366-0.228,2.543,0.063,3.539c-1.417,1.023-2.756,2.538-3.522,4.694c-1.17,3.287-2.337,11.914-3.044,18.859
			c-4.975,3.606-14.434,10.636-15.487,11.76c-1.132,1.208-1.382,2.734-2.053,12.558c-0.208,3.054-0.424,6.211-0.644,7.374
			c-0.127,0.674-0.356,1.51-0.598,2.395c-0.986,3.609-2.214,8.102,0.767,11.001c1.673,1.627,3.329,2.452,4.921,2.452
			c1.053,0,1.775-0.366,2.112-0.584l0.697-0.451l0.366-0.745l0.891-1.813l2.991,0.114l3.821,0.146l-0.768-3.746
			c-0.174-0.852-0.866-3.753-2.441-5.33c-0.237-0.238-0.471-0.432-0.696-0.619c-0.879-0.729-2.083-1.729-1.627-6.74
			c0.324-3.568,0.405-5.963,0.458-7.548c0.02-0.584,0.04-1.182,0.068-1.589c0.7-0.516,2.345-1.665,6.183-4.176
			c-0.048,1.28-0.078,2.5-0.091,3.653c-0.022,1.962,0.744,3.787,2.217,5.277c4.891,4.947,17.558,5.687,24.673,5.687
			c0.886,0,1.399-0.015,1.399-0.015c0.9-0.025,1.824-0.037,2.827-0.037c1.972,0,3.881,0.048,5.728,0.094
			c1.72,0.043,3.344,0.083,4.908,0.083c5.439,0,11.526-0.379,14.918-4.902c1.013-1.351,2.309-4.141,2.594-12.755
			c4.941,2.067,7.167,3.063,8.169,3.537c0.627,3.082,1.651,12.845,1.789,15.438c0.098,1.844-0.39,3.219-1.629,4.599
			c-2.806,3.12-0.872,7.464,0.714,9.538l1.676,2.193l2.325-1.488l1.459-0.934l0.427,1.035l1.287,3.113l2.944-1.637
			c0.364-0.202,3.589-2.093,4.81-6.128c1.276-4.221-2.291-8.621-3.896-10.329c-0.313-1.921-0.64-7.825-0.842-11.48
			c-0.423-7.65-0.495-8.34-0.959-9.215c-0.608-1.146-1.092-2.061-18.429-9.904c-0.371-7.159-1.353-17.744-2.78-20.599
			c-0.855-1.712-2.341-2.975-3.735-3.851c0.304-1.1,0.39-2.397,0.065-3.861C32.611,46.542,27.319,42.979,22.188,42.979
			L22.188,42.979z"/>
	</g>
	<path fill="#FFFFFF" d="M11.188,67.846c3.938-0.146,9.625,0,11.063,5.125c0.983,3.505,0.604,9.177-1.5,11.438
		c-2.5,2.688-6.188,3.604-7.813,3.688s-7.82,0.357-10.313-4.5c-2.5-4.875-1.563-9.5,1.125-12.563
		C6.438,67.971,9.5,67.908,11.188,67.846z"/>
	<circle cx="12.063" cy="78.283" r="3.625"/>
	<path fill="#FFFFFF" d="M0,101.907c4.625,0,16.563-8.75,20.563-9.75s12.813-4.437,14.75-5.812
		c-0.063,2.313,0.25,11.937-1.75,13.999c-2,2.062-5.313,3.438-9.75,2.813C19.376,102.532,8.813,104.47,0,101.907z"/>
	<path d="M29.484,104.403l-0.718-0.695c0.778-1.054,3.126-16.751,2.798-20.254l0.996-0.093
		C32.861,86.57,30.635,103.216,29.484,104.403L29.484,104.403z"/>
	<path d="M26.384,104.849c-0.212-1.134,0.104-7.562,0.473-14.618c0.116-2.209,0.207-3.954,0.207-4.362h1
		c0,0.436-0.087,2.104-0.208,4.415c-0.261,4.964-0.695,13.272-0.487,14.382L26.384,104.849L26.384,104.849z"/>
	<path d="M23.479,104.813l-0.958-0.286c1.329-4.45,0.856-9.642,0.045-16.49l0.993-0.118
		C24.386,94.888,24.863,100.179,23.479,104.813L23.479,104.813z"/>
	<path d="M20.063,104.326c-0.017-0.991-0.094-2.118-0.177-3.312c-0.227-3.269-0.509-7.335,0.183-12.058l0.989,0.146
		c-0.676,4.614-0.397,8.623-0.176,11.843c0.084,1.207,0.163,2.347,0.181,3.364L20.063,104.326L20.063,104.326z"/>
	<path d="M17.145,105.05l-0.912-0.409c0.524-1.17,0.276-4.913,0.015-8.876c-0.085-1.28-0.174-2.622-0.246-3.983L17,91.728
		c0.072,1.355,0.16,2.693,0.245,3.97C17.539,100.142,17.771,103.651,17.145,105.05L17.145,105.05z"/>
	<path d="M14.5,104.78l-0.999-0.047c0.022-0.481-0.17-1.685-0.394-3.074c-0.354-2.203-0.795-4.945-0.795-7.182h1
		c0,2.156,0.434,4.854,0.782,7.022C14.336,103.007,14.527,104.195,14.5,104.78L14.5,104.78z"/>
	<path d="M11.5,104.86l-1-0.031c0.031-0.967-0.125-2.209-0.307-3.646c-0.191-1.529-0.41-3.263-0.505-5.311l0.999-0.046
		c0.094,2.008,0.309,3.721,0.498,5.23C11.372,102.537,11.533,103.814,11.5,104.86L11.5,104.86z"/>
	<path d="M7.626,104.423c-0.021-0.614-0.135-1.366-0.255-2.161c-0.229-1.519-0.516-3.405-0.305-5.355l0.994,0.107
		c-0.197,1.82,0.065,3.563,0.299,5.099c0.125,0.825,0.243,1.604,0.266,2.277L7.626,104.423L7.626,104.423z"/>
	<path d="M4.751,104.427c0,0-0.188-4.458-0.25-5.775L5.5,98.604c0.063,1.317,0.25,5.779,0.25,5.779L4.751,104.427L4.751,104.427z"/>
</g>
<g>
	<g>
		<path d="M258.005,121.914l-4.131,2.645l-0.838-1.097c-1.306-1.708-2.94-5.235-0.79-7.626c1.489-1.658,2.128-3.463,2.011-5.68
			c-0.162-3.066-1.342-14.175-1.986-16.39c-0.7-0.366-3.053-1.468-10.919-4.735c-0.134,11.137-1.78,13.333-2.344,14.084
			c-2.978,3.971-8.642,4.303-13.718,4.303c-1.539,0-3.168-0.04-4.871-0.083c-1.856-0.046-3.775-0.094-5.766-0.094
			c-0.94,0-1.897,0.011-2.866,0.037c-0.001,0-0.499,0.015-1.359,0.015c-5.54,0-18.93-0.511-23.606-5.241
			c-1.201-1.216-1.802-2.631-1.783-4.206c0.022-1.982,0.097-4.167,0.223-6.521c-7.102,4.597-8.815,5.872-9.227,6.221
			c-0.087,0.315-0.12,1.303-0.155,2.344c-0.053,1.567-0.133,3.937-0.453,7.463c-0.526,5.797,1.092,7.141,2.163,8.03
			c0.225,0.187,0.425,0.356,0.592,0.523c1.313,1.315,1.925,4.04,2.034,4.573l0.384,1.873l-5.875-0.225l-1.504,3.062l-0.348,0.225
			c-0.198,0.129-0.63,0.344-1.298,0.344c-1.188,0-2.492-0.683-3.875-2.027c-2.347-2.282-1.295-6.133-0.366-9.53
			c0.25-0.915,0.486-1.779,0.625-2.512c0.235-1.25,0.454-4.453,0.666-7.55c0.611-8.957,0.874-10.806,1.651-11.636
			c0.89-0.949,10.216-7.924,15.817-11.965c0.738-7.46,1.94-16.111,3.032-19.177c0.875-2.461,2.553-3.84,3.986-4.601
			c-0.536-0.942-0.828-2.207-0.476-3.81c0.638-2.899,2.847-4.663,6.566-5.243l4.546-0.709l-3.254,3.252
			c-0.78,0.78-1.215,2.076-0.093,3.374c0.502,0.582,1.208,0.668,1.585,0.668c0.032,0,0.061-0.001,0.085-0.002
			c0.941-0.27,5.87-1.606,11.509-1.686l0.615-0.004c4.571,0,8.313,0.692,9.748,0.999c0.53-0.38,1.387-1.179,1.307-2.34
			c-0.11-1.59-0.243-2.141-2.303-3.138l-4.165-2.015l4.556-0.812c0.491-0.088,1.008-0.132,1.533-0.132
			c4.411,0,9.11,3.075,9.859,6.451c0.384,1.726,0.075,3.152-0.45,4.212c1.442,0.744,3.326,2.008,4.244,3.846
			c1.187,2.371,2.283,12.494,2.669,20.917c17.691,7.985,18.19,8.928,18.557,9.619c0.295,0.555,0.38,1.241,0.786,8.594
			c0.224,4.029,0.591,10.663,0.95,12.118c1.076,1.097,4.987,5.414,3.85,9.174c-1.067,3.53-3.979,5.183-4.104,5.251l-1.472,0.819
			L258.005,121.914z"/>
		<path fill="#FF0092" d="M224.871,46.662c3.707,0,7.799,2.588,8.396,5.276c0.666,3-1.333,4.5-1.333,4.5s3.969,1.34,5.249,3.903
			c0.968,1.935,2.165,11.599,2.552,21.234c8.146,3.666,18.158,8.329,18.69,9.333c0.463,0.872,0.943,20.04,1.801,20.871
			c0.857,0.83,4.579,4.888,3.675,7.878c-0.904,2.989-3.396,4.375-3.396,4.375l-1.797-4.35l-4.479,2.867c0,0-2.758-3.608-0.866-5.712
			c1.891-2.104,2.522-4.328,2.394-6.762c-0.129-2.435-1.506-16.506-2.302-17.34c-0.428-0.448-7.316-3.355-13.596-5.948
			c0.041,7.083-0.489,13.346-2.05,15.427c-2.354,3.139-6.806,3.702-12.518,3.702c-3.2,0-6.794-0.177-10.637-0.177
			c-0.954,0-1.925,0.011-2.908,0.038c0,0-0.483,0.014-1.317,0.014c-5.196,0-23.976-0.514-23.89-7.93
			c0.032-2.901,0.178-6.116,0.399-9.404c-5,3.213-11.74,7.608-12.131,8.195c-0.625,0.938-0.188,3.001-0.875,10.563
			c-0.687,7.563,2.126,8.688,3.188,9.75c1.062,1.063,1.625,3.813,1.625,3.813l-4.938-0.188l-1.75,3.563c0,0-0.158,0.103-0.482,0.103
			c-0.515,0-1.448-0.26-2.829-1.603c-2.25-2.188,0.062-7.375,0.687-10.688c0.625-3.313,1.001-17.438,1.938-18.438
			c0.732-0.782,9.953-7.719,16.149-12.17c0.844-8.773,2.068-16.827,3.019-19.495c1.396-3.926,5.313-4.51,5.313-4.51
			s-2.425-1.012-1.75-4.083c0.563-2.563,2.666-3.667,5.333-4.083c-1.417,1.416-1.751,3.583-0.167,5.416
			c0.901,1.044,2.12,1.188,2.72,1.188c0.226,0,0.364-0.021,0.364-0.021s5.25-1.583,11.25-1.667c0.199-0.003,0.397-0.004,0.595-0.004
			c5.632,0,10.01,1.097,10.01,1.097s2.729-1.343,2.541-4.042c-0.146-2.121-0.604-3.154-3.146-4.384
			C224.014,46.698,224.44,46.662,224.871,46.662 M224.871,43.662c-0.614,0-1.219,0.052-1.797,0.155l-9.11,1.624l8.33,4.031
			c1.375,0.665,1.375,0.665,1.459,1.89c0.016,0.222-0.101,0.437-0.252,0.619c-1.837-0.352-5.265-0.88-9.306-0.88
			c-0.211,0-0.423,0.001-0.637,0.004c-5.454,0.076-10.279,1.295-11.676,1.68c-0.121-0.012-0.264-0.046-0.346-0.142
			c-0.317-0.367-0.534-0.782,0.017-1.333l6.51-6.504l-9.092,1.418c-5.472,0.854-7.263,3.953-7.801,6.403
			c-0.301,1.366-0.229,2.543,0.063,3.539c-1.416,1.023-2.756,2.538-3.522,4.694c-1.17,3.286-2.337,11.914-3.044,18.859
			c-4.975,3.606-14.434,10.636-15.486,11.76c-1.133,1.208-1.383,2.734-2.054,12.558c-0.208,3.054-0.424,6.211-0.644,7.374
			c-0.127,0.674-0.355,1.51-0.597,2.395c-0.987,3.609-2.215,8.102,0.767,11.001c1.673,1.627,3.328,2.452,4.921,2.452
			c1.053,0,1.775-0.366,2.112-0.584l0.697-0.451l0.365-0.745l0.892-1.813l2.99,0.114l3.82,0.146l-0.768-3.746
			c-0.174-0.852-0.866-3.753-2.44-5.33c-0.237-0.238-0.471-0.432-0.696-0.619c-0.879-0.729-2.082-1.729-1.628-6.74
			c0.325-3.568,0.405-5.963,0.459-7.548c0.02-0.584,0.039-1.182,0.068-1.589c0.7-0.516,2.346-1.666,6.183-4.176
			c-0.048,1.281-0.078,2.501-0.091,3.654c-0.022,1.961,0.744,3.786,2.217,5.276c4.891,4.947,17.558,5.687,24.673,5.687
			c0.886,0,1.399-0.015,1.399-0.015c0.899-0.025,1.824-0.037,2.826-0.037c1.972,0,3.882,0.048,5.728,0.094
			c1.721,0.043,3.345,0.083,4.909,0.083c5.438,0,11.525-0.379,14.918-4.902c1.013-1.351,2.308-4.141,2.594-12.755
			c4.94,2.067,7.168,3.063,8.169,3.537c0.627,3.082,1.651,12.845,1.788,15.438c0.098,1.844-0.39,3.219-1.629,4.599
			c-2.806,3.12-0.871,7.464,0.714,9.538l1.677,2.193l2.324-1.488l1.459-0.934l0.428,1.035l1.286,3.113l2.944-1.637
			c0.363-0.202,3.589-2.093,4.81-6.128c1.276-4.221-2.29-8.621-3.896-10.329c-0.313-1.921-0.64-7.825-0.842-11.48
			c-0.423-7.65-0.495-8.34-0.96-9.215c-0.607-1.146-1.092-2.061-18.428-9.904c-0.371-7.16-1.354-17.747-2.781-20.599
			c-0.854-1.711-2.341-2.974-3.735-3.851c0.305-1.1,0.391-2.397,0.065-3.861C235.293,47.226,230.002,43.662,224.871,43.662
			L224.871,43.662z"/>
	</g>
	<path fill="#FFFFFF" d="M213.871,68.53c3.938-0.146,9.625,0,11.063,5.125c0.983,3.505,0.604,9.177-1.5,11.438
		c-2.5,2.688-6.188,3.604-7.813,3.688s-7.82,0.357-10.313-4.5c-2.5-4.875-1.563-9.5,1.125-12.563
		C209.121,68.655,212.182,68.592,213.871,68.53z"/>
	<circle cx="214.746" cy="78.967" r="3.625"/>
	<path fill="#FFFFFF" d="M202.682,102.591c4.625,0,16.563-8.75,20.563-9.75s12.813-4.437,14.75-5.812
		c-0.063,2.313,0.25,11.937-1.75,13.999c-2,2.062-5.313,3.438-9.75,2.813C222.058,103.216,211.496,105.154,202.682,102.591z"/>
	<path d="M232.167,105.087l-0.718-0.695c0.778-1.054,3.126-16.751,2.798-20.254l0.996-0.093
		C235.544,87.254,233.317,103.899,232.167,105.087L232.167,105.087z"/>
	<path d="M229.066,105.533c-0.212-1.134,0.104-7.562,0.473-14.618c0.116-2.209,0.207-3.954,0.207-4.362h1
		c0,0.436-0.087,2.104-0.208,4.415c-0.261,4.964-0.695,13.272-0.487,14.382L229.066,105.533L229.066,105.533z"/>
	<path d="M226.162,105.497l-0.958-0.286c1.329-4.45,0.856-9.642,0.045-16.49l0.993-0.118
		C227.069,95.572,227.546,100.863,226.162,105.497L226.162,105.497z"/>
	<path d="M222.746,105.01c-0.017-0.991-0.094-2.118-0.177-3.312c-0.227-3.269-0.509-7.335,0.183-12.058l0.989,0.146
		c-0.676,4.614-0.397,8.623-0.176,11.843c0.084,1.207,0.163,2.347,0.181,3.364L222.746,105.01L222.746,105.01z"/>
	<path d="M219.828,105.733l-0.912-0.409c0.524-1.17,0.276-4.913,0.015-8.876c-0.085-1.28-0.174-2.622-0.246-3.983l0.998-0.053
		c0.072,1.355,0.16,2.693,0.245,3.97C220.221,100.826,220.454,104.335,219.828,105.733L219.828,105.733z"/>
	<path d="M217.182,105.464l-0.999-0.047c0.022-0.481-0.17-1.685-0.394-3.074c-0.354-2.203-0.795-4.945-0.795-7.182h1
		c0,2.156,0.434,4.854,0.782,7.022C217.018,103.69,217.21,104.879,217.182,105.464L217.182,105.464z"/>
	<path d="M214.182,105.544l-1-0.031c0.031-0.967-0.125-2.209-0.307-3.646c-0.191-1.529-0.41-3.263-0.505-5.311l0.999-0.046
		c0.094,2.008,0.309,3.721,0.498,5.23C214.054,103.22,214.216,104.498,214.182,105.544L214.182,105.544z"/>
	<path d="M210.308,105.106c-0.021-0.614-0.135-1.366-0.255-2.161c-0.229-1.519-0.516-3.405-0.305-5.355l0.994,0.107
		c-0.197,1.82,0.065,3.563,0.299,5.099c0.125,0.825,0.243,1.604,0.266,2.277L210.308,105.106L210.308,105.106z"/>
	<path d="M207.433,105.111c0,0-0.188-4.458-0.25-5.775l0.999-0.048c0.063,1.317,0.25,5.779,0.25,5.779L207.433,105.111
		L207.433,105.111z"/>
</g>
<g>
	<g>
		<path d="M156.596,191.913l-4.132,2.645l-0.838-1.096c-1.306-1.708-2.94-5.235-0.789-7.626c1.488-1.657,2.127-3.462,2.01-5.68
			c-0.162-3.065-1.341-14.174-1.985-16.39c-0.701-0.366-3.054-1.468-10.919-4.735c-0.134,11.136-1.781,13.332-2.345,14.084
			c-2.978,3.971-8.642,4.303-13.718,4.303c-1.539,0-3.168-0.04-4.871-0.083c-1.856-0.046-3.775-0.094-5.766-0.094
			c-0.94,0-1.897,0.011-2.866,0.037c-0.001,0-0.499,0.015-1.359,0.015c-5.54,0-18.93-0.511-23.606-5.241
			c-1.202-1.216-1.802-2.631-1.784-4.206c0.022-1.982,0.097-4.167,0.223-6.521c-7.102,4.597-8.815,5.872-9.227,6.221
			c-0.087,0.315-0.121,1.303-0.156,2.344c-0.053,1.567-0.132,3.937-0.453,7.463c-0.526,5.797,1.092,7.141,2.164,8.03
			c0.224,0.187,0.425,0.356,0.592,0.523c1.313,1.315,1.925,4.04,2.034,4.573l0.384,1.873l-5.875-0.225l-1.503,3.062l-0.349,0.225
			c-0.198,0.129-0.63,0.344-1.297,0.344c-1.188,0-2.493-0.683-3.875-2.027c-2.347-2.282-1.294-6.133-0.366-9.53
			c0.25-0.915,0.486-1.779,0.625-2.512c0.236-1.25,0.455-4.453,0.667-7.55c0.611-8.957,0.874-10.806,1.652-11.636
			c0.889-0.949,10.216-7.924,15.817-11.965c0.738-7.46,1.94-16.11,3.032-19.177c0.875-2.462,2.553-3.841,3.987-4.602
			c-0.537-0.942-0.829-2.207-0.476-3.811c0.637-2.898,2.847-4.663,6.567-5.243l4.547-0.709l-3.256,3.253
			c-0.78,0.779-1.215,2.075-0.093,3.374c0.502,0.581,1.208,0.668,1.584,0.668c0.033,0,0.062-0.001,0.086-0.002
			c0.941-0.27,5.87-1.606,11.509-1.686l0.615-0.004c4.571,0,8.313,0.691,9.749,0.999c0.53-0.38,1.387-1.179,1.307-2.341
			c-0.11-1.59-0.243-2.14-2.304-3.137l-4.166-2.016l4.557-0.812c0.491-0.088,1.008-0.132,1.533-0.132c4.411,0,9.11,3.074,9.859,6.45
			c0.384,1.726,0.076,3.151-0.45,4.212c1.443,0.744,3.327,2.008,4.244,3.847c1.187,2.369,2.284,12.492,2.67,20.917
			c17.693,7.985,18.19,8.928,18.557,9.619c0.294,0.554,0.379,1.24,0.785,8.593c0.224,4.029,0.591,10.663,0.95,12.118
			c1.076,1.097,4.987,5.414,3.851,9.174c-1.067,3.53-3.979,5.183-4.104,5.251l-1.472,0.819L156.596,191.913z"/>
		<path fill="#FF0092" d="M123.463,116.663c3.707,0,7.798,2.588,8.395,5.275c0.666,3-1.332,4.5-1.332,4.5s3.969,1.34,5.248,3.903
			c0.969,1.935,2.166,11.599,2.553,21.234c8.145,3.666,18.158,8.329,18.689,9.333c0.463,0.872,0.943,20.04,1.801,20.871
			c0.857,0.83,4.58,4.888,3.676,7.878c-0.904,2.989-3.396,4.375-3.396,4.375l-1.797-4.35l-4.48,2.867c0,0-2.758-3.608-0.865-5.712
			c1.891-2.104,2.521-4.328,2.393-6.762c-0.129-2.435-1.506-16.506-2.301-17.34c-0.428-0.448-7.316-3.355-13.596-5.948
			c0.041,7.083-0.49,13.346-2.051,15.427c-2.354,3.139-6.807,3.702-12.518,3.702c-3.2,0-6.794-0.177-10.637-0.177
			c-0.954,0-1.926,0.011-2.908,0.038c0,0-0.483,0.014-1.317,0.014c-5.196,0-23.976-0.514-23.89-7.93
			c0.032-2.901,0.178-6.116,0.399-9.404c-5,3.213-11.74,7.608-12.131,8.195c-0.625,0.938-0.188,3.001-0.875,10.563
			c-0.687,7.563,2.126,8.688,3.188,9.75c1.062,1.063,1.625,3.813,1.625,3.813l-4.938-0.188l-1.75,3.563c0,0-0.158,0.103-0.482,0.103
			c-0.515,0-1.449-0.26-2.83-1.603c-2.25-2.188,0.062-7.375,0.687-10.688c0.625-3.313,1.001-17.438,1.938-18.438
			c0.732-0.782,9.953-7.719,16.149-12.17c0.844-8.773,2.068-16.827,3.019-19.495c1.396-3.926,5.313-4.51,5.313-4.51
			s-2.425-1.012-1.75-4.083c0.563-2.563,2.666-3.667,5.333-4.083c-1.417,1.416-1.751,3.583-0.168,5.416
			c0.902,1.044,2.12,1.188,2.719,1.188c0.227,0,0.365-0.021,0.365-0.021s5.25-1.583,11.25-1.667
			c0.199-0.003,0.397-0.004,0.595-0.004c5.632,0,10.011,1.097,10.011,1.097s2.729-1.343,2.541-4.042
			c-0.146-2.121-0.605-3.154-3.146-4.384C122.605,116.697,123.031,116.663,123.463,116.663 M123.463,113.663
			c-0.614,0-1.219,0.052-1.798,0.155l-9.111,1.623l8.331,4.03c1.376,0.666,1.376,0.666,1.46,1.891
			c0.016,0.222-0.101,0.436-0.252,0.618c-1.837-0.353-5.266-0.88-9.307-0.88c-0.211,0-0.423,0.001-0.637,0.004
			c-5.454,0.076-10.28,1.295-11.676,1.681c-0.121-0.012-0.264-0.047-0.346-0.142c-0.317-0.366-0.534-0.781,0.018-1.333l6.511-6.505
			l-9.094,1.419c-5.472,0.854-7.262,3.952-7.801,6.402c-0.3,1.366-0.228,2.544,0.063,3.538c-1.417,1.023-2.756,2.538-3.522,4.694
			c-1.17,3.286-2.337,11.914-3.044,18.859c-4.975,3.606-14.434,10.636-15.487,11.76c-1.132,1.208-1.382,2.734-2.053,12.558
			c-0.208,3.054-0.424,6.211-0.644,7.374c-0.127,0.674-0.355,1.51-0.597,2.395c-0.986,3.609-2.214,8.102,0.767,11.001
			c1.673,1.627,3.329,2.452,4.921,2.452c1.053,0,1.775-0.366,2.112-0.584l0.697-0.451l0.366-0.745l0.891-1.813l2.991,0.114
			l3.821,0.146l-0.768-3.746c-0.174-0.852-0.866-3.753-2.441-5.33c-0.237-0.238-0.471-0.432-0.696-0.619
			c-0.879-0.729-2.083-1.729-1.627-6.74c0.324-3.568,0.405-5.963,0.458-7.548c0.02-0.584,0.04-1.182,0.068-1.589
			c0.7-0.516,2.346-1.666,6.183-4.176c-0.048,1.281-0.078,2.501-0.091,3.654c-0.022,1.961,0.744,3.786,2.217,5.276
			c4.891,4.947,17.558,5.687,24.673,5.687c0.886,0,1.399-0.015,1.399-0.015c0.899-0.025,1.824-0.037,2.826-0.037
			c1.972,0,3.882,0.048,5.728,0.094c1.721,0.043,3.345,0.083,4.909,0.083c5.438,0,11.525-0.379,14.918-4.902
			c1.013-1.351,2.309-4.141,2.595-12.755c4.94,2.067,7.167,3.063,8.169,3.537c0.627,3.083,1.65,12.846,1.787,15.438
			c0.098,1.844-0.389,3.22-1.628,4.599c-2.807,3.119-0.873,7.464,0.713,9.538l1.676,2.193l2.325-1.487l1.46-0.935l0.428,1.035
			l1.286,3.113l2.944-1.637c0.363-0.202,3.589-2.093,4.81-6.128c1.276-4.221-2.291-8.62-3.896-10.329
			c-0.313-1.921-0.64-7.825-0.842-11.48c-0.423-7.651-0.495-8.34-0.96-9.215c-0.605-1.145-1.089-2.059-18.427-9.904
			c-0.371-7.161-1.354-17.749-2.782-20.6c-0.854-1.712-2.34-2.974-3.734-3.851c0.304-1.101,0.39-2.396,0.064-3.86
			C133.885,117.225,128.593,113.663,123.463,113.663L123.463,113.663z"/>
	</g>
	<path fill="#FFFFFF" d="M112.463,138.53c3.938-0.146,9.625,0,11.063,5.125c0.982,3.505,0.604,9.177-1.5,11.438
		c-2.5,2.688-6.188,3.604-7.813,3.688s-7.82,0.357-10.314-4.5c-2.5-4.875-1.563-9.5,1.125-12.563
		C107.713,138.655,110.773,138.592,112.463,138.53z"/>
	<circle cx="113.338" cy="148.967" r="3.625"/>
	<path fill="#FFFFFF" d="M101.273,172.591c4.625,0,16.565-8.75,20.565-9.75s12.813-4.437,14.75-5.812
		c-0.064,2.313,0.25,11.937-1.75,13.999c-2,2.062-5.314,3.438-9.75,2.813C120.65,173.216,110.088,175.154,101.273,172.591z"/>
	<path d="M130.758,175.087l-0.717-0.695c0.777-1.054,3.125-16.751,2.797-20.254l0.996-0.093
		C134.135,157.254,131.908,173.899,130.758,175.087L130.758,175.087z"/>
	<path d="M127.658,175.533c-0.213-1.134,0.104-7.562,0.473-14.618c0.115-2.209,0.207-3.954,0.207-4.362h1
		c0,0.436-0.088,2.104-0.209,4.415c-0.26,4.964-0.695,13.272-0.486,14.382L127.658,175.533L127.658,175.533z"/>
	<path d="M124.754,175.497l-0.959-0.286c1.33-4.45,0.857-9.642,0.045-16.49l0.994-0.118
		C125.66,165.572,126.136,170.863,124.754,175.497L124.754,175.497z"/>
	<path d="M121.338,175.01c-0.018-0.991-0.094-2.118-0.178-3.312c-0.227-3.269-0.508-7.335,0.184-12.058l0.988,0.146
		c-0.676,4.614-0.396,8.623-0.176,11.843c0.084,1.207,0.164,2.347,0.182,3.364L121.338,175.01L121.338,175.01z"/>
	<path d="M118.42,175.733l-0.912-0.409c0.523-1.17,0.275-4.913,0.014-8.876c-0.084-1.28-0.174-2.622-0.246-3.983l0.998-0.053
		c0.072,1.355,0.16,2.693,0.246,3.97C118.812,170.826,119.045,174.335,118.42,175.733L118.42,175.733z"/>
	<path d="M115.773,175.464l-0.998-0.047c0.021-0.481-0.17-1.685-0.395-3.074c-0.354-2.203-0.795-4.945-0.795-7.182h1
		c0,2.156,0.434,4.854,0.783,7.022C115.609,173.69,115.801,174.879,115.773,175.464L115.773,175.464z"/>
	<path d="M112.773,175.544l-1-0.031c0.031-0.967-0.125-2.209-0.307-3.646c-0.191-1.529-0.41-3.263-0.504-5.311l0.998-0.046
		c0.094,2.008,0.309,3.721,0.498,5.23C112.646,173.22,112.806,174.498,112.773,175.544L112.773,175.544z"/>
	<path d="M108.9,175.106c-0.021-0.614-0.135-1.366-0.256-2.161c-0.229-1.519-0.516-3.405-0.305-5.355l0.994,0.107
		c-0.197,1.82,0.066,3.563,0.299,5.099c0.125,0.825,0.244,1.604,0.266,2.277L108.9,175.106L108.9,175.106z"/>
	<path d="M106.025,175.111c0,0-0.188-4.458-0.25-5.775l0.998-0.048c0.064,1.317,0.25,5.779,0.25,5.779L106.025,175.111
		L106.025,175.111z"/>
</g>
<g>
	<g>
		<path d="M155.324,51.229l-4.132,2.645l-0.838-1.097c-1.306-1.708-2.94-5.235-0.789-7.626c1.488-1.657,2.127-3.461,2.01-5.679
			c-0.162-3.066-1.341-14.174-1.985-16.39c-0.701-0.367-3.054-1.468-10.919-4.735c-0.134,11.135-1.781,13.333-2.345,14.084
			c-2.978,3.97-8.642,4.302-13.718,4.302c-1.539,0-3.168-0.041-4.871-0.083c-1.856-0.046-3.775-0.094-5.766-0.094
			c-0.94,0-1.897,0.011-2.866,0.038c-0.001,0-0.499,0.014-1.359,0.014c-5.54,0-18.93-0.511-23.606-5.241
			c-1.202-1.215-1.802-2.63-1.784-4.206c0.022-1.982,0.097-4.167,0.223-6.521c-7.102,4.597-8.815,5.873-9.227,6.221
			c-0.087,0.315-0.121,1.303-0.156,2.344c-0.053,1.568-0.132,3.937-0.453,7.463c-0.526,5.797,1.092,7.141,2.164,8.03
			c0.224,0.186,0.425,0.356,0.592,0.523c1.314,1.316,1.925,4.04,2.034,4.573l0.384,1.873l-5.875-0.224l-1.503,3.061L70.19,54.73
			c-0.198,0.128-0.63,0.343-1.297,0.343c-1.188,0-2.493-0.682-3.875-2.027c-2.347-2.283-1.294-6.133-0.366-9.53
			c0.25-0.915,0.486-1.779,0.625-2.511c0.236-1.25,0.455-4.453,0.667-7.55c0.611-8.957,0.874-10.806,1.652-11.635
			c0.889-0.95,10.216-7.924,15.817-11.965c0.738-7.46,1.94-16.111,3.032-19.178c0.875-2.461,2.553-3.84,3.987-4.601
			c-0.537-0.942-0.829-2.207-0.476-3.81c0.637-2.899,2.847-4.663,6.567-5.243l4.547-0.709l-3.256,3.252
			c-0.78,0.78-1.215,2.076-0.093,3.375c0.502,0.581,1.208,0.668,1.584,0.668c0.033,0,0.062-0.001,0.086-0.002
			c0.941-0.27,5.87-1.606,11.509-1.686l0.615-0.004c4.571,0,8.313,0.692,9.749,0.999c0.53-0.38,1.387-1.179,1.307-2.34
			c-0.11-1.59-0.243-2.141-2.304-3.138l-4.166-2.015l4.557-0.812c0.491-0.088,1.008-0.132,1.534-0.132
			c4.41,0,9.109,3.075,9.858,6.451c0.384,1.726,0.076,3.152-0.45,4.212c1.443,0.744,3.327,2.008,4.244,3.847
			c1.187,2.369,2.284,12.493,2.67,20.917c17.693,7.986,18.19,8.928,18.557,9.619c0.294,0.554,0.379,1.241,0.785,8.594
			c0.224,4.029,0.591,10.663,0.95,12.117c1.076,1.097,4.987,5.415,3.851,9.174c-1.067,3.53-3.979,5.183-4.104,5.252l-1.472,0.818
			L155.324,51.229z"/>
		<path fill="#FF0092" d="M122.189-24.022c3.708,0,7.799,2.588,8.396,5.276c0.666,3-1.332,4.5-1.332,4.5s3.969,1.34,5.248,3.903
			c0.969,1.935,2.166,11.599,2.553,21.234c8.145,3.666,18.158,8.329,18.689,9.333c0.463,0.872,0.943,20.04,1.801,20.871
			c0.857,0.83,4.58,4.888,3.676,7.878c-0.904,2.989-3.396,4.375-3.396,4.375l-1.797-4.35l-4.48,2.867c0,0-2.758-3.608-0.865-5.712
			c1.891-2.104,2.521-4.328,2.393-6.762c-0.129-2.435-1.506-16.506-2.301-17.34c-0.428-0.448-7.316-3.355-13.596-5.948
			c0.041,7.083-0.49,13.346-2.051,15.427c-2.354,3.139-6.806,3.702-12.518,3.702c-3.2,0-6.794-0.177-10.637-0.177
			c-0.954,0-1.925,0.011-2.908,0.038c0,0-0.483,0.013-1.317,0.013c-5.196,0-23.976-0.513-23.89-7.929
			c0.032-2.901,0.178-6.116,0.399-9.404c-5,3.213-11.74,7.608-12.131,8.195c-0.625,0.938-0.188,3.001-0.875,10.563
			c-0.687,7.563,2.126,8.688,3.188,9.75c1.062,1.063,1.625,3.813,1.625,3.813l-4.938-0.188l-1.75,3.563c0,0-0.158,0.103-0.482,0.103
			c-0.515,0-1.449-0.259-2.83-1.603c-2.25-2.188,0.062-7.375,0.687-10.688c0.625-3.313,1.001-17.438,1.938-18.438
			c0.732-0.782,9.953-7.719,16.149-12.17c0.844-8.773,2.068-16.827,3.019-19.495c1.396-3.926,5.313-4.51,5.313-4.51
			s-2.425-1.012-1.75-4.083c0.563-2.563,2.666-3.667,5.333-4.083c-1.417,1.416-1.751,3.583-0.168,5.416
			c0.902,1.044,2.12,1.188,2.719,1.188c0.227,0,0.365-0.021,0.365-0.021s5.25-1.583,11.25-1.667
			c0.199-0.003,0.397-0.004,0.595-0.004c5.632,0,10.011,1.097,10.011,1.097s2.729-1.343,2.541-4.042
			c-0.146-2.121-0.605-3.154-3.146-4.384C121.333-23.987,121.759-24.022,122.189-24.022 M122.189-27.022
			c-0.613,0-1.218,0.052-1.797,0.155l-9.111,1.623l8.331,4.031c1.376,0.666,1.376,0.666,1.46,1.89
			c0.016,0.222-0.101,0.437-0.252,0.619c-1.837-0.352-5.266-0.88-9.307-0.88c-0.211,0-0.423,0.001-0.637,0.004
			c-5.454,0.076-10.28,1.295-11.676,1.68c-0.121-0.012-0.264-0.046-0.346-0.142c-0.317-0.367-0.534-0.782,0.018-1.333l6.512-6.505
			l-9.095,1.418c-5.472,0.854-7.262,3.953-7.801,6.403c-0.3,1.366-0.228,2.543,0.063,3.539c-1.417,1.023-2.756,2.538-3.522,4.694
			c-1.17,3.286-2.337,11.914-3.044,18.859C77.01,12.64,67.552,19.67,66.498,20.794c-1.132,1.208-1.382,2.733-2.053,12.557
			c-0.208,3.054-0.424,6.211-0.644,7.375c-0.127,0.673-0.355,1.509-0.597,2.394c-0.986,3.609-2.214,8.102,0.767,11.001
			c1.673,1.627,3.329,2.452,4.921,2.452c1.053,0,1.775-0.366,2.112-0.584l0.697-0.451l0.366-0.745l0.891-1.813l2.991,0.114
			l3.821,0.146l-0.768-3.746c-0.174-0.852-0.866-3.753-2.441-5.331c-0.237-0.238-0.471-0.432-0.696-0.619
			c-0.879-0.73-2.083-1.729-1.627-6.741c0.324-3.568,0.405-5.963,0.458-7.547c0.02-0.584,0.04-1.182,0.068-1.589
			c0.7-0.516,2.346-1.667,6.183-4.176c-0.048,1.281-0.078,2.501-0.091,3.654c-0.022,1.961,0.744,3.786,2.217,5.276
			c4.891,4.948,17.558,5.687,24.673,5.687c0.886,0,1.399-0.014,1.399-0.014c0.899-0.025,1.824-0.037,2.826-0.037
			c1.972,0,3.882,0.047,5.728,0.093c1.721,0.043,3.345,0.083,4.909,0.083c5.438,0,11.525-0.379,14.918-4.902
			c1.013-1.351,2.309-4.141,2.595-12.755c4.94,2.067,7.167,3.062,8.169,3.537c0.627,3.083,1.65,12.846,1.787,15.438
			c0.098,1.844-0.389,3.219-1.628,4.598c-2.807,3.12-0.873,7.464,0.713,9.539l1.676,2.193l2.325-1.488l1.46-0.934l0.428,1.035
			l1.286,3.114l2.944-1.637c0.363-0.202,3.589-2.093,4.81-6.128c1.276-4.22-2.291-8.62-3.896-10.328
			c-0.313-1.921-0.64-7.826-0.842-11.48c-0.423-7.651-0.495-8.34-0.96-9.216c-0.605-1.144-1.089-2.058-18.427-9.904
			c-0.371-7.161-1.354-17.749-2.782-20.6c-0.854-1.711-2.34-2.974-3.734-3.85c0.304-1.1,0.39-2.397,0.064-3.86
			C132.611-23.459,127.32-27.022,122.189-27.022L122.189-27.022z"/>
	</g>
	<path fill="#FFFFFF" d="M111.19-2.155c3.938-0.146,9.625,0,11.063,5.125c0.982,3.505,0.604,9.177-1.5,11.438
		c-2.5,2.688-6.188,3.604-7.813,3.688s-7.82,0.357-10.314-4.5c-2.5-4.875-1.563-9.5,1.125-12.563
		C106.44-2.03,109.501-2.093,111.19-2.155z"/>
	<circle cx="112.065" cy="8.282" r="3.625"/>
	<path fill="#FFFFFF" d="M100,31.906c4.625,0,16.565-8.75,20.565-9.75s12.813-4.437,14.75-5.812
		c-0.064,2.313,0.25,11.937-1.75,13.999c-2,2.062-5.314,3.438-9.75,2.813C119.378,32.531,108.815,34.469,100,31.906z"/>
	<path d="M129.485,34.402l-0.717-0.695c0.777-1.054,3.125-16.751,2.797-20.254l0.996-0.093
		C132.862,16.569,130.635,33.215,129.485,34.402L129.485,34.402z"/>
	<path d="M126.385,34.848c-0.213-1.134,0.104-7.562,0.473-14.618c0.115-2.209,0.207-3.954,0.207-4.362h1
		c0,0.436-0.088,2.104-0.209,4.415c-0.26,4.964-0.695,13.272-0.486,14.382L126.385,34.848L126.385,34.848z"/>
	<path d="M123.481,34.812l-0.959-0.286c1.33-4.45,0.857-9.642,0.045-16.49l0.994-0.118
		C124.387,24.887,124.864,30.178,123.481,34.812L123.481,34.812z"/>
	<path d="M120.065,34.325c-0.018-0.991-0.094-2.118-0.178-3.312c-0.227-3.269-0.508-7.335,0.184-12.058l0.988,0.146
		c-0.676,4.614-0.396,8.623-0.176,11.843c0.084,1.207,0.164,2.347,0.182,3.364L120.065,34.325L120.065,34.325z"/>
	<path d="M117.147,35.049l-0.912-0.409c0.523-1.17,0.275-4.913,0.014-8.876c-0.084-1.28-0.174-2.622-0.246-3.983l0.998-0.053
		c0.072,1.355,0.16,2.693,0.246,3.97C117.54,30.141,117.772,33.65,117.147,35.049L117.147,35.049z"/>
	<path d="M114.501,34.779l-0.998-0.047c0.021-0.481-0.17-1.685-0.395-3.074c-0.354-2.203-0.795-4.945-0.795-7.182h1
		c0,2.156,0.434,4.854,0.783,7.022C114.337,33.006,114.528,34.194,114.501,34.779L114.501,34.779z"/>
	<path d="M111.501,34.859l-1-0.031c0.031-0.967-0.125-2.209-0.307-3.646c-0.191-1.529-0.41-3.263-0.504-5.311l0.998-0.046
		c0.094,2.008,0.309,3.721,0.498,5.23C111.374,32.536,111.534,33.813,111.501,34.859L111.501,34.859z"/>
	<path d="M107.628,34.422c-0.021-0.614-0.135-1.366-0.256-2.161c-0.229-1.519-0.516-3.405-0.305-5.355l0.994,0.107
		c-0.197,1.82,0.066,3.563,0.299,5.099c0.125,0.825,0.244,1.604,0.266,2.277L107.628,34.422L107.628,34.422z"/>
	<path d="M104.753,34.427c0,0-0.188-4.458-0.25-5.775l0.998-0.048c0.064,1.317,0.25,5.779,0.25,5.779L104.753,34.427L104.753,34.427
		z"/>
</g>
</svg>
