<?xml version="1.0" encoding="utf-8"?>
<!-- Generator: Adobe Illustrator 14.0.0, SVG Export Plug-In . SVG Version: 6.00 Build 43363)  -->
<svg version="1.2" baseProfile="tiny" id="_x32_" xmlns="http://www.w3.org/2000/svg" xmlns:xlink="http://www.w3.org/1999/xlink"
	 x="0px" y="0px" width="315.158px" height="218.757px" viewBox="-67.568 -48.664 315.158 218.757" xml:space="preserve">
<g>
	<g>
		<path d="M-94.026,154.019c-1.352,0-2.928-0.37-4.684-1.102c-4.794-1.992-5.513-8.485-6.091-13.703
			c-0.162-1.461-0.315-2.842-0.533-3.972c-0.373-1.938-1.894-6.698-3.364-11.303c-4.256-13.327-4.934-16.163-4.265-17.854
			c0.805-2.041,11.685-19.671,17.396-28.517c1.157-12.338,3.108-26.841,4.926-31.947c1.347-3.789,3.904-5.95,6.128-7.165
			c-0.799-1.479-1.215-3.436-0.675-5.893c1.008-4.583,4.489-7.37,10.349-8.284l7.577-1.182l-5.424,5.421
			c-0.563,0.563-2.236,2.587-0.135,5.018c0.738,0.855,1.781,0.983,2.338,0.983c0.039,0,0.075-0.001,0.106-0.002
			c1.519-0.435,9.172-2.5,17.918-2.624c0.323-0.004,0.641-0.006,0.958-0.006c7.046,0,12.829,1.055,15.122,1.542
			c0.798-0.585,2.019-1.766,1.901-3.448c-0.166-2.398-0.367-3.229-3.486-4.738l-6.942-3.359l7.592-1.353
			c0.774-0.138,1.587-0.208,2.415-0.208c6.929,0,14.314,4.843,15.494,10.16c0.588,2.647,0.146,4.85-0.644,6.512
			c2.246,1.179,5.112,3.143,6.529,5.979c1.689,3.378,3.21,16.324,3.934,28.159c30.198,1.396,31.486,2.494,32.433,3.301
			c0.769,0.655,1.29,1.604,6.105,12.021c2.613,5.654,6.909,14.948,8.282,16.912c2.269,1.011,10.367,5.037,10.88,11.172
			c0.485,5.782-2.818,9.892-2.959,10.063l-1.778,2.173l-4.962-5.126l-4.429,6.156l-1.973-1.185
			c-2.909-1.747-7.358-5.981-5.583-10.772c1.186-3.208,1.077-6.143-0.346-9.23c-1.975-4.294-9.963-19.514-12.207-22.462
			c-1.436-0.144-6.333-0.42-22.988-0.644c0.208,14.517-1.027,23.658-3.674,27.19c-4.675,6.234-13.531,6.756-21.464,6.756
			c-2.404,0-4.917-0.063-7.576-0.128c-2.884-0.072-5.866-0.146-8.957-0.146c-1.464,0-2.952,0.017-4.459,0.059
			c-0.001,0-0.777,0.021-2.117,0.021c-8.635,0-29.51-0.799-36.826-8.199c-1.634-1.653-2.564-3.54-2.776-5.622
			c-3.194,4.603-4.169,6.19-4.465,6.731c0.073,0.496,0.576,1.902,1.106,3.385c0.822,2.298,2.064,5.771,3.622,11.055
			c2.533,8.595,5.59,9.596,7.614,10.258c0.438,0.144,0.831,0.276,1.173,0.425c2.695,1.159,5.166,4.791,5.633,5.507l1.741,2.666
			l-8.716,3.074l-0.415,5.224l-0.402,0.563C-90.35,152.729-91.47,154.019-94.026,154.019L-94.026,154.019z"/>
		<path fill="#FFF800" d="M-34.9,22.825c5.764,0,12.126,4.023,13.054,8.202c1.036,4.665-2.072,6.998-2.072,6.998
			s6.171,2.083,8.162,6.069c1.384,2.768,3.074,15.714,3.803,29.437c14.01,0.625,31.808,1.641,33.179,2.809
			c1.169,0.996,12.854,28.424,14.57,29.132c1.714,0.708,9.422,4.44,9.828,9.279c0.406,4.84-2.402,8.271-2.402,8.271l-5.088-5.257
			L33.3,124.48c0,0-6.054-3.636-4.525-7.76c1.524-4.124,1.167-7.702-0.419-11.146c-1.584-3.444-11.641-22.993-13.269-23.74
			c-0.978-0.451-15.399-0.714-26.748-0.853c0.315,12.683-0.391,24.577-3.125,28.224c-3.66,4.881-10.583,5.756-19.464,5.756
			c-4.974,0-10.562-0.274-16.533-0.274c-1.486,0-2.998,0.017-4.528,0.06c0,0-0.751,0.021-2.047,0.021
			c-8.077,0-37.281-0.798-37.148-12.33c0.025-2.261,0.097-4.649,0.202-7.108c-4.653,6.544-9.392,13.359-9.576,14.223
			c-0.368,1.715,1.447,4.446,4.785,15.772c3.338,11.326,8.046,11.34,10.19,12.27c2.146,0.923,4.535,4.58,4.535,4.58l-7.245,2.556
			l-0.489,6.152c0,0-0.456,0.638-1.923,0.638c-0.858,0-2.062-0.218-3.723-0.909c-4.508-1.874-4.136-10.694-5.129-15.841
			c-0.991-5.149-8.543-25.782-7.759-27.763c0.648-1.644,11.133-18.764,17.504-28.594c1.314-14.269,3.313-27.638,4.848-31.952
			c2.17-6.104,8.261-7.012,8.261-7.012s-3.771-1.573-2.721-6.347c0.876-3.985,4.146-5.704,8.292-6.351
			c-2.203,2.202-2.723,5.571-0.26,8.421c1.403,1.625,3.297,1.848,4.229,1.848c0.351,0,0.566-0.032,0.566-0.032
			s8.164-2.463,17.493-2.594c0.311-0.004,0.618-0.006,0.923-0.006c8.758,0,15.566,1.706,15.566,1.706s4.243-2.088,3.951-6.285
			c-0.228-3.296-0.94-4.903-4.891-6.815C-36.231,22.88-35.57,22.825-34.9,22.825 M-34.9,17.825c-0.975,0-1.935,0.083-2.853,0.247
			l-15.185,2.704l13.883,6.719c1.568,0.759,1.854,1.154,1.857,1.158c0.021,0.04,0.143,0.324,0.224,1.502
			c0.014,0.191-0.069,0.387-0.196,0.571c-2.917-0.549-8.17-1.336-14.333-1.336c-0.329,0-0.659,0.002-0.993,0.007
			c-8.432,0.118-15.903,1.985-18.175,2.609c-0.105-0.016-0.213-0.045-0.259-0.099c-0.484-0.561-0.625-0.984,0.009-1.618
			l10.849-10.841l-15.153,2.364c-8.695,1.356-11.545,6.305-12.405,10.217c-0.458,2.084-0.375,3.896,0.039,5.442
			c-2.181,1.623-4.223,3.988-5.406,7.316c-1.858,5.22-3.823,19.581-5.001,31.943c-5.089,7.916-16.324,25.992-17.291,28.442
			c-0.985,2.49-0.474,4.863,4.21,19.529c1.381,4.323,2.946,9.223,3.291,11.014c0.199,1.033,0.347,2.365,0.503,3.775
			c0.616,5.562,1.459,13.178,7.617,15.737c2.089,0.869,3.936,1.292,5.643,1.292c3.751,0,5.536-2.092,5.993-2.733l0.804-1.128
			l0.11-1.38l0.231-2.914l4.181-1.476l6.005-2.118l-3.482-5.331c-0.754-1.154-3.468-5.029-6.746-6.439
			c-0.478-0.207-0.955-0.363-1.376-0.501c-1.617-0.529-3.832-1.254-5.993-8.588c-1.577-5.353-2.834-8.866-3.666-11.191
			c-0.282-0.787-0.569-1.592-0.76-2.178c0.251-0.398,0.611-0.954,1.126-1.727c0.464,0.704,1.011,1.376,1.637,2.01
			c7.691,7.78,27.488,8.942,38.604,8.942c1.382,0,2.184-0.022,2.184-0.022c1.398-0.039,2.834-0.058,4.392-0.058
			c3.06,0,6.026,0.074,8.895,0.146c2.676,0.066,5.203,0.129,7.639,0.129c8.538,0,18.097-0.599,23.464-7.756
			c1.203-1.604,4.25-5.667,4.196-26.155c11.895,0.177,16.943,0.375,19.083,0.509c2.731,4.22,9.613,17.396,11.319,21.104
			c1.158,2.516,1.239,4.705,0.271,7.323c-2.05,5.531,1.858,10.907,6.641,13.779l3.945,2.369l2.688-3.735l1.339-1.86l0.929,0.96
			l3.906,4.035l3.557-4.347c0.418-0.511,4.074-5.19,3.515-11.855c-0.581-6.938-8.25-11.315-11.65-12.926
			c-1.573-2.667-5.375-10.894-7.734-15.998c-5.024-10.87-5.529-11.832-6.753-12.875c-1.572-1.339-2.827-2.41-31.707-3.791
			c-0.668-9.657-2.038-22.872-4.045-26.886c-1.319-2.64-3.574-4.604-5.723-5.988c0.434-1.706,0.538-3.696,0.042-5.926
			C-18.397,23.488-26.778,17.825-34.9,17.825L-34.9,17.825z"/>
	</g>
	<path fill="#FFFFFF" d="M-53.063,60.62c6.086-0.709,14.91-1.312,17.672,4.595c1.891,4.038,1.897,10.842-1.124,13.821
		c-3.593,3.54-9.207,5.134-11.715,5.456c-2.508,0.322-12.073,1.494-16.445-3.951c-4.381-5.464-3.417-11.097,0.425-15.11
		C-60.408,61.418-55.67,60.927-53.063,60.62z"/>
	<circle cx="-50.644" cy="73.055" r="5.636"/>
	<path fill="#FFFFFF" d="M-69.237,109.635c7.049-1.444,22.507-18.491,28.29-21.26c5.783-2.77,18.136-10.75,20.659-13.45
		c0.624,3.544,4.102,18.107,1.695,21.872c-2.404,3.766-7.021,6.895-13.976,7.322C-39.526,104.55-55.011,110.792-69.237,109.635z"/>
	<path d="M-23.54,104.251l-1.311-0.835c0.858-1.849-0.456-26.493-2.047-31.727l1.488-0.451
		C-23.952,76.031-22.158,102.081-23.54,104.251L-23.54,104.251z"/>
	<path d="M-28.125,105.895c-0.676-1.661-2.2-11.55-3.835-22.416c-0.512-3.403-0.917-6.089-1.045-6.712l1.524-0.312
		c0.135,0.664,0.522,3.233,1.059,6.789c1.149,7.646,3.075,20.438,3.737,22.064L-28.125,105.895L-28.125,105.895z"/>
	<path d="M-32.562,106.742l-1.549-0.136c0.639-7.195-1.698-14.955-5.067-25.135l1.473-0.488
		C-34.273,91.342-31.897,99.253-32.562,106.742L-32.562,106.742z"/>
	<path d="M-37.919,107.067c-0.333-1.503-0.802-3.197-1.3-4.989c-1.362-4.908-3.06-11.016-3.479-18.426l1.552-0.09
		c0.412,7.243,2.083,13.263,3.424,18.1c0.504,1.813,0.979,3.525,1.322,5.068L-37.919,107.067L-37.919,107.067z"/>
	<path d="M-42.139,109.081l-1.517-0.34c0.435-1.95-1.108-7.574-2.744-13.53c-0.528-1.922-1.08-3.938-1.616-5.988l1.506-0.393
		c0.533,2.041,1.083,4.054,1.609,5.971C-43.065,101.479-41.619,106.755-42.139,109.081L-42.139,109.081z"/>
	<path d="M-46.249,109.496l-1.537,0.238c-0.116-0.744-0.782-2.515-1.557-4.562c-1.226-3.247-2.753-7.287-3.449-10.693l1.521-0.313
		c0.674,3.286,2.173,7.262,3.379,10.457C-47.052,106.842-46.392,108.594-46.249,109.496L-46.249,109.496z"/>
	<path d="M-50.796,110.551l-1.532,0.262c-0.253-1.482-0.878-3.327-1.602-5.458c-0.77-2.271-1.643-4.844-2.425-7.934l1.508-0.383
		c0.768,3.031,1.629,5.572,2.388,7.814C-51.715,107.051-51.072,108.944-50.796,110.551L-50.796,110.551z"/>
	<path d="M-56.835,111.089c-0.223-0.93-0.629-2.041-1.062-3.212c-0.825-2.238-1.848-5.026-2.133-8.064l1.549-0.149
		c0.267,2.837,1.211,5.409,2.042,7.678c0.448,1.215,0.872,2.366,1.116,3.388L-56.835,111.089L-56.835,111.089z"/>
	<path d="M-61.211,111.99c0,0-1.675-6.732-2.181-8.722l1.508-0.378c0.506,1.987,2.182,8.724,2.182,8.724L-61.211,111.99
		L-61.211,111.99z"/>
</g>
<g>
	<g>
		<path d="M61.468,45.174c-1.352,0-2.928-0.37-4.684-1.102c-4.794-1.992-5.513-8.485-6.091-13.703
			c-0.162-1.461-0.315-2.842-0.533-3.972c-0.373-1.938-1.894-6.698-3.364-11.303C42.54,1.768,41.862-1.068,42.531-2.759
			C43.336-4.8,54.216-22.429,59.927-31.275c1.157-12.338,3.108-26.841,4.926-31.947c1.347-3.789,3.904-5.95,6.128-7.165
			c-0.799-1.479-1.215-3.436-0.675-5.893c1.008-4.583,4.489-7.37,10.349-8.284l7.577-1.182l-5.424,5.421
			c-0.563,0.563-2.236,2.587-0.135,5.018c0.738,0.855,1.781,0.983,2.338,0.983c0.039,0,0.075-0.001,0.106-0.002
			c1.519-0.435,9.172-2.5,17.917-2.624c0.323-0.004,0.642-0.006,0.959-0.006c7.046,0,12.828,1.055,15.121,1.542
			c0.799-0.585,2.02-1.766,1.902-3.448c-0.166-2.398-0.367-3.229-3.486-4.738l-6.941-3.359l7.592-1.353
			c0.774-0.138,1.587-0.208,2.414-0.208c6.93,0,14.314,4.843,15.494,10.16c0.588,2.647,0.146,4.85-0.643,6.512
			c2.245,1.179,5.111,3.143,6.528,5.979c1.689,3.378,3.21,16.324,3.934,28.159c30.198,1.396,31.485,2.494,32.433,3.301
			c0.769,0.655,1.29,1.604,6.105,12.021c2.613,5.654,6.908,14.948,8.281,16.912c2.27,1.011,10.367,5.037,10.881,11.172
			c0.484,5.782-2.818,9.892-2.959,10.063l-1.777,2.173l-4.963-5.126l-4.429,6.156l-1.973-1.185
			c-2.909-1.747-7.358-5.981-5.583-10.772c1.187-3.208,1.077-6.143-0.346-9.23c-1.975-4.294-9.963-19.514-12.206-22.462
			c-1.436-0.144-6.333-0.42-22.988-0.644c0.208,14.517-1.026,23.658-3.675,27.19c-4.675,6.234-13.53,6.756-21.464,6.756
			c-2.404,0-4.917-0.063-7.576-0.128c-2.884-0.072-5.866-0.146-8.957-0.146c-1.464,0-2.952,0.017-4.459,0.059
			c-0.001,0-0.777,0.021-2.117,0.021c-8.635,0-29.51-0.799-36.826-8.199c-1.634-1.653-2.564-3.54-2.776-5.622
			c-3.194,4.603-4.169,6.19-4.465,6.731c0.073,0.496,0.576,1.902,1.106,3.385c0.822,2.298,2.064,5.771,3.622,11.055
			c2.533,8.595,5.59,9.596,7.614,10.258c0.438,0.144,0.831,0.276,1.173,0.425c2.695,1.159,5.166,4.791,5.633,5.507l1.741,2.666
			l-8.716,3.074l-0.415,5.224l-0.402,0.563C65.143,43.884,64.024,45.174,61.468,45.174L61.468,45.174z"/>
		<path fill="#FFF800" d="M120.594-86.02c5.765,0,12.127,4.023,13.055,8.202c1.035,4.665-2.072,6.998-2.072,6.998
			s6.17,2.083,8.161,6.069c1.384,2.768,3.074,15.714,3.803,29.437c14.01,0.625,31.808,1.641,33.179,2.809
			c1.169,0.996,12.854,28.424,14.57,29.132c1.714,0.708,9.422,4.44,9.827,9.279c0.405,4.84-2.402,8.271-2.402,8.271l-5.089-5.257
			l-4.831,6.715c0,0-6.054-3.636-4.525-7.76c1.524-4.124,1.167-7.702-0.419-11.146c-1.584-3.444-11.641-22.993-13.269-23.74
			c-0.978-0.451-15.399-0.714-26.747-0.853c0.314,12.683-0.391,24.577-3.125,28.224c-3.66,4.881-10.582,5.756-19.464,5.756
			c-4.974,0-10.562-0.274-16.533-0.274c-1.486,0-2.998,0.017-4.528,0.06c0,0-0.751,0.021-2.047,0.021
			c-8.077,0-37.281-0.798-37.148-12.33c0.025-2.261,0.097-4.649,0.202-7.108c-4.653,6.544-9.392,13.359-9.576,14.223
			c-0.368,1.715,1.447,4.446,4.785,15.772c3.338,11.326,8.046,11.34,10.19,12.27c2.146,0.923,4.535,4.58,4.535,4.58l-7.245,2.556
			l-0.489,6.152c0,0-0.456,0.638-1.923,0.638c-0.858,0-2.062-0.218-3.723-0.909c-4.508-1.874-4.136-10.694-5.129-15.841
			c-0.991-5.149-8.543-25.782-7.759-27.763c0.648-1.644,11.133-18.764,17.504-28.594c1.314-14.269,3.313-27.638,4.848-31.952
			c2.17-6.104,8.261-7.012,8.261-7.012s-3.771-1.573-2.721-6.347c0.876-3.985,4.146-5.704,8.292-6.351
			c-2.203,2.202-2.723,5.571-0.26,8.421c1.403,1.625,3.297,1.848,4.229,1.848c0.351,0,0.566-0.032,0.566-0.032
			s8.164-2.463,17.493-2.594c0.311-0.004,0.618-0.006,0.924-0.006c8.758,0,15.566,1.706,15.566,1.706s4.242-2.088,3.951-6.285
			c-0.229-3.296-0.94-4.903-4.892-6.815C119.262-85.966,119.924-86.02,120.594-86.02 M120.594-91.02
			c-0.975,0-1.934,0.083-2.853,0.247l-15.185,2.704l13.883,6.719c1.568,0.759,1.855,1.154,1.857,1.158
			c0.021,0.04,0.143,0.324,0.225,1.502c0.014,0.191-0.069,0.387-0.196,0.571c-2.917-0.549-8.17-1.336-14.333-1.336
			c-0.328,0-0.658,0.002-0.992,0.007c-8.433,0.118-15.904,1.985-18.175,2.609c-0.105-0.016-0.213-0.045-0.259-0.099
			c-0.484-0.561-0.625-0.984,0.009-1.618l10.849-10.841l-15.153,2.364c-8.695,1.356-11.545,6.305-12.405,10.217
			c-0.458,2.084-0.375,3.896,0.039,5.442c-2.181,1.623-4.223,3.988-5.406,7.316c-1.858,5.22-3.823,19.581-5.001,31.943
			C52.406-24.2,41.171-6.124,40.205-3.674c-0.985,2.49-0.474,4.863,4.21,19.529c1.381,4.323,2.946,9.223,3.291,11.014
			c0.199,1.033,0.347,2.365,0.503,3.775c0.616,5.562,1.459,13.178,7.617,15.737c2.089,0.869,3.936,1.292,5.643,1.292
			c3.751,0,5.536-2.092,5.993-2.733l0.804-1.128l0.11-1.38l0.231-2.914l4.181-1.476l6.005-2.118l-3.482-5.331
			c-0.754-1.154-3.468-5.029-6.746-6.439c-0.478-0.207-0.955-0.363-1.376-0.501c-1.617-0.529-3.832-1.254-5.993-8.588
			c-1.577-5.353-2.834-8.866-3.666-11.191c-0.282-0.787-0.569-1.592-0.76-2.178c0.251-0.398,0.611-0.954,1.126-1.727
			c0.464,0.704,1.011,1.376,1.637,2.01c7.691,7.78,27.488,8.942,38.604,8.942c1.382,0,2.184-0.022,2.184-0.022
			c1.398-0.039,2.834-0.058,4.392-0.058c3.06,0,6.026,0.074,8.895,0.146c2.676,0.066,5.203,0.129,7.639,0.129
			c8.538,0,18.097-0.599,23.464-7.756c1.203-1.604,4.25-5.667,4.196-26.155c11.895,0.177,16.943,0.375,19.083,0.509
			c2.73,4.22,9.613,17.396,11.318,21.104c1.158,2.516,1.24,4.705,0.271,7.323c-2.05,5.531,1.858,10.907,6.642,13.779l3.945,2.369
			l2.688-3.735l1.339-1.86l0.93,0.96l3.906,4.035l3.557-4.347c0.418-0.511,4.074-5.19,3.515-11.855
			c-0.581-6.938-8.25-11.315-11.649-12.926c-1.574-2.667-5.376-10.894-7.734-15.998c-5.025-10.87-5.529-11.832-6.754-12.875
			c-1.571-1.339-2.826-2.41-31.706-3.791c-0.668-9.657-2.038-22.872-4.046-26.886c-1.318-2.64-3.574-4.604-5.723-5.988
			c0.434-1.706,0.538-3.696,0.043-5.926C137.096-85.357,128.716-91.02,120.594-91.02L120.594-91.02z"/>
	</g>
	<path fill="#FFFFFF" d="M102.431-48.225c6.086-0.709,14.911-1.312,17.672,4.595c1.891,4.038,1.896,10.842-1.124,13.821
		c-3.593,3.54-9.206,5.134-11.716,5.456c-2.508,0.322-12.073,1.494-16.444-3.951c-4.381-5.464-3.417-11.097,0.425-15.11
		C95.086-47.427,99.823-47.919,102.431-48.225z"/>
	<circle cx="104.849" cy="-35.791" r="5.636"/>
	<path fill="#FFFFFF" d="M86.257,0.79c7.049-1.444,22.507-18.491,28.29-21.26c5.783-2.77,18.136-10.75,20.659-13.45
		c0.624,3.544,4.102,18.107,1.694,21.872c-2.403,3.766-7.021,6.895-13.976,7.322C115.969-4.296,100.483,1.947,86.257,0.79z"/>
	<path d="M131.953-4.594l-1.311-0.835c0.858-1.849-0.455-26.493-2.047-31.727l1.488-0.451
		C131.542-32.814,133.336-6.764,131.953-4.594L131.953-4.594z"/>
	<path d="M127.369-2.95c-0.676-1.661-2.2-11.55-3.836-22.416c-0.512-3.403-0.917-6.089-1.045-6.712l1.525-0.312
		c0.135,0.664,0.521,3.233,1.059,6.789c1.148,7.646,3.074,20.438,3.736,22.064L127.369-2.95L127.369-2.95z"/>
	<path d="M122.931-2.103l-1.549-0.136c0.64-7.195-1.697-14.955-5.066-25.135l1.473-0.488C121.22-17.504,123.597-9.593,122.931-2.103
		L122.931-2.103z"/>
	<path d="M117.574-1.778c-0.332-1.503-0.801-3.197-1.299-4.989c-1.362-4.908-3.061-11.016-3.479-18.426l1.551-0.09
		c0.412,7.243,2.084,13.263,3.425,18.1c0.504,1.813,0.979,3.525,1.322,5.068L117.574-1.778L117.574-1.778z"/>
	<path d="M113.355,0.236l-1.518-0.34c0.435-1.95-1.108-7.574-2.744-13.53c-0.527-1.922-1.079-3.938-1.615-5.988l1.506-0.393
		c0.533,2.041,1.083,4.054,1.609,5.971C112.428-7.366,113.875-2.091,113.355,0.236L113.355,0.236z"/>
	<path d="M109.244,0.651l-1.536,0.238c-0.116-0.744-0.782-2.515-1.557-4.562c-1.226-3.247-2.753-7.287-3.448-10.693l1.521-0.313
		c0.674,3.286,2.173,7.262,3.379,10.457C108.441-2.004,109.101-0.252,109.244,0.651L109.244,0.651z"/>
	<path d="M104.698,1.705l-1.532,0.262c-0.254-1.482-0.878-3.327-1.602-5.458c-0.77-2.271-1.643-4.844-2.425-7.934l1.508-0.383
		c0.768,3.031,1.629,5.572,2.388,7.814C103.779-1.795,104.422,0.099,104.698,1.705L104.698,1.705z"/>
	<path d="M98.659,2.243c-0.223-0.93-0.629-2.041-1.062-3.212c-0.825-2.238-1.848-5.026-2.133-8.064l1.549-0.149
		c0.267,2.837,1.211,5.409,2.042,7.678c0.448,1.215,0.872,2.366,1.116,3.388L98.659,2.243L98.659,2.243z"/>
	<path d="M94.282,3.145c0,0-1.675-6.732-2.181-8.722l1.508-0.378c0.506,1.987,2.182,8.724,2.182,8.724L94.282,3.145L94.282,3.145z"
		/>
</g>
<g>
	<g>
		<path d="M221.133,155.082c-1.352,0-2.928-0.37-4.684-1.102c-4.795-1.992-5.514-8.485-6.092-13.703
			c-0.161-1.461-0.314-2.842-0.532-3.972c-0.373-1.938-1.894-6.698-3.364-11.303c-4.256-13.327-4.934-16.163-4.266-17.854
			c0.806-2.041,11.686-19.671,17.396-28.517c1.156-12.338,3.107-26.841,4.926-31.947c1.347-3.789,3.904-5.95,6.128-7.165
			c-0.8-1.479-1.216-3.436-0.675-5.893c1.008-4.583,4.488-7.37,10.349-8.284l7.577-1.182l-5.425,5.421
			c-0.563,0.563-2.236,2.587-0.136,5.018c0.738,0.855,1.781,0.983,2.338,0.983c0.039,0,0.075-0.001,0.106-0.002
			c1.519-0.435,9.173-2.5,17.917-2.624c0.324-0.004,0.643-0.006,0.959-0.006c7.047,0,12.828,1.055,15.121,1.542
			c0.799-0.585,2.02-1.766,1.902-3.448c-0.166-2.398-0.367-3.229-3.486-4.738l-6.941-3.359l7.592-1.353
			c0.775-0.138,1.588-0.208,2.414-0.208c6.93,0,14.314,4.843,15.494,10.16c0.588,2.647,0.146,4.85-0.643,6.512
			c2.246,1.179,5.111,3.143,6.529,5.979c1.689,3.378,3.209,16.324,3.934,28.159c30.197,1.396,31.484,2.494,32.432,3.301
			c0.77,0.655,1.291,1.604,6.105,12.021c2.613,5.654,6.908,14.948,8.281,16.912c2.27,1.011,10.367,5.037,10.881,11.172
			c0.484,5.782-2.818,9.892-2.959,10.063l-1.777,2.173l-4.963-5.126l-4.428,6.156l-1.973-1.185
			c-2.91-1.747-7.359-5.981-5.584-10.772c1.188-3.208,1.078-6.143-0.346-9.23c-1.975-4.294-9.963-19.514-12.205-22.462
			c-1.436-0.144-6.334-0.42-22.988-0.644c0.207,14.517-1.027,23.658-3.676,27.19c-4.674,6.234-13.529,6.756-21.463,6.756
			c-2.404,0-4.918-0.063-7.576-0.128c-2.885-0.072-5.867-0.146-8.957-0.146c-1.465,0-2.952,0.017-4.459,0.059
			c-0.002,0-0.777,0.021-2.117,0.021c-8.635,0-29.51-0.799-36.826-8.199c-1.634-1.653-2.564-3.54-2.775-5.622
			c-3.195,4.603-4.17,6.19-4.465,6.731c0.072,0.496,0.576,1.902,1.105,3.385c0.822,2.298,2.064,5.771,3.622,11.055
			c2.533,8.595,5.591,9.596,7.614,10.258c0.438,0.144,0.83,0.276,1.173,0.425c2.695,1.159,5.165,4.791,5.634,5.507l1.74,2.666
			l-8.716,3.074l-0.415,5.224l-0.402,0.563C224.808,153.792,223.688,155.082,221.133,155.082L221.133,155.082z"/>
		<path fill="#FFF800" d="M280.258,23.888c5.766,0,12.127,4.023,13.055,8.202c1.035,4.665-2.072,6.998-2.072,6.998
			s6.17,2.083,8.162,6.069c1.383,2.768,3.074,15.714,3.803,29.437c14.01,0.625,31.807,1.641,33.178,2.809
			c1.17,0.996,12.854,28.424,14.57,29.132c1.715,0.708,9.422,4.44,9.828,9.279c0.404,4.84-2.402,8.271-2.402,8.271l-5.09-5.257
			l-4.83,6.715c0,0-6.055-3.636-4.525-7.76c1.523-4.124,1.166-7.702-0.42-11.146c-1.584-3.444-11.641-22.993-13.268-23.74
			c-0.979-0.451-15.4-0.714-26.748-0.853c0.314,12.683-0.391,24.577-3.125,28.224c-3.66,4.881-10.582,5.756-19.463,5.756
			c-4.975,0-10.563-0.274-16.533-0.274c-1.486,0-2.998,0.017-4.529,0.06c0,0-0.751,0.021-2.047,0.021
			c-8.076,0-37.281-0.798-37.148-12.33c0.025-2.261,0.098-4.649,0.203-7.108c-4.654,6.544-9.393,13.359-9.576,14.223
			c-0.367,1.715,1.447,4.446,4.785,15.772s8.046,11.34,10.189,12.27c2.146,0.923,4.535,4.58,4.535,4.58l-7.245,2.556l-0.489,6.152
			c0,0-0.455,0.638-1.922,0.638c-0.858,0-2.063-0.218-3.724-0.909c-4.509-1.874-4.136-10.694-5.13-15.841
			c-0.99-5.149-8.543-25.782-7.759-27.763c0.648-1.644,11.133-18.764,17.504-28.594c1.314-14.269,3.313-27.638,4.849-31.952
			c2.17-6.104,8.26-7.012,8.26-7.012s-3.77-1.573-2.721-6.347c0.876-3.985,4.146-5.704,8.293-6.351
			c-2.203,2.202-2.723,5.571-0.26,8.421c1.402,1.625,3.297,1.848,4.229,1.848c0.352,0,0.566-0.032,0.566-0.032
			s8.164-2.463,17.492-2.594c0.311-0.004,0.619-0.006,0.924-0.006c8.758,0,15.566,1.706,15.566,1.706s4.242-2.088,3.951-6.285
			c-0.229-3.296-0.939-4.903-4.891-6.815C278.927,23.942,279.588,23.888,280.258,23.888 M280.258,18.888
			c-0.975,0-1.934,0.083-2.852,0.247l-15.186,2.704l13.883,6.719c1.568,0.759,1.855,1.154,1.857,1.158
			c0.021,0.04,0.143,0.324,0.225,1.502c0.014,0.191-0.068,0.387-0.195,0.571c-2.918-0.549-8.17-1.336-14.334-1.336
			c-0.328,0-0.658,0.002-0.992,0.007c-8.432,0.118-15.903,1.985-18.175,2.609c-0.105-0.016-0.214-0.045-0.259-0.099
			c-0.484-0.561-0.626-0.984,0.008-1.618l10.85-10.841l-15.154,2.364c-8.694,1.356-11.545,6.305-12.404,10.217
			c-0.459,2.084-0.375,3.896,0.039,5.442c-2.182,1.623-4.224,3.988-5.406,7.316c-1.859,5.22-3.823,19.581-5.002,31.943
			c-5.09,7.916-16.324,25.992-17.291,28.442c-0.984,2.49-0.474,4.863,4.211,19.529c1.381,4.323,2.945,9.223,3.29,11.014
			c0.199,1.033,0.347,2.365,0.503,3.775c0.616,5.562,1.459,13.178,7.617,15.737c2.089,0.869,3.936,1.292,5.643,1.292
			c3.75,0,5.535-2.092,5.992-2.733l0.805-1.128l0.109-1.38l0.232-2.914l4.181-1.476l6.005-2.118l-3.482-5.331
			c-0.754-1.154-3.468-5.029-6.745-6.439c-0.478-0.207-0.955-0.363-1.376-0.501c-1.617-0.529-3.832-1.254-5.994-8.588
			c-1.576-5.353-2.834-8.866-3.666-11.191c-0.281-0.787-0.568-1.592-0.76-2.178c0.251-0.398,0.611-0.954,1.126-1.727
			c0.464,0.704,1.011,1.376,1.638,2.01c7.69,7.78,27.487,8.942,38.604,8.942c1.383,0,2.184-0.022,2.184-0.022
			c1.398-0.039,2.834-0.058,4.393-0.058c3.059,0,6.025,0.074,8.895,0.146c2.676,0.066,5.203,0.129,7.639,0.129
			c8.537,0,18.096-0.599,23.463-7.756c1.203-1.604,4.25-5.667,4.197-26.155c11.895,0.177,16.943,0.375,19.082,0.509
			c2.73,4.22,9.613,17.396,11.318,21.104c1.158,2.516,1.24,4.705,0.271,7.323c-2.049,5.531,1.859,10.907,6.643,13.779l3.945,2.369
			l2.688-3.735l1.338-1.86l0.93,0.96l3.906,4.035l3.557-4.347c0.418-0.511,4.074-5.19,3.516-11.855
			c-0.582-6.938-8.25-11.315-11.65-12.926c-1.574-2.667-5.375-10.894-7.734-15.998c-5.025-10.87-5.529-11.832-6.754-12.875
			c-1.57-1.339-2.826-2.41-31.705-3.791c-0.668-9.657-2.039-22.872-4.047-26.886c-1.318-2.64-3.574-4.604-5.723-5.988
			c0.434-1.706,0.539-3.696,0.043-5.926C296.761,24.551,288.381,18.888,280.258,18.888L280.258,18.888z"/>
	</g>
	<path fill="#FFFFFF" d="M262.095,61.682c6.086-0.709,14.91-1.312,17.672,4.595c1.891,4.038,1.896,10.842-1.123,13.821
		c-3.594,3.54-9.207,5.134-11.717,5.456c-2.508,0.322-12.072,1.494-16.443-3.951c-4.381-5.464-3.418-11.097,0.424-15.11
		C254.75,62.481,259.488,61.989,262.095,61.682z"/>
	<circle cx="264.513" cy="74.117" r="5.636"/>
	<path fill="#FFFFFF" d="M245.922,110.698c7.049-1.444,22.508-18.491,28.289-21.26c5.783-2.77,18.137-10.75,20.66-13.45
		c0.623,3.544,4.102,18.107,1.693,21.872c-2.402,3.766-7.021,6.895-13.975,7.322C275.633,105.612,260.147,111.854,245.922,110.698z"
		/>
	<path d="M291.617,105.313l-1.311-0.835c0.859-1.849-0.455-26.493-2.047-31.727l1.488-0.451
		C291.207,77.094,293,103.143,291.617,105.313L291.617,105.313z"/>
	<path d="M287.033,106.958c-0.676-1.661-2.199-11.55-3.836-22.416c-0.512-3.403-0.916-6.089-1.045-6.712l1.525-0.312
		c0.135,0.664,0.521,3.233,1.059,6.789c1.148,7.646,3.074,20.438,3.736,22.064L287.033,106.958L287.033,106.958z"/>
	<path d="M282.595,107.804l-1.549-0.136c0.641-7.195-1.697-14.955-5.066-25.135l1.473-0.488
		C280.885,92.404,283.261,100.315,282.595,107.804L282.595,107.804z"/>
	<path d="M277.238,108.13c-0.332-1.503-0.801-3.197-1.299-4.989c-1.361-4.908-3.061-11.016-3.479-18.426l1.551-0.09
		c0.412,7.243,2.084,13.263,3.426,18.1c0.504,1.813,0.979,3.525,1.322,5.068L277.238,108.13L277.238,108.13z"/>
	<path d="M273.019,110.143l-1.518-0.34c0.436-1.95-1.107-7.574-2.744-13.53c-0.527-1.922-1.078-3.938-1.615-5.988l1.506-0.393
		c0.533,2.041,1.084,4.054,1.609,5.971C272.094,102.542,273.539,107.817,273.019,110.143L273.019,110.143z"/>
	<path d="M268.908,110.558l-1.535,0.238c-0.117-0.744-0.783-2.515-1.557-4.562c-1.227-3.247-2.754-7.287-3.449-10.693l1.521-0.313
		c0.674,3.286,2.174,7.262,3.379,10.457C268.105,107.904,268.765,109.656,268.908,110.558L268.908,110.558z"/>
	<path d="M264.363,111.613l-1.533,0.262c-0.254-1.482-0.877-3.327-1.602-5.458c-0.77-2.271-1.643-4.844-2.425-7.934l1.508-0.383
		c0.769,3.031,1.629,5.572,2.388,7.814C263.443,108.113,264.086,110.007,264.363,111.613L264.363,111.613z"/>
	<path d="M258.324,112.151c-0.224-0.93-0.629-2.041-1.063-3.212c-0.824-2.238-1.848-5.026-2.133-8.064l1.549-0.149
		c0.268,2.837,1.211,5.409,2.042,7.678c0.448,1.215,0.872,2.366,1.116,3.388L258.324,112.151L258.324,112.151z"/>
	<path d="M253.947,113.052c0,0-1.675-6.732-2.181-8.722l1.508-0.378c0.506,1.987,2.183,8.724,2.183,8.724L253.947,113.052
		L253.947,113.052z"/>
</g>
<g>
	<g>
		<path d="M65.639,263.927c-1.352,0-2.928-0.37-4.684-1.102c-4.795-1.992-5.514-8.485-6.092-13.703
			c-0.161-1.461-0.314-2.842-0.532-3.972c-0.373-1.938-1.894-6.698-3.364-11.303c-4.256-13.327-4.934-16.163-4.266-17.854
			c0.806-2.041,11.686-19.671,17.396-28.517c1.156-12.338,3.107-26.841,4.926-31.947c1.347-3.789,3.904-5.95,6.128-7.165
			c-0.8-1.479-1.216-3.436-0.675-5.893c1.008-4.583,4.488-7.37,10.349-8.284l7.577-1.183l-5.425,5.422
			c-0.563,0.563-2.236,2.586-0.136,5.018c0.738,0.855,1.781,0.982,2.338,0.982c0.039,0,0.075,0,0.106-0.002
			c1.519-0.435,9.173-2.5,17.917-2.623c0.324-0.004,0.643-0.006,0.959-0.006c7.047,0,12.828,1.055,15.121,1.541
			c0.799-0.585,2.02-1.766,1.902-3.447c-0.166-2.398-0.367-3.229-3.486-4.738l-6.941-3.359l7.592-1.353
			c0.775-0.138,1.588-0.208,2.414-0.208c6.93,0,14.314,4.844,15.494,10.16c0.588,2.647,0.146,4.851-0.643,6.513
			c2.246,1.179,5.111,3.144,6.529,5.979c1.689,3.377,3.209,16.323,3.934,28.158c30.197,1.396,31.484,2.494,32.432,3.301
			c0.77,0.655,1.291,1.604,6.105,12.021c2.613,5.654,6.908,14.948,8.281,16.912c2.27,1.011,10.367,5.037,10.881,11.172
			c0.484,5.782-2.818,9.892-2.959,10.063l-1.777,2.173l-4.963-5.126l-4.428,6.156l-1.973-1.185
			c-2.91-1.747-7.359-5.981-5.584-10.772c1.188-3.208,1.078-6.143-0.346-9.23c-1.975-4.294-9.963-19.514-12.205-22.462
			c-1.436-0.144-6.334-0.42-22.988-0.644c0.207,14.517-1.027,23.658-3.676,27.19c-4.674,6.234-13.529,6.756-21.463,6.756
			c-2.404,0-4.918-0.063-7.576-0.128c-2.885-0.072-5.867-0.146-8.957-0.146c-1.465,0-2.951,0.017-4.459,0.059
			c-0.002,0-0.777,0.021-2.117,0.021c-8.635,0-29.51-0.799-36.826-8.199c-1.634-1.653-2.564-3.54-2.775-5.622
			c-3.195,4.603-4.17,6.19-4.465,6.731c0.072,0.496,0.576,1.902,1.105,3.385c0.822,2.298,2.064,5.771,3.622,11.055
			c2.533,8.595,5.591,9.596,7.614,10.258c0.438,0.144,0.83,0.276,1.173,0.425c2.695,1.159,5.165,4.791,5.634,5.507l1.74,2.666
			l-8.716,3.074l-0.415,5.224l-0.402,0.563C69.315,262.637,68.195,263.927,65.639,263.927L65.639,263.927z"/>
		<path fill="#FFF800" d="M124.763,132.733c5.766,0,12.127,4.023,13.055,8.202c1.035,4.665-2.072,6.997-2.072,6.997
			s6.17,2.084,8.162,6.07c1.383,2.768,3.074,15.713,3.803,29.437c14.01,0.625,31.807,1.641,33.178,2.809
			c1.17,0.996,12.854,28.424,14.57,29.132c1.715,0.708,9.422,4.44,9.828,9.279c0.404,4.84-2.402,8.271-2.402,8.271l-5.09-5.257
			l-4.83,6.715c0,0-6.055-3.636-4.525-7.76c1.523-4.124,1.166-7.702-0.42-11.146c-1.584-3.444-11.641-22.993-13.268-23.74
			c-0.979-0.451-15.4-0.714-26.748-0.853c0.314,12.683-0.391,24.577-3.125,28.224c-3.66,4.881-10.582,5.756-19.463,5.756
			c-4.975,0-10.563-0.274-16.533-0.274c-1.486,0-2.998,0.017-4.529,0.06c0,0-0.75,0.021-2.046,0.021
			c-8.076,0-37.281-0.798-37.148-12.33c0.025-2.261,0.098-4.649,0.203-7.108c-4.654,6.544-9.393,13.359-9.576,14.223
			c-0.367,1.715,1.447,4.446,4.785,15.772s8.046,11.34,10.189,12.27c2.146,0.923,4.535,4.58,4.535,4.58l-7.245,2.556l-0.489,6.152
			c0,0-0.455,0.638-1.922,0.638c-0.858,0-2.063-0.218-3.724-0.909c-4.509-1.874-4.136-10.694-5.13-15.841
			c-0.99-5.149-8.543-25.782-7.759-27.763c0.648-1.644,11.133-18.764,17.504-28.594c1.314-14.269,3.313-27.638,4.849-31.951
			c2.17-6.104,8.26-7.013,8.26-7.013s-3.77-1.573-2.721-6.347c0.876-3.985,4.146-5.704,8.293-6.352
			c-2.203,2.202-2.723,5.572-0.26,8.422c1.402,1.625,3.297,1.848,4.229,1.848c0.352,0,0.566-0.031,0.566-0.031
			s8.164-2.463,17.492-2.594c0.311-0.004,0.619-0.006,0.924-0.006c8.758,0,15.566,1.705,15.566,1.705s4.242-2.088,3.951-6.285
			c-0.229-3.297-0.939-4.902-4.891-6.814C123.433,132.788,124.094,132.733,124.763,132.733 M124.763,127.733
			c-0.975,0-1.934,0.084-2.852,0.247l-15.186,2.704l13.883,6.719c1.568,0.759,1.855,1.154,1.857,1.158
			c0.021,0.039,0.143,0.323,0.225,1.502c0.014,0.19-0.068,0.387-0.195,0.57c-2.918-0.549-8.17-1.336-14.334-1.336
			c-0.328,0-0.658,0.002-0.992,0.006c-8.431,0.119-15.903,1.985-18.174,2.609c-0.105-0.016-0.214-0.045-0.259-0.099
			c-0.484-0.562-0.626-0.983,0.008-1.618l10.85-10.841l-15.154,2.364c-8.694,1.355-11.545,6.305-12.404,10.217
			c-0.459,2.084-0.375,3.896,0.039,5.441c-2.182,1.623-4.224,3.988-5.406,7.316c-1.859,5.221-3.823,19.582-5.002,31.943
			c-5.09,7.916-16.324,25.992-17.291,28.442c-0.984,2.49-0.474,4.863,4.211,19.529c1.381,4.323,2.945,9.223,3.29,11.014
			c0.199,1.033,0.347,2.365,0.503,3.775c0.616,5.562,1.459,13.178,7.617,15.737c2.089,0.869,3.936,1.292,5.643,1.292
			c3.75,0,5.535-2.092,5.992-2.733l0.805-1.128l0.109-1.38l0.232-2.914l4.181-1.476l6.005-2.118l-3.482-5.331
			c-0.754-1.154-3.468-5.029-6.745-6.439c-0.478-0.207-0.955-0.363-1.376-0.501c-1.617-0.529-3.832-1.254-5.994-8.588
			c-1.576-5.353-2.834-8.866-3.666-11.191c-0.281-0.787-0.568-1.592-0.76-2.178c0.251-0.398,0.611-0.954,1.126-1.727
			c0.464,0.704,1.011,1.376,1.638,2.01c7.69,7.78,27.487,8.942,38.604,8.942c1.382,0,2.183-0.022,2.183-0.022
			c1.398-0.039,2.834-0.058,4.393-0.058c3.059,0,6.025,0.074,8.895,0.146c2.676,0.066,5.203,0.129,7.639,0.129
			c8.537,0,18.096-0.599,23.463-7.756c1.203-1.604,4.25-5.667,4.197-26.155c11.895,0.177,16.943,0.375,19.082,0.509
			c2.73,4.22,9.613,17.396,11.318,21.104c1.158,2.516,1.24,4.705,0.271,7.323c-2.049,5.531,1.859,10.907,6.643,13.779l3.945,2.369
			l2.688-3.735l1.338-1.86l0.93,0.96l3.906,4.035l3.557-4.347c0.418-0.511,4.074-5.19,3.516-11.855
			c-0.582-6.938-8.25-11.315-11.65-12.926c-1.574-2.667-5.375-10.894-7.734-15.998c-5.025-10.87-5.529-11.832-6.754-12.875
			c-1.57-1.339-2.826-2.41-31.705-3.791c-0.668-9.656-2.039-22.871-4.047-26.885c-1.318-2.641-3.574-4.605-5.723-5.988
			c0.434-1.707,0.539-3.696,0.043-5.926C141.267,133.396,132.886,127.733,124.763,127.733L124.763,127.733z"/>
	</g>
	<path fill="#FFFFFF" d="M106.601,170.528c6.086-0.709,14.91-1.313,17.672,4.595c1.891,4.038,1.896,10.842-1.123,13.821
		c-3.594,3.54-9.207,5.134-11.717,5.456c-2.508,0.322-12.072,1.494-16.443-3.951c-4.381-5.464-3.418-11.097,0.424-15.11
		C99.256,171.327,103.994,170.835,106.601,170.528z"/>
	<circle cx="109.019" cy="182.963" r="5.636"/>
	<path fill="#FFFFFF" d="M90.428,219.544c7.049-1.444,22.507-18.491,28.289-21.26c5.783-2.77,18.137-10.75,20.66-13.45
		c0.623,3.544,4.102,18.107,1.693,21.872c-2.402,3.766-7.021,6.895-13.975,7.322C120.138,214.458,104.654,220.7,90.428,219.544z"/>
	<path d="M136.123,214.159l-1.311-0.835c0.859-1.849-0.455-26.493-2.047-31.727l1.488-0.451
		C135.713,185.939,137.506,211.989,136.123,214.159L136.123,214.159z"/>
	<path d="M131.539,215.803c-0.676-1.661-2.199-11.55-3.836-22.416c-0.512-3.403-0.916-6.089-1.045-6.712l1.525-0.312
		c0.135,0.664,0.521,3.233,1.059,6.789c1.148,7.646,3.074,20.438,3.736,22.064L131.539,215.803L131.539,215.803z"/>
	<path d="M127.101,216.65l-1.549-0.136c0.641-7.195-1.697-14.955-5.066-25.135l1.473-0.488
		C125.39,201.25,127.767,209.161,127.101,216.65L127.101,216.65z"/>
	<path d="M121.744,216.975c-0.332-1.503-0.801-3.197-1.299-4.989c-1.361-4.908-3.061-11.016-3.479-18.426l1.551-0.09
		c0.412,7.243,2.084,13.263,3.426,18.1c0.504,1.813,0.979,3.525,1.322,5.068L121.744,216.975L121.744,216.975z"/>
	<path d="M117.525,218.989l-1.518-0.34c0.436-1.95-1.107-7.574-2.744-13.53c-0.527-1.922-1.078-3.938-1.615-5.988l1.506-0.393
		c0.533,2.041,1.084,4.054,1.609,5.971C116.599,211.387,118.045,216.663,117.525,218.989L117.525,218.989z"/>
	<path d="M113.414,219.404l-1.535,0.238c-0.117-0.744-0.783-2.515-1.557-4.562c-1.227-3.247-2.754-7.287-3.449-10.693l1.521-0.313
		c0.674,3.286,2.174,7.262,3.379,10.457C112.611,216.75,113.271,218.502,113.414,219.404L113.414,219.404z"/>
	<path d="M108.869,220.459l-1.533,0.262c-0.254-1.482-0.877-3.327-1.602-5.458c-0.77-2.271-1.643-4.844-2.424-7.934l1.508-0.383
		c0.768,3.031,1.629,5.572,2.387,7.814C107.949,216.959,108.592,218.852,108.869,220.459L108.869,220.459z"/>
	<path d="M102.83,220.997c-0.223-0.93-0.628-2.041-1.062-3.212c-0.824-2.238-1.848-5.026-2.133-8.064l1.549-0.149
		c0.268,2.837,1.211,5.409,2.042,7.678c0.447,1.215,0.871,2.366,1.115,3.388L102.83,220.997L102.83,220.997z"/>
	<path d="M98.453,221.898c0,0-1.675-6.732-2.181-8.722l1.508-0.378c0.506,1.987,2.183,8.724,2.183,8.724L98.453,221.898
		L98.453,221.898z"/>
</g>
</svg>
