<?xml version="1.0" encoding="utf-8"?>
<!-- Generator: Adobe Illustrator 14.0.0, SVG Export Plug-In . SVG Version: 6.00 Build 43363)  -->
<svg version="1.2" baseProfile="tiny" id="_x30_" xmlns="http://www.w3.org/2000/svg" xmlns:xlink="http://www.w3.org/1999/xlink"
	 x="0px" y="0px" width="120.208px" height="83.439px" viewBox="41.75 35.902 120.208 83.439" xml:space="preserve">
<g>
	<g>
		<path d="M64.448,111.326l-2.813,0.613l-0.27-0.88c-0.384-1.251-0.566-3.613,1.186-4.533c1.158-0.609,1.848-1.436,2.235-2.679
			c0.531-1.706,2.136-8.013,2.263-9.455c-0.271-0.296-1.022-1.059-3.1-3.012c-0.297,4.018-1.024,4.987-1.288,5.339
			c-1.795,2.395-5.187,2.596-8.225,2.596c-0.913,0-1.878-0.024-2.889-0.049c-1.089-0.027-2.231-0.056-3.413-0.056
			c-0.559,0-1.127,0.006-1.703,0.022c0,0-0.297,0.008-0.808,0.008c-3.3,0-11.277-0.306-14.08-3.142
			c-0.734-0.742-1.101-1.608-1.09-2.573c0.019-1.715,0.104-3.676,0.254-5.843c-1.041-0.007-2.208-0.013-3.349-0.013
			c-3.837,0-4.933,0.065-5.244,0.1c-0.131,0.133-0.451,0.589-0.788,1.069c-0.535,0.763-1.343,1.915-2.648,3.566
			c-2.104,2.664-1.746,3.822-1.509,4.588c0.052,0.169,0.098,0.322,0.127,0.462c0.234,1.111-0.356,2.689-0.477,2.994l-0.468,1.185
			l-2.901-2.054l-1.703,1.013l-0.277-0.001c-0.363-0.001-1.59-0.193-2.131-2.599c-0.44-1.957,1.434-3.621,2.94-4.958
			c0.41-0.364,0.804-0.712,1.118-1.04c0.518-0.54,1.662-2.057,2.768-3.523c3.263-4.327,3.958-5.117,4.654-5.287
			c0.702-0.171,6.369-0.544,10.344-0.752c0.517-4.967,1.18-9.067,1.72-10.582c0.51-1.435,1.472-2.264,2.319-2.735
			c-0.296-0.567-0.445-1.311-0.241-2.239c0.389-1.769,1.73-2.844,3.985-3.196l3.03-0.472l-2.169,2.168
			c-0.208,0.207-0.825,0.954-0.049,1.851c0.269,0.312,0.651,0.358,0.856,0.358c0.06-0.01,3.218-0.95,6.875-1.001l0.365-0.002
			c2.671,0,4.868,0.397,5.759,0.585c0.296-0.221,0.732-0.654,0.689-1.262c-0.063-0.914-0.133-1.203-1.303-1.77l-2.776-1.344
			l3.036-0.541c0.298-0.053,0.61-0.08,0.929-0.08c2.663,0,5.501,1.865,5.955,3.913c0.223,1,0.063,1.836-0.23,2.474
			c0.856,0.455,1.934,1.204,2.471,2.28c0.79,1.58,1.494,8.578,1.656,14.07c7.978,7.885,8.059,8.499,8.125,8.994
			c0.052,0.39-0.042,0.794-1.337,4.988c-0.697,2.256-1.841,5.963-1.961,6.886c0.394,0.89,1.65,4.099,0.226,5.979
			c-1.35,1.777-3.351,2.104-3.436,2.117l-1.11,0.171L64.448,111.326z"/>
		<path fill="#4BFF00" d="M54.189,63.171c2.198,0,4.625,1.535,4.979,3.129c0.396,1.779-0.791,2.669-0.791,2.669
			s2.354,0.795,3.113,2.315c0.623,1.245,1.408,7.89,1.562,14.052c3.704,3.655,8.036,8.05,8.123,8.697
			c0.078,0.58-3.604,11.34-3.298,11.978c0.305,0.639,1.54,3.662,0.421,5.139c-1.12,1.476-2.791,1.733-2.791,1.733l-0.103-2.788
			l-3.083,0.672c0,0-0.79-2.575,0.695-3.355s2.295-1.888,2.724-3.267c0.43-1.381,2.563-9.491,2.292-10.119
			c-0.123-0.286-2.464-2.512-4.977-4.849c-0.087,3.248-0.435,5.931-1.194,6.942c-1.396,1.862-4.037,2.196-7.425,2.196
			c-1.896,0-4.025-0.104-6.301-0.104c-0.568,0-1.146,0.006-1.731,0.022c0,0-0.287,0.008-0.78,0.008
			c-3.08,0-14.22-0.304-14.169-4.703c0.023-2.092,0.147-4.46,0.329-6.846c-1.266-0.011-2.87-0.021-4.424-0.021
			c-2.744,0-5.328,0.032-5.607,0.152c-0.614,0.263-1.065,1.43-3.857,4.963c-2.792,3.535-1.759,5.004-1.576,5.876
			c0.184,0.873-0.428,2.421-0.428,2.421l-2.392-1.693l-2.023,1.203c0,0-0.751-0.003-1.16-1.818
			c-0.408-1.814,2.421-3.643,3.805-5.086s6.147-8.339,6.937-8.531c0.575-0.141,6.546-0.549,11.015-0.769
			c0.499-5.061,1.203-9.656,1.753-11.201c0.828-2.329,3.151-2.675,3.151-2.675s-1.438-0.6-1.038-2.421
			c0.334-1.52,1.582-2.175,3.163-2.422c-0.84,0.84-1.039,2.125-0.099,3.212c0.535,0.619,1.257,0.704,1.613,0.704
			c0.134,0,0.216-0.012,0.216-0.012s3.114-0.939,6.672-0.989c0.118-0.001,0.234-0.002,0.351-0.002c3.341,0,5.939,0.651,5.939,0.651
			s1.618-0.796,1.507-2.397c-0.087-1.258-0.358-1.871-1.865-2.6C53.681,63.192,53.933,63.171,54.189,63.171 M54.189,61.171
			c-0.377,0-0.749,0.032-1.104,0.095l-6.072,1.082l5.551,2.688c0.554,0.268,0.67,0.408,0.674,0.414c-0.002,0,0.039,0.11,0.067,0.524
			c0.002,0.034-0.009,0.071-0.028,0.109c-1.129-0.21-3.109-0.5-5.422-0.5c-0.127,0-0.252,0.001-0.378,0.002
			c-3.203,0.045-6.043,0.749-6.937,0.993c-0.016-0.003-0.028-0.007-0.034-0.01c-0.145-0.172-0.196-0.279,0.009-0.483l4.338-4.335
			l-6.06,0.945c-3.368,0.525-4.474,2.448-4.808,3.968c-0.172,0.785-0.147,1.471,0,2.06c-0.826,0.627-1.595,1.533-2.044,2.796
			c-0.629,1.766-1.25,6.039-1.681,9.965c-3.225,0.179-8.839,0.527-9.678,0.732c-1.021,0.248-1.655,0.936-5.214,5.655
			c-1.038,1.377-2.214,2.937-2.691,3.435c-0.275,0.286-0.656,0.625-1.06,0.983c-1.613,1.433-3.822,3.394-3.252,5.926
			c0.704,3.127,2.553,3.377,3.103,3.379l0.554,0.002l0.476-0.283l0.907-0.539l1.331,0.943l2.08,1.472l0.936-2.369
			c0.25-0.634,0.803-2.249,0.525-3.567c-0.035-0.168-0.088-0.351-0.15-0.552c-0.186-0.6-0.439-1.422,1.339-3.674
			c1.322-1.673,2.14-2.84,2.681-3.611c0.172-0.245,0.347-0.494,0.482-0.678c0.586-0.03,1.883-0.065,4.73-0.065
			c0.764,0,1.54,0.003,2.282,0.007c-0.108,1.769-0.171,3.39-0.188,4.838c-0.014,1.224,0.462,2.36,1.378,3.287
			c2.958,2.992,10.537,3.438,14.791,3.438c0.528,0,0.835-0.009,0.835-0.009c0.567-0.016,1.126-0.021,1.676-0.021
			c1.165,0,2.295,0.027,3.388,0.055c1.021,0.025,1.984,0.05,2.914,0.05c3.28,0,6.953-0.231,9.025-2.997
			c0.447-0.595,0.948-1.569,1.272-3.815c0.618,0.593,1.01,0.979,1.259,1.231c-0.318,1.924-1.717,7.389-2.161,8.816
			c-0.306,0.982-0.828,1.608-1.745,2.09c-2.04,1.072-2.312,3.642-1.677,5.713l0.54,1.759l1.798-0.392l0.746-0.162l0.015,0.397
			l0.083,2.246l2.221-0.343c0.252-0.039,2.515-0.44,4.079-2.501c1.621-2.138,0.577-5.349,0.016-6.702
			c0.242-1.174,1.251-4.441,1.878-6.472c1.354-4.385,1.457-4.79,1.373-5.417c-0.111-0.829-0.192-1.435-8.13-9.292
			c-0.174-5.017-0.837-12.264-1.748-14.086c-0.5-1.001-1.346-1.75-2.16-2.284c0.155-0.649,0.187-1.401,0-2.24
			C60.507,63.1,56.974,61.171,54.189,61.171L54.189,61.171z"/>
	</g>
	<path fill="#FFFFFF" d="M48.305,77.51c2.323,0.257,5.653,0.787,6.176,3.219c0.357,1.663-0.222,4.192-1.6,5.041
		c-1.637,1.01-3.861,1.122-4.821,1.026c-0.959-0.095-4.616-0.478-5.775-2.875c-1.163-2.405-0.321-4.416,1.45-5.58
		C45.507,77.178,47.31,77.401,48.305,77.51z"/>
	<circle cx="48.184" cy="82.33" r="2.15"/>
	<path fill="#FFFFFF" d="M39.287,93.045c2.693,0.522,10.631-3.225,13.073-3.354c2.442-0.131,7.961-1.137,9.245-1.719
		c-0.298,1.34-1.203,6.979-2.6,7.954c-1.397,0.975-3.481,1.401-5.995,0.536C50.497,95.595,44.129,95.531,39.287,93.045z"/>
	<path d="M56.173,97.827l-0.34-0.486c0.572-0.525,3.712-9.4,3.917-11.477l0.59,0.059C60.152,87.825,56.977,97.265,56.173,97.827
		L56.173,97.827z"/>
	<path d="M54.317,97.736c0.004-0.684,0.914-4.391,1.925-8.458c0.317-1.272,0.567-2.278,0.613-2.517l0.582,0.112
		c-0.049,0.254-0.288,1.216-0.62,2.547c-0.712,2.861-1.904,7.649-1.908,8.319L54.317,97.736L54.317,97.736z"/>
	<path d="M52.63,97.386l-0.526-0.274c1.276-2.44,1.588-5.518,1.889-9.596l0.591,0.043C54.278,91.711,53.959,94.845,52.63,97.386
		L52.63,97.386z"/>
	<path d="M50.695,96.719c0.103-0.579,0.185-1.244,0.271-1.948c0.237-1.929,0.532-4.328,1.468-7l0.559,0.195
		c-0.914,2.612-1.204,4.977-1.439,6.876c-0.087,0.713-0.17,1.386-0.275,1.979L50.695,96.719L50.695,96.719z"/>
	<path d="M48.914,96.809l-0.484-0.342c0.438-0.622,0.716-2.829,1.011-5.166c0.094-0.755,0.194-1.546,0.306-2.347l0.587,0.082
		c-0.111,0.798-0.211,1.588-0.306,2.339C49.698,93.996,49.438,96.066,48.914,96.809L48.914,96.809z"/>
	<path d="M47.405,96.355l-0.576-0.141c0.068-0.277,0.091-1,0.118-1.835c0.042-1.322,0.096-2.969,0.348-4.271l0.582,0.113
		c-0.244,1.255-0.295,2.875-0.337,4.177C47.51,95.302,47.488,96.016,47.405,96.355L47.405,96.355z"/>
	<path d="M45.649,96.063l-0.579-0.132c0.127-0.56,0.177-1.3,0.233-2.158c0.062-0.911,0.129-1.945,0.306-3.148l0.586,0.086
		c-0.172,1.18-0.24,2.201-0.301,3.103C45.837,94.694,45.786,95.457,45.649,96.063L45.649,96.063z"/>
	<path d="M43.443,95.371c0.057-0.36,0.076-0.812,0.095-1.288c0.037-0.91,0.085-2.04,0.428-3.152l0.567,0.175
		c-0.321,1.038-0.364,2.082-0.402,3.003c-0.021,0.494-0.04,0.962-0.103,1.354L43.443,95.371L43.443,95.371z"/>
	<path d="M41.768,95.049c0,0,0.395-2.617,0.507-3.393l0.586,0.086c-0.112,0.775-0.506,3.395-0.506,3.395L41.768,95.049
		L41.768,95.049z"/>
</g>
<g>
	<g>
		<path d="M123.758,69.809l-2.813,0.613l-0.27-0.879c-0.384-1.251-0.565-3.614,1.187-4.534c1.158-0.609,1.847-1.435,2.233-2.678
			c0.531-1.706,2.136-8.012,2.264-9.455c-0.271-0.295-1.022-1.058-3.1-3.012c-0.298,4.019-1.025,4.987-1.289,5.338
			c-1.795,2.395-5.187,2.595-8.225,2.595c-0.912,0-1.879-0.023-2.889-0.049c-1.09-0.027-2.231-0.056-3.412-0.056
			c-0.56,0-1.128,0.006-1.703,0.022c-0.001,0-0.298,0.008-0.809,0.008c-3.3,0-11.277-0.306-14.08-3.142
			c-0.734-0.743-1.101-1.608-1.09-2.573c0.019-1.715,0.104-3.676,0.254-5.842c-1.041-0.007-2.208-0.013-3.349-0.013
			c-3.837,0-4.933,0.065-5.244,0.1c-0.131,0.132-0.451,0.589-0.788,1.069c-0.535,0.763-1.343,1.916-2.648,3.566
			c-2.104,2.664-1.746,3.822-1.509,4.588c0.052,0.168,0.098,0.321,0.127,0.461c0.234,1.111-0.356,2.689-0.477,2.995l-0.468,1.185
			l-2.901-2.054l-1.703,1.013l-0.277-0.001c-0.363-0.001-1.59-0.193-2.131-2.599c-0.44-1.957,1.434-3.621,2.94-4.958
			c0.41-0.364,0.804-0.712,1.118-1.04c0.518-0.54,1.662-2.057,2.768-3.524c3.263-4.327,3.958-5.117,4.654-5.287
			c0.702-0.171,6.369-0.544,10.344-0.752c0.517-4.967,1.18-9.067,1.72-10.582c0.51-1.436,1.472-2.264,2.319-2.736
			c-0.296-0.567-0.445-1.311-0.241-2.239c0.389-1.769,1.73-2.844,3.985-3.196l3.03-0.472l-2.169,2.168
			c-0.208,0.207-0.825,0.954-0.049,1.851c0.269,0.312,0.651,0.358,0.856,0.358c0.06-0.01,3.218-0.95,6.875-1.001l0.364-0.002
			c2.671,0,4.868,0.397,5.759,0.585c0.296-0.221,0.731-0.654,0.688-1.262c-0.063-0.915-0.132-1.203-1.303-1.769l-2.777-1.344
			l3.037-0.541c0.299-0.053,0.611-0.08,0.93-0.08c2.662,0,5.501,1.865,5.955,3.913c0.223,1,0.063,1.836-0.229,2.474
			c0.856,0.455,1.934,1.204,2.471,2.28c0.79,1.581,1.493,8.579,1.655,14.069c7.979,7.884,8.061,8.499,8.126,8.995
			c0.053,0.389-0.042,0.794-1.339,4.995c-0.696,2.254-1.839,5.956-1.959,6.878c0.394,0.888,1.652,4.097,0.227,5.978
			c-1.351,1.778-3.351,2.105-3.436,2.118l-1.11,0.172L123.758,69.809z"/>
		<path fill="#4BFF00" d="M113.498,21.655c2.198,0,4.625,1.535,4.979,3.129c0.396,1.779-0.79,2.669-0.79,2.669
			s2.354,0.795,3.113,2.315c0.622,1.245,1.407,7.89,1.562,14.052c3.705,3.655,8.037,8.05,8.123,8.697
			c0.078,0.58-3.604,11.34-3.299,11.978c0.306,0.639,1.541,3.662,0.422,5.139c-1.121,1.476-2.791,1.733-2.791,1.733l-0.104-2.788
			l-3.082,0.672c0,0-0.79-2.575,0.695-3.355c1.484-0.78,2.295-1.888,2.724-3.267c0.43-1.381,2.563-9.491,2.292-10.119
			c-0.123-0.286-2.465-2.512-4.977-4.849c-0.088,3.248-0.436,5.931-1.195,6.942c-1.396,1.862-4.036,2.196-7.425,2.196
			c-1.896,0-4.025-0.104-6.301-0.104c-0.568,0-1.146,0.007-1.731,0.023c0,0-0.286,0.008-0.78,0.008
			c-3.08,0-14.22-0.304-14.169-4.703c0.023-2.092,0.147-4.46,0.329-6.846c-1.266-0.011-2.87-0.021-4.424-0.021
			c-2.744,0-5.328,0.033-5.607,0.152c-0.614,0.263-1.065,1.43-3.857,4.963c-2.792,3.535-1.759,5.004-1.576,5.876
			c0.184,0.873-0.428,2.421-0.428,2.421l-2.392-1.693l-2.023,1.203c0,0-0.751-0.003-1.16-1.818
			c-0.408-1.814,2.421-3.643,3.805-5.086s6.147-8.339,6.937-8.531c0.575-0.141,6.546-0.549,11.015-0.769
			c0.499-5.061,1.203-9.656,1.753-11.201c0.828-2.329,3.151-2.675,3.151-2.675s-1.438-0.6-1.038-2.421
			c0.334-1.52,1.582-2.175,3.163-2.422c-0.84,0.84-1.039,2.125-0.099,3.212c0.535,0.619,1.257,0.704,1.613,0.704
			c0.134,0,0.216-0.012,0.216-0.012s3.114-0.939,6.672-0.989c0.118-0.001,0.234-0.002,0.351-0.002c3.342,0,5.939,0.651,5.939,0.651
			s1.617-0.796,1.506-2.397c-0.086-1.258-0.357-1.871-1.865-2.6C112.99,21.675,113.242,21.655,113.498,21.655 M113.498,19.655
			c-0.378,0-0.749,0.032-1.104,0.095l-6.075,1.083l5.555,2.687c0.554,0.268,0.67,0.408,0.675,0.414l0,0
			c-0.003,0,0.038,0.11,0.066,0.522c0.002,0.035-0.009,0.072-0.028,0.11c-1.13-0.209-3.108-0.5-5.422-0.5
			c-0.127,0-0.252,0.001-0.378,0.002c-3.202,0.045-6.043,0.749-6.937,0.993c-0.016-0.003-0.028-0.007-0.034-0.01
			c-0.145-0.172-0.196-0.279,0.009-0.483l4.338-4.335l-6.06,0.945c-3.368,0.525-4.474,2.448-4.808,3.968
			c-0.172,0.785-0.147,1.471,0,2.06c-0.826,0.627-1.595,1.533-2.044,2.796c-0.629,1.765-1.25,6.04-1.681,9.964
			c-3.225,0.179-8.839,0.527-9.678,0.732c-1.021,0.249-1.655,0.936-5.214,5.656c-1.038,1.377-2.214,2.937-2.691,3.434
			c-0.275,0.287-0.656,0.625-1.06,0.984c-1.613,1.432-3.822,3.394-3.252,5.925c0.704,3.127,2.553,3.377,3.103,3.379l0.554,0.002
			l0.476-0.283l0.907-0.539l1.331,0.942l2.079,1.472l0.937-2.369c0.25-0.634,0.803-2.249,0.525-3.568
			c-0.035-0.167-0.088-0.35-0.15-0.551c-0.186-0.6-0.439-1.422,1.339-3.674c1.322-1.673,2.14-2.839,2.681-3.611
			c0.172-0.245,0.347-0.494,0.482-0.678c0.586-0.03,1.883-0.065,4.73-0.065c0.764,0,1.54,0.002,2.282,0.006
			c-0.108,1.769-0.171,3.39-0.188,4.838c-0.014,1.224,0.462,2.36,1.378,3.287c2.958,2.992,10.537,3.438,14.791,3.438
			c0.528,0,0.835-0.009,0.835-0.009c0.567-0.016,1.126-0.022,1.677-0.022c1.165,0,2.295,0.028,3.388,0.055
			c1.02,0.025,1.983,0.049,2.913,0.049c3.28,0,6.953-0.231,9.025-2.997c0.446-0.595,0.947-1.569,1.271-3.815
			c0.62,0.594,1.012,0.981,1.261,1.233c-0.315,1.927-1.706,7.347-2.162,8.814c-0.307,0.983-0.828,1.608-1.745,2.09
			c-2.04,1.072-2.313,3.642-1.677,5.712l0.54,1.759l1.798-0.392l0.746-0.163l0.015,0.399l0.084,2.245l2.22-0.343
			c0.253-0.039,2.514-0.44,4.079-2.5c1.621-2.139,0.577-5.349,0.016-6.704c0.242-1.173,1.25-4.436,1.876-6.463
			c1.37-4.437,1.46-4.792,1.375-5.426c-0.11-0.828-0.191-1.434-8.131-9.291c-0.173-5.017-0.837-12.263-1.747-14.085
			c-0.5-1.001-1.346-1.751-2.16-2.284c0.155-0.649,0.187-1.402,0-2.241C119.805,21.541,116.342,19.655,113.498,19.655
			L113.498,19.655z"/>
	</g>
	<path fill="#FFFFFF" d="M107.615,35.993c2.322,0.257,5.652,0.787,6.176,3.219c0.357,1.663-0.222,4.192-1.6,5.041
		c-1.637,1.01-3.861,1.122-4.821,1.026c-0.96-0.095-4.616-0.478-5.775-2.875c-1.163-2.405-0.321-4.416,1.45-5.58
		C104.816,35.662,106.619,35.885,107.615,35.993z"/>
	<circle cx="107.493" cy="40.814" r="2.15"/>
	<path fill="#FFFFFF" d="M98.596,51.528c2.693,0.522,10.631-3.225,13.074-3.354c2.441-0.131,7.961-1.137,9.244-1.719
		c-0.298,1.34-1.203,6.979-2.6,7.954c-1.397,0.975-3.481,1.401-5.995,0.536C109.806,54.079,103.438,54.014,98.596,51.528z"/>
	<path d="M115.482,56.31l-0.34-0.486c0.572-0.525,3.712-9.4,3.916-11.477l0.59,0.059C119.461,46.308,116.286,55.749,115.482,56.31
		L115.482,56.31z"/>
	<path d="M113.626,56.219c0.005-0.684,0.913-4.391,1.925-8.458c0.317-1.272,0.567-2.278,0.613-2.517l0.582,0.112
		c-0.049,0.254-0.288,1.216-0.619,2.547c-0.713,2.861-1.904,7.649-1.908,8.319L113.626,56.219L113.626,56.219z"/>
	<path d="M111.939,55.87l-0.525-0.274c1.275-2.44,1.588-5.518,1.889-9.596l0.591,0.043C113.588,50.194,113.267,53.329,111.939,55.87
		L111.939,55.87z"/>
	<path d="M110.004,55.202c0.104-0.579,0.186-1.244,0.271-1.948c0.237-1.929,0.532-4.328,1.469-7l0.559,0.195
		c-0.914,2.612-1.204,4.977-1.439,6.876c-0.086,0.713-0.17,1.386-0.275,1.979L110.004,55.202L110.004,55.202z"/>
	<path d="M108.222,55.293l-0.483-0.342c0.438-0.622,0.716-2.829,1.011-5.166c0.095-0.755,0.195-1.546,0.307-2.347l0.588,0.082
		c-0.111,0.798-0.211,1.588-0.307,2.339C109.008,52.479,108.747,54.55,108.222,55.293L108.222,55.293z"/>
	<path d="M106.714,54.839l-0.576-0.141c0.067-0.277,0.091-1,0.118-1.835c0.042-1.322,0.096-2.969,0.348-4.271l0.582,0.113
		c-0.244,1.255-0.295,2.875-0.338,4.177C106.82,53.786,106.797,54.5,106.714,54.839L106.714,54.839z"/>
	<path d="M104.959,54.547l-0.579-0.132c0.128-0.56,0.177-1.3,0.233-2.158c0.062-0.911,0.129-1.945,0.306-3.148l0.587,0.086
		c-0.173,1.18-0.24,2.201-0.301,3.103C105.146,53.177,105.095,53.94,104.959,54.547L104.959,54.547z"/>
	<path d="M102.752,53.854c0.058-0.36,0.076-0.812,0.096-1.288c0.037-0.91,0.085-2.04,0.428-3.152l0.566,0.175
		c-0.32,1.038-0.363,2.082-0.401,3.003c-0.021,0.494-0.04,0.962-0.103,1.354L102.752,53.854L102.752,53.854z"/>
	<path d="M101.077,53.532c0,0,0.395-2.617,0.507-3.393l0.586,0.086c-0.112,0.775-0.506,3.395-0.506,3.395L101.077,53.532
		L101.077,53.532z"/>
</g>
<g>
	<g>
		<path d="M125.347,153.249l-2.813,0.613l-0.27-0.88c-0.384-1.251-0.564-3.613,1.187-4.533c1.158-0.609,1.847-1.436,2.234-2.68
			c0.531-1.705,2.136-8.011,2.263-9.454c-0.271-0.295-1.022-1.057-3.1-3.012c-0.298,4.019-1.025,4.987-1.289,5.339
			c-1.795,2.395-5.187,2.596-8.225,2.596c-0.912,0-1.879-0.024-2.889-0.049c-1.09-0.027-2.231-0.056-3.412-0.056
			c-0.56,0-1.128,0.006-1.703,0.022c-0.001,0-0.298,0.008-0.809,0.008c-3.3,0-11.276-0.306-14.079-3.142
			c-0.734-0.742-1.101-1.608-1.09-2.573c0.019-1.715,0.104-3.676,0.254-5.843c-1.041-0.007-2.208-0.013-3.349-0.013
			c-3.837,0-4.933,0.065-5.244,0.1c-0.131,0.133-0.451,0.589-0.788,1.069c-0.535,0.763-1.343,1.915-2.648,3.566
			c-2.104,2.664-1.746,3.822-1.509,4.588c0.052,0.169,0.098,0.322,0.127,0.462c0.234,1.111-0.356,2.689-0.477,2.994l-0.468,1.185
			l-2.901-2.054l-1.703,1.013l-0.277-0.001c-0.363-0.001-1.59-0.193-2.131-2.599c-0.44-1.957,1.434-3.621,2.94-4.958
			c0.41-0.364,0.804-0.712,1.118-1.04c0.518-0.54,1.662-2.057,2.768-3.523c3.263-4.327,3.958-5.117,4.654-5.287
			c0.702-0.171,6.369-0.544,10.344-0.752c0.517-4.967,1.18-9.067,1.72-10.582c0.51-1.436,1.472-2.264,2.319-2.735
			c-0.296-0.567-0.445-1.311-0.241-2.239c0.389-1.77,1.73-2.844,3.986-3.195l3.028-0.471l-2.167,2.166
			c-0.208,0.208-0.825,0.954-0.05,1.851c0.27,0.313,0.653,0.358,0.858,0.358c0.059-0.009,3.217-0.949,6.874-1.001l0.36-0.002
			c2.673,0,4.871,0.396,5.762,0.585c0.296-0.222,0.731-0.654,0.688-1.263c-0.063-0.915-0.132-1.203-1.302-1.769l-2.78-1.343
			l3.039-0.542c0.299-0.054,0.611-0.08,0.931-0.08c2.662,0,5.5,1.864,5.954,3.912c0.223,1,0.063,1.836-0.229,2.473
			c0.856,0.455,1.935,1.205,2.472,2.28c0.789,1.582,1.492,8.58,1.654,14.07c7.979,7.884,8.061,8.499,8.126,8.994
			c0.053,0.389-0.042,0.795-1.339,4.996c-0.696,2.253-1.839,5.953-1.959,6.877c0.395,0.887,1.656,4.094,0.227,5.979
			c-1.351,1.777-3.351,2.104-3.436,2.117l-1.11,0.172L125.347,153.249z"/>
		<path fill="#4BFF00" d="M115.089,105.094c2.198,0,4.624,1.535,4.978,3.129c0.396,1.779-0.789,2.668-0.789,2.668
			s2.354,0.795,3.113,2.315c0.621,1.245,1.406,7.89,1.561,14.052c3.705,3.655,8.037,8.05,8.123,8.697
			c0.078,0.58-3.604,11.34-3.299,11.978c0.307,0.639,1.541,3.662,0.422,5.139c-1.121,1.476-2.791,1.733-2.791,1.733l-0.104-2.788
			l-3.082,0.672c0,0-0.789-2.575,0.695-3.355s2.295-1.888,2.725-3.267c0.43-1.381,2.563-9.491,2.291-10.119
			c-0.123-0.286-2.465-2.512-4.977-4.849c-0.088,3.248-0.436,5.931-1.195,6.942c-1.396,1.862-4.036,2.196-7.425,2.196
			c-1.896,0-4.025-0.104-6.301-0.104c-0.568,0-1.146,0.006-1.731,0.022c0,0-0.286,0.008-0.78,0.008
			c-3.08,0-14.22-0.304-14.169-4.703c0.023-2.092,0.147-4.46,0.329-6.846c-1.266-0.011-2.87-0.021-4.424-0.021
			c-2.744,0-5.328,0.032-5.607,0.152c-0.614,0.263-1.065,1.43-3.857,4.963c-2.792,3.535-1.759,5.004-1.576,5.876
			c0.184,0.873-0.428,2.421-0.428,2.421l-2.392-1.693l-2.023,1.203c0,0-0.751-0.003-1.16-1.818
			c-0.408-1.814,2.421-3.643,3.805-5.086s6.147-8.339,6.937-8.531c0.575-0.141,6.546-0.549,11.015-0.769
			c0.499-5.061,1.203-9.656,1.753-11.201c0.828-2.328,3.151-2.675,3.151-2.675s-1.438-0.601-1.038-2.421
			c0.334-1.521,1.582-2.176,3.163-2.422c-0.84,0.84-1.039,2.125-0.099,3.212c0.536,0.62,1.259,0.704,1.614,0.704
			c0.133,0,0.215-0.012,0.215-0.012s3.114-0.939,6.673-0.989c0.117-0.002,0.232-0.002,0.347-0.002c3.343,0,5.942,0.65,5.942,0.65
			s1.617-0.796,1.506-2.397c-0.086-1.258-0.357-1.871-1.865-2.6C114.58,105.115,114.833,105.094,115.089,105.094 M115.089,103.094
			c-0.378,0-0.75,0.032-1.105,0.096l-6.079,1.083l5.56,2.687c0.553,0.268,0.669,0.407,0.674,0.413l0,0
			c-0.003,0,0.038,0.11,0.066,0.522c0.002,0.035-0.009,0.072-0.027,0.109c-1.13-0.209-3.11-0.499-5.426-0.499
			c-0.124,0-0.248,0-0.374,0.002c-3.201,0.045-6.042,0.748-6.936,0.993c-0.016-0.004-0.028-0.008-0.035-0.011
			c-0.145-0.172-0.195-0.278,0.009-0.482l4.336-4.334l-6.057,0.942c-3.368,0.524-4.474,2.447-4.809,3.969
			c-0.172,0.784-0.147,1.471,0,2.06c-0.826,0.627-1.595,1.532-2.044,2.796c-0.629,1.766-1.25,6.039-1.681,9.965
			c-3.225,0.179-8.839,0.527-9.678,0.732c-1.021,0.248-1.655,0.936-5.214,5.655c-1.038,1.377-2.214,2.937-2.691,3.435
			c-0.275,0.286-0.656,0.625-1.06,0.983c-1.613,1.433-3.822,3.394-3.252,5.925c0.704,3.128,2.553,3.378,3.103,3.38l0.554,0.002
			l0.476-0.283l0.907-0.539l1.331,0.943l2.08,1.472l0.936-2.369c0.25-0.634,0.803-2.249,0.525-3.567
			c-0.035-0.168-0.088-0.351-0.15-0.552c-0.186-0.6-0.439-1.422,1.339-3.674c1.322-1.673,2.14-2.84,2.681-3.611
			c0.172-0.245,0.347-0.494,0.482-0.678c0.586-0.03,1.883-0.065,4.73-0.065c0.764,0,1.54,0.003,2.282,0.007
			c-0.108,1.769-0.171,3.39-0.188,4.838c-0.014,1.224,0.463,2.36,1.378,3.287c2.958,2.992,10.536,3.438,14.791,3.438
			c0.528,0,0.835-0.009,0.835-0.009c0.567-0.016,1.126-0.021,1.677-0.021c1.165,0,2.295,0.027,3.388,0.055
			c1.02,0.025,1.983,0.05,2.913,0.05c3.28,0,6.953-0.231,9.025-2.997c0.446-0.595,0.947-1.568,1.271-3.815
			c0.619,0.593,1.011,0.98,1.26,1.232c-0.318,1.924-1.717,7.388-2.161,8.814c-0.306,0.983-0.828,1.609-1.745,2.091
			c-2.039,1.072-2.312,3.642-1.677,5.712l0.539,1.761l1.799-0.393l0.746-0.163l0.015,0.399l0.084,2.245l2.22-0.343
			c0.253-0.039,2.514-0.44,4.079-2.5c1.624-2.143,0.579-5.35,0.016-6.704c0.243-1.174,1.25-4.436,1.876-6.463
			c1.37-4.438,1.46-4.792,1.375-5.426c-0.11-0.828-0.191-1.435-8.131-9.291c-0.173-5.016-0.836-12.261-1.745-14.084
			c-0.501-1.003-1.348-1.753-2.162-2.286c0.155-0.649,0.187-1.4,0-2.239C121.396,104.981,117.932,103.094,115.089,103.094
			L115.089,103.094z"/>
	</g>
	<path fill="#FFFFFF" d="M109.205,119.432c2.322,0.257,5.652,0.787,6.176,3.219c0.357,1.663-0.221,4.192-1.6,5.041
		c-1.637,1.01-3.861,1.122-4.82,1.026c-0.961-0.095-4.617-0.478-5.775-2.875c-1.163-2.405-0.321-4.416,1.449-5.58
		C106.406,119.101,108.209,119.324,109.205,119.432z"/>
	<circle cx="109.084" cy="124.253" r="2.15"/>
	<path fill="#FFFFFF" d="M100.186,134.968c2.692,0.522,10.632-3.225,13.073-3.354c2.441-0.131,7.961-1.137,9.244-1.719
		c-0.297,1.34-1.203,6.979-2.6,7.954s-3.48,1.401-5.994,0.536C111.396,137.518,105.029,137.454,100.186,134.968z"/>
	<path d="M117.072,139.75l-0.34-0.486c0.572-0.525,3.713-9.4,3.916-11.477l0.59,0.059
		C121.051,129.748,117.877,139.188,117.072,139.75L117.072,139.75z"/>
	<path d="M115.217,139.659c0.004-0.684,0.912-4.391,1.924-8.458c0.318-1.272,0.568-2.278,0.613-2.517l0.582,0.112
		c-0.049,0.254-0.287,1.216-0.619,2.547c-0.713,2.861-1.904,7.649-1.908,8.319L115.217,139.659L115.217,139.659z"/>
	<path d="M113.529,139.309l-0.525-0.274c1.275-2.44,1.588-5.518,1.889-9.596l0.592,0.043
		C115.177,133.634,114.857,136.768,113.529,139.309L113.529,139.309z"/>
	<path d="M111.594,138.641c0.104-0.579,0.186-1.244,0.271-1.948c0.238-1.929,0.533-4.328,1.469-7l0.559,0.195
		c-0.914,2.612-1.203,4.977-1.439,6.876c-0.086,0.713-0.17,1.386-0.275,1.979L111.594,138.641L111.594,138.641z"/>
	<path d="M109.812,138.732l-0.482-0.342c0.438-0.622,0.715-2.829,1.01-5.166c0.096-0.755,0.195-1.546,0.307-2.347l0.588,0.082
		c-0.111,0.798-0.211,1.588-0.307,2.339C110.597,135.919,110.338,137.989,109.812,138.732L109.812,138.732z"/>
	<path d="M108.304,138.278l-0.576-0.141c0.066-0.277,0.09-1,0.117-1.835c0.043-1.322,0.096-2.969,0.348-4.271l0.582,0.113
		c-0.244,1.255-0.295,2.875-0.338,4.177C108.41,137.225,108.386,137.939,108.304,138.278L108.304,138.278z"/>
	<path d="M106.549,137.986l-0.578-0.132c0.127-0.56,0.176-1.3,0.232-2.158c0.063-0.911,0.129-1.945,0.307-3.148l0.586,0.086
		c-0.172,1.18-0.24,2.201-0.301,3.103C106.736,136.617,106.685,137.38,106.549,137.986L106.549,137.986z"/>
	<path d="M104.342,137.294c0.059-0.36,0.076-0.812,0.096-1.288c0.037-0.91,0.086-2.04,0.428-3.152l0.566,0.175
		c-0.32,1.038-0.363,2.082-0.4,3.003c-0.021,0.494-0.041,0.962-0.104,1.354L104.342,137.294L104.342,137.294z"/>
	<path d="M102.668,136.971c0,0,0.395-2.617,0.507-3.393l0.587,0.086c-0.112,0.775-0.507,3.395-0.507,3.395L102.668,136.971
		L102.668,136.971z"/>
</g>
<g>
	<g>
		<path d="M184.657,111.732l-2.813,0.613l-0.27-0.88c-0.384-1.251-0.564-3.613,1.187-4.533c1.158-0.609,1.847-1.436,2.234-2.68
			c0.531-1.705,2.136-8.011,2.263-9.454c-0.271-0.295-1.022-1.057-3.1-3.012c-0.298,4.02-1.025,4.987-1.289,5.339
			c-1.795,2.395-5.187,2.596-8.225,2.596c-0.912,0-1.878-0.024-2.889-0.049c-1.09-0.027-2.231-0.056-3.412-0.056
			c-0.56,0-1.128,0.006-1.703,0.022c-0.001,0-0.298,0.008-0.809,0.008c-3.3,0-11.277-0.306-14.079-3.142
			c-0.734-0.742-1.101-1.608-1.09-2.573c0.02-1.709,0.104-3.67,0.255-5.843c-1.041-0.007-2.209-0.013-3.35-0.013
			c-3.839,0-4.935,0.065-5.244,0.1c-0.13,0.132-0.449,0.588-0.786,1.068c-0.535,0.763-1.344,1.915-2.649,3.567
			c-2.104,2.664-1.745,3.821-1.508,4.588c0.052,0.169,0.098,0.322,0.127,0.462c0.233,1.111-0.356,2.689-0.478,2.995l-0.468,1.184
			l-2.901-2.054L131.959,101l-0.277-0.001c-0.363-0.001-1.591-0.193-2.132-2.599c-0.44-1.957,1.435-3.621,2.94-4.958
			c0.41-0.364,0.804-0.712,1.118-1.04c0.518-0.539,1.661-2.057,2.767-3.523c3.264-4.327,3.959-5.117,4.655-5.287
			c0.701-0.171,6.368-0.544,10.343-0.752c0.518-4.972,1.182-9.072,1.72-10.582c0.511-1.435,1.473-2.264,2.319-2.735
			c-0.296-0.568-0.444-1.312-0.24-2.24c0.389-1.769,1.729-2.844,3.985-3.195l3.026-0.471l-2.166,2.167
			c-0.207,0.208-0.824,0.954-0.049,1.851c0.27,0.312,0.652,0.358,0.857,0.358c0.059-0.009,3.217-0.95,6.874-1.001l0.36-0.002
			c2.673,0,4.871,0.397,5.762,0.585c0.296-0.221,0.731-0.654,0.688-1.263c-0.063-0.915-0.132-1.203-1.302-1.769l-2.78-1.343
			l3.039-0.542c0.299-0.053,0.611-0.08,0.931-0.08c2.662,0,5.5,1.865,5.954,3.913c0.223,1,0.063,1.835-0.229,2.473
			c0.856,0.455,1.935,1.204,2.472,2.28c0.789,1.582,1.492,8.58,1.654,14.07c7.979,7.884,8.061,8.499,8.126,8.994
			c0.053,0.389-0.042,0.795-1.339,4.996c-0.696,2.253-1.839,5.953-1.959,6.877c0.395,0.887,1.656,4.094,0.227,5.979
			c-1.351,1.777-3.351,2.104-3.436,2.117l-1.11,0.172L184.657,111.732z"/>
		<path fill="#4BFF00" d="M174.398,63.578c2.198,0,4.624,1.535,4.978,3.129c0.396,1.779-0.789,2.668-0.789,2.668
			s2.354,0.795,3.113,2.315c0.621,1.245,1.406,7.89,1.561,14.052c3.705,3.655,8.037,8.05,8.123,8.697
			c0.078,0.58-3.604,11.34-3.299,11.978c0.307,0.639,1.541,3.662,0.422,5.139c-1.121,1.476-2.791,1.733-2.791,1.733l-0.104-2.788
			l-3.082,0.672c0,0-0.789-2.575,0.695-3.355s2.295-1.888,2.725-3.267c0.43-1.381,2.563-9.491,2.291-10.119
			c-0.123-0.286-2.465-2.512-4.977-4.849c-0.088,3.248-0.436,5.931-1.195,6.942c-1.396,1.862-4.036,2.196-7.425,2.196
			c-1.896,0-4.025-0.104-6.301-0.104c-0.568,0-1.146,0.006-1.731,0.022c0,0-0.286,0.008-0.78,0.008
			c-3.08,0-14.221-0.304-14.169-4.703c0.023-2.092,0.147-4.46,0.329-6.846c-1.266-0.011-2.87-0.021-4.424-0.021
			c-2.743,0-5.328,0.032-5.607,0.152c-0.613,0.263-1.064,1.43-3.856,4.963c-2.792,3.535-1.759,5.004-1.575,5.876
			c0.184,0.873-0.429,2.421-0.429,2.421l-2.392-1.693l-2.023,1.203c0,0-0.752-0.003-1.16-1.818
			c-0.408-1.814,2.421-3.643,3.805-5.086s6.146-8.339,6.937-8.531c0.575-0.141,6.546-0.549,11.015-0.769
			c0.5-5.061,1.203-9.656,1.754-11.201c0.828-2.328,3.15-2.675,3.15-2.675s-1.438-0.601-1.037-2.421
			c0.334-1.521,1.581-2.176,3.162-2.422c-0.84,0.84-1.038,2.125-0.099,3.212c0.536,0.62,1.259,0.704,1.614,0.704
			c0.134,0,0.215-0.012,0.215-0.012s3.114-0.939,6.673-0.989c0.116-0.001,0.232-0.002,0.347-0.002c3.343,0,5.942,0.651,5.942,0.651
			s1.617-0.796,1.506-2.397c-0.086-1.258-0.357-1.871-1.865-2.6C173.889,63.598,174.142,63.578,174.398,63.578 M174.398,61.578
			c-0.378,0-0.75,0.032-1.105,0.096l-6.079,1.083l5.56,2.686c0.553,0.267,0.669,0.407,0.674,0.413l0,0
			c-0.003,0,0.038,0.11,0.066,0.522c0.002,0.035-0.009,0.073-0.027,0.11c-1.13-0.21-3.11-0.5-5.426-0.5
			c-0.124,0-0.248,0.001-0.374,0.002c-3.201,0.045-6.041,0.749-6.937,0.993c-0.016-0.004-0.027-0.008-0.034-0.011
			c-0.146-0.172-0.195-0.279,0.009-0.483l4.333-4.333l-6.055,0.942c-3.368,0.524-4.474,2.448-4.808,3.969
			c-0.173,0.784-0.148,1.47-0.001,2.059c-0.825,0.627-1.595,1.533-2.044,2.796c-0.627,1.76-1.249,6.036-1.681,9.965
			c-3.225,0.179-8.839,0.527-9.678,0.732c-1.022,0.248-1.656,0.936-5.215,5.656c-1.038,1.376-2.214,2.937-2.69,3.434
			c-0.275,0.286-0.656,0.625-1.061,0.983c-1.612,1.433-3.821,3.394-3.252,5.926c0.703,3.127,2.554,3.377,3.104,3.379l0.554,0.002
			l0.477-0.283l0.906-0.538l1.331,0.941l2.078,1.473l0.937-2.369c0.251-0.633,0.804-2.249,0.526-3.567
			c-0.035-0.168-0.088-0.351-0.15-0.553c-0.186-0.6-0.439-1.421,1.338-3.673c1.323-1.674,2.142-2.841,2.683-3.612
			c0.171-0.244,0.346-0.493,0.481-0.677c0.587-0.03,1.884-0.065,4.73-0.065c0.764,0,1.54,0.003,2.282,0.007
			c-0.108,1.772-0.171,3.394-0.188,4.838c-0.015,1.224,0.463,2.36,1.378,3.287c2.957,2.992,10.536,3.438,14.791,3.438
			c0.528,0,0.835-0.009,0.835-0.009c0.567-0.016,1.126-0.021,1.677-0.021c1.165,0,2.295,0.027,3.387,0.055
			c1.021,0.025,1.984,0.05,2.914,0.05c3.28,0,6.953-0.231,9.025-2.997c0.446-0.595,0.947-1.568,1.271-3.815
			c0.619,0.593,1.011,0.98,1.26,1.232c-0.318,1.924-1.717,7.388-2.161,8.814c-0.306,0.983-0.828,1.609-1.745,2.091
			c-2.039,1.072-2.312,3.642-1.677,5.712l0.539,1.761l1.799-0.393l0.746-0.163l0.015,0.399l0.084,2.245l2.22-0.343
			c0.253-0.039,2.514-0.44,4.079-2.5c1.624-2.143,0.579-5.35,0.016-6.704c0.243-1.174,1.25-4.436,1.876-6.463
			c1.37-4.438,1.46-4.792,1.375-5.426c-0.11-0.828-0.191-1.435-8.13-9.291c-0.174-5.016-0.837-12.261-1.746-14.084
			c-0.501-1.002-1.348-1.753-2.162-2.286c0.155-0.649,0.187-1.401,0-2.24C180.706,63.465,177.242,61.578,174.398,61.578
			L174.398,61.578z"/>
	</g>
	<path fill="#FFFFFF" d="M168.514,77.916c2.322,0.257,5.652,0.787,6.176,3.219c0.357,1.663-0.221,4.192-1.6,5.041
		c-1.637,1.01-3.861,1.122-4.82,1.026c-0.961-0.095-4.617-0.478-5.775-2.875c-1.163-2.405-0.321-4.416,1.449-5.58
		C165.716,77.585,167.518,77.807,168.514,77.916z"/>
	<circle cx="168.393" cy="82.737" r="2.15"/>
	<path fill="#FFFFFF" d="M159.496,93.451c2.692,0.522,10.632-3.225,13.073-3.354c2.441-0.131,7.961-1.137,9.244-1.719
		c-0.297,1.34-1.203,6.979-2.6,7.954s-3.48,1.401-5.994,0.536C170.706,96.002,164.339,95.937,159.496,93.451z"/>
	<path d="M176.382,98.233l-0.34-0.486c0.572-0.525,3.713-9.4,3.916-11.477l0.59,0.059C180.36,88.231,177.186,97.672,176.382,98.233
		L176.382,98.233z"/>
	<path d="M174.526,98.142c0.004-0.684,0.912-4.391,1.924-8.458c0.318-1.272,0.568-2.278,0.613-2.517l0.582,0.112
		c-0.049,0.254-0.287,1.216-0.619,2.547c-0.713,2.861-1.904,7.649-1.908,8.319L174.526,98.142L174.526,98.142z"/>
	<path d="M172.839,97.793l-0.525-0.274c1.275-2.44,1.588-5.518,1.889-9.596l0.592,0.043
		C174.487,92.117,174.167,95.252,172.839,97.793L172.839,97.793z"/>
	<path d="M170.903,97.125c0.104-0.579,0.186-1.244,0.271-1.948c0.238-1.929,0.533-4.328,1.469-7l0.559,0.195
		c-0.914,2.612-1.203,4.977-1.439,6.876c-0.086,0.713-0.17,1.386-0.275,1.979L170.903,97.125L170.903,97.125z"/>
	<path d="M169.122,97.216l-0.482-0.342c0.438-0.622,0.715-2.829,1.01-5.166c0.096-0.755,0.195-1.546,0.307-2.347l0.588,0.082
		c-0.111,0.798-0.211,1.588-0.307,2.339C169.907,94.402,169.647,96.472,169.122,97.216L169.122,97.216z"/>
	<path d="M167.614,96.761l-0.576-0.141c0.066-0.277,0.09-1,0.117-1.835c0.043-1.322,0.096-2.969,0.348-4.271l0.582,0.113
		c-0.244,1.255-0.295,2.875-0.338,4.177C167.719,95.709,167.696,96.423,167.614,96.761L167.614,96.761z"/>
	<path d="M165.858,96.469l-0.578-0.132c0.127-0.56,0.176-1.3,0.232-2.158c0.063-0.911,0.129-1.945,0.307-3.148l0.586,0.086
		c-0.172,1.18-0.24,2.201-0.301,3.103C166.046,95.1,165.995,95.863,165.858,96.469L165.858,96.469z"/>
	<path d="M163.651,95.777c0.059-0.36,0.076-0.812,0.096-1.288c0.037-0.91,0.086-2.04,0.428-3.152l0.566,0.175
		c-0.32,1.038-0.363,2.082-0.4,3.003c-0.021,0.494-0.041,0.962-0.104,1.354L163.651,95.777L163.651,95.777z"/>
	<path d="M161.977,95.455c0,0,0.395-2.617,0.507-3.393l0.587,0.086c-0.112,0.775-0.507,3.395-0.507,3.395L161.977,95.455
		L161.977,95.455z"/>
</g>
</svg>
