<?xml version="1.0" encoding="utf-8"?>
<!-- Generator: Adobe Illustrator 14.0.0, SVG Export Plug-In . SVG Version: 6.00 Build 43363)  -->
<svg version="1.2" baseProfile="tiny" id="Layer_1" xmlns="http://www.w3.org/2000/svg" xmlns:xlink="http://www.w3.org/1999/xlink"
	 x="0px" y="0px" width="14.911px" height="36.068px" viewBox="0 0 14.911 36.068" xml:space="preserve">
<path fill-rule="evenodd" fill="#FFFFFF" d="M14.543,23.216c-0.441-1.566-0.883-3.133-1.324-4.7
	c-0.678,0.386-1.354,0.775-2.031,1.162c-0.615-2.187-1.231-4.372-1.848-6.56c0.68-0.386,1.354-0.775,2.033-1.162
	c-0.431-1.53-0.861-3.061-1.293-4.591C9.402,7.752,8.727,8.141,8.048,8.526C7.248,5.685,6.447,2.843,5.648,0
	C5.211,0.124,4.773,0.247,4.336,0.37c0.83,2.95,1.662,5.903,2.492,8.854c-0.995,0.547-1.911,1.137-2.955,1.657
	c-0.8-2.843-1.6-5.684-2.4-8.527C1.036,2.478,0.599,2.601,0.162,2.724c0.83,2.952,1.661,5.903,2.492,8.855
	c-0.631,0.414-1.307,0.802-2.033,1.162c0.432,1.529,0.861,3.061,1.293,4.592c0.771-0.304,1.201-0.8,2.063-1.054
	c0.605,2.15,1.211,4.301,1.816,6.451c-0.631,0.413-1.307,0.801-2.032,1.161c0.44,1.567,0.882,3.134,1.323,4.701
	c0.822-0.275,1.24-0.778,2.063-1.053c0.801,2.843,1.601,5.684,2.4,8.528c0.438-0.125,0.875-0.248,1.312-0.371
	c-0.841-2.986-1.682-5.975-2.522-8.962c1.042-0.521,1.959-1.111,2.955-1.658c0.769,2.732,1.539,5.466,2.307,8.199
	c0.438-0.123,0.875-0.246,1.313-0.369c-0.801-2.842-1.6-5.684-2.4-8.527C13.235,24.019,13.912,23.63,14.543,23.216z M7.012,22.032
	c-0.615-2.186-1.23-4.372-1.846-6.559c0.979-0.496,1.886-1.029,2.736-1.596c0.073-0.021,0.146-0.041,0.219-0.063
	c0.615,2.188,1.23,4.373,1.846,6.56C8.925,20.895,8.008,21.485,7.012,22.032z"/>
</svg>
