<?xml version="1.0" encoding="utf-8"?>
<!-- Generator: Adobe Illustrator 14.0.0, SVG Export Plug-In . SVG Version: 6.00 Build 43363)  -->
<svg version="1.2" baseProfile="tiny" id="Layer_1" xmlns="http://www.w3.org/2000/svg" xmlns:xlink="http://www.w3.org/1999/xlink"
	 x="0px" y="0px" width="79.576px" height="84.878px" viewBox="0 0 79.576 84.878" xml:space="preserve">
<path fill="#FFFFFF" d="M37.492,38.841c0.493-0.674,1.032-1.303,1.616-1.887c5.663-5.753,14.787-4.629,20.539,1.213
	c4.811,4.809,5.483,11.234,3.28,17.572l10.922,7.325c0.898,0.63,1.572,1.304,2.202,1.933c4.584,4.584,4.674,10.428,0.403,15.686
	c-3.324,4.134-10.157,5.842-14.605,2.202c-2.966-2.428-3.911-7.055-1.618-9.978c2.112-2.651,6.382-2.696,8.943-0.314
	c3.597,3.326,1.304,7.865-0.315,8.854c1.665,1.395,4.899-0.674,6.024-2.067c3.684-4.673,3.102-9.214-0.404-12.989
	c-0.989-0.988-2.248-2.066-3.642-2.921l-8.719-5.662c-1.033,1.844-2.247,3.415-3.595,4.763c-7.73,7.731-20.584,7.462-29.707-0.403
	c-9.438-8.089-8.899-21.661-9.032-32.673c-4.137-2.517-7.866-5.258-11.282-8.674C4.414,16.73-2.058,6.483,0.638,0.64
	C1.761-1.921,14.21,3.697,19.109,8.775c6.203,6.382,9.349,15.28,9.305,24.043L37.492,38.841z M42.435,44.593
	c-1.754,3.281-1.305,8.046,1.527,10.788c2.382,2.382,5.483,2.335,8.404,1.303c0.314-0.135,0.584-0.046,0.765,0.134
	c0.271,0.27,0.179,0.811-0.181,1.08c-4.584,2.246-10.336,1.347-14.065-2.473c-3.687-3.686-4.496-10.336-2.429-14.831l-8.134-5.438
	c-0.541,8.989-0.764,19.279,6.157,26.291c7.01,7.011,17.259,5.392,23.414-1.304c0.989-1.079,1.799-2.246,2.473-3.549L42.435,44.593z
	 M13.492,6.842C12.009,5.45,9.716,4.865,8.143,6.438c-3.011,4.539,2.113,12.36,5.259,15.685c1.888,1.888,4.134,3.506,6.427,4.899
	C20.323,20.325,18.75,11.741,13.492,6.842z M61.356,54.706c1.258-4.134,0.179-8.897-3.191-11.999
	c-4.449-3.82-10.519-3.775-14.473,0.271L61.356,54.706z"/>
</svg>
