<?xml version="1.0" encoding="utf-8"?>
<!-- Generator: Adobe Illustrator 14.0.0, SVG Export Plug-In . SVG Version: 6.00 Build 43363)  -->
<svg version="1.2" baseProfile="tiny" id="Layer_1" xmlns="http://www.w3.org/2000/svg" xmlns:xlink="http://www.w3.org/1999/xlink"
	 x="0px" y="0px" width="46.597px" height="72.203px" viewBox="0 0 46.597 72.203" xml:space="preserve">
<g>
	<path fill="#FFFFFF" d="M1.485,0c2.771,2.724,5.806,6.555,11.933,7.963c4.691,1.055,9.453,1.571,13.173,2.499
		c4.893,1.191,9.663,3.738,12.708,7.706c4.875,6.348,6.702,15.022,7.298,20.094l-0.989,0.76c-1.066-4.421-2.346-12.156-7.043-17.768
		c-2.606-3.141-6.498-5.683-10.542-6.653c-4.615-1.209-10.392-0.649-13.998,1.731l26.6,34.644c2.109,2.747,2.398,6.538,1.423,10.197
		c-0.913,3.611-3.121,7.054-5.807,9.116c-1.709,1.313-3.719,1.98-5.52,1.909c-1.863-0.025-3.566-0.854-4.784-2.439
		c-1.921-2.503-2.134-6.317-1.22-9.93c0.866-3.673,2.859-7.144,5.3-9.018c2.136-1.641,4.188-2.849,6.083-2.655L0,1.14L1.485,0z"/>
</g>
</svg>
