<?xml version="1.0" encoding="utf-8"?>
<!-- Generator: Adobe Illustrator 14.0.0, SVG Export Plug-In . SVG Version: 6.00 Build 43363)  -->
<svg version="1.2" baseProfile="tiny" id="Layer_1" xmlns="http://www.w3.org/2000/svg" xmlns:xlink="http://www.w3.org/1999/xlink"
	 x="0px" y="0px" width="27.867px" height="56.934px" viewBox="0 0 27.867 56.934" xml:space="preserve">
<path fill="#FFFFFF" d="M26.293,0l1.572,0.3l-9.395,49.203c-1.082,5.037-8.292,8.192-13.119,7.271
	c-1.454-0.278-2.888-0.746-3.907-1.725c-1.627-1.576-1.649-3.624-1.18-5.764c1.163-5.145,8.083-8.053,13.119-7.271
	c1.464,0.22,2.896,0.65,4.476,2.158L26.293,0z M1.641,52.318c-0.155,0.814,0.208,1.11,1.165,1.474
	c1.665,0.438,5.061-0.3,8.066-1.836c3.053-1.466,6.084-3.805,6.254-5.642c0.063-0.65-0.437-1.145-1.007-1.313
	c-2.413-0.942-7.549,1.331-9.63,2.441C3.935,48.822,1.847,50.609,1.641,52.318z"/>
</svg>
