<?xml version="1.0" encoding="utf-8"?>
<!-- Generator: Adobe Illustrator 14.0.0, SVG Export Plug-In . SVG Version: 6.00 Build 43363)  -->
<svg version="1.2" baseProfile="tiny" id="Layer_1" xmlns="http://www.w3.org/2000/svg" xmlns:xlink="http://www.w3.org/1999/xlink"
	 x="0px" y="0px" width="45.456px" height="40.29px" viewBox="0 0 45.456 40.29" xml:space="preserve">
<path fill-rule="evenodd" d="M36.734,28.819c2.825-8.422,6.275-18.708,8.722-25.998c-0.075-0.025-0.148-0.049-0.223-0.075
	C37.303,1.894,29.336,0.943,21.369,0c-3.376,10.066-6.753,20.133-10.13,30.2c-2.788-3.971-10.1-1.313-11.116,2.844
	c-0.914,3.737,3.473,4.81,6.022,4.212c1.517-0.357,3.193-1.18,4.153-2.405c1.282-1.64,2.02-4.914,2.977-7.767
	c2.521-7.514,5.562-16.875,7.952-23.334c7.34,1.069,14.993,1.635,22.016,2.712c-2.95,8.798-5.902,17.595-8.854,26.391
	c-2.952-3.856-9.943-1.405-11.114,2.846c-0.428,1.549,0.487,3.262,1.659,3.917c3.137,1.748,7.008-0.207,8.604-2.375
	C34.698,35.666,35.73,31.812,36.734,28.819z"/>
</svg>
