<?xml version="1.0" encoding="utf-8"?>
<!-- Generator: Adobe Illustrator 14.0.0, SVG Export Plug-In . SVG Version: 6.00 Build 43363)  -->
<svg version="1.2" baseProfile="tiny" id="Layer_1" xmlns="http://www.w3.org/2000/svg" xmlns:xlink="http://www.w3.org/1999/xlink"
	 x="0px" y="0px" width="30.848px" height="49.413px" viewBox="0 0 30.848 49.413" xml:space="preserve">
<path fill-rule="evenodd" fill="#FFFFFF" d="M19.21,23.797c-1.504,1.317-1.867,3.371-3.126,4.311C11.414,18.738,6.744,9.369,2.074,0
	C1.484,0.568-0.55,0.652,0.142,1.649C8.08,17.57,16.016,33.492,23.954,49.413c0.892-2.237,1.788-5.257,3.131-8.44
	c1.172-2.779,2.792-5.752,3.406-8.35c0.407-1.717,0.572-4.367-0.084-6.15C28.607,21.59,23.136,20.359,19.21,23.797z M23.777,43.537
	c-2.045-4.102-4.091-8.205-6.136-12.308c-0.283-4.493,5.553-7.54,7.804-1.367C27,34.124,24.625,40.525,23.777,43.537z"/>
</svg>
